<svg width="40" height="40" viewBox="0 0 40 40" fill="none" xmlns="http://www.w3.org/2000/svg">
<path d="M0 20C0 8.95431 8.95431 0 20 0C31.0457 0 40 8.95431 40 20C40 31.0457 31.0457 40 20 40C8.95431 40 0 31.0457 0 20Z" fill="#FE5151"/>
<path d="M31.9298 21.608H29.4938V24.1H27.2258V21.608H24.7898V19.466H27.2258V16.96H29.4938V19.466H31.9298V21.608Z" fill="white"/>
<path d="M17.1957 19.942C16.3184 19.4753 15.8797 18.7427 15.8797 17.744C15.8797 17.24 16.0104 16.7827 16.2717 16.372C16.5331 15.952 16.9297 15.6207 17.4617 15.378C17.9937 15.126 18.6471 15 19.4217 15C20.1964 15 20.8451 15.126 21.3677 15.378C21.8997 15.6207 22.2964 15.952 22.5577 16.372C22.8191 16.7827 22.9497 17.24 22.9497 17.744C22.9497 18.248 22.8284 18.6867 22.5857 19.06C22.3524 19.4333 22.0351 19.7273 21.6337 19.942C22.1377 20.1847 22.5251 20.5207 22.7957 20.95C23.0664 21.37 23.2017 21.8647 23.2017 22.434C23.2017 23.0967 23.0337 23.6707 22.6977 24.156C22.3617 24.632 21.9044 24.996 21.3257 25.248C20.7564 25.5 20.1217 25.626 19.4217 25.626C18.7217 25.626 18.0824 25.5 17.5037 25.248C16.9344 24.996 16.4817 24.632 16.1457 24.156C15.8097 23.6707 15.6417 23.0967 15.6417 22.434C15.6417 21.8553 15.7771 21.356 16.0477 20.936C16.3184 20.5067 16.7011 20.1753 17.1957 19.942ZM20.6257 18.108C20.6257 17.7253 20.5137 17.4313 20.2897 17.226C20.0751 17.0113 19.7857 16.904 19.4217 16.904C19.0577 16.904 18.7637 17.0113 18.5397 17.226C18.3251 17.4407 18.2177 17.7393 18.2177 18.122C18.2177 18.486 18.3297 18.7753 18.5537 18.99C18.7777 19.1953 19.0671 19.298 19.4217 19.298C19.7764 19.298 20.0657 19.1907 20.2897 18.976C20.5137 18.7613 20.6257 18.472 20.6257 18.108ZM19.4217 20.978C18.9831 20.978 18.6284 21.0993 18.3577 21.342C18.0871 21.5753 17.9517 21.902 17.9517 22.322C17.9517 22.714 18.0824 23.036 18.3437 23.288C18.6144 23.54 18.9737 23.666 19.4217 23.666C19.8697 23.666 20.2197 23.54 20.4717 23.288C20.7331 23.036 20.8637 22.714 20.8637 22.322C20.8637 21.9113 20.7284 21.5847 20.4577 21.342C20.1964 21.0993 19.8511 20.978 19.4217 20.978Z" fill="white"/>
<path d="M10 17.436V15.21H13.878V25.43H11.386V17.436H10Z" fill="white"/>
</svg>
