<svg width="25" height="24" viewBox="0 0 25 24" fill="none" xmlns="http://www.w3.org/2000/svg">
<path d="M17.9545 2H7.04545C5.84037 2.00144 4.68505 2.4808 3.83293 3.33292C2.9808 4.18504 2.50144 5.34035 2.5 6.54542V13.8181C2.50132 14.8656 2.86372 15.8805 3.52611 16.6919C4.1885 17.5034 5.11038 18.0616 6.13636 18.2726V21.0908C6.13634 21.2554 6.181 21.4169 6.26557 21.5581C6.35014 21.6992 6.47146 21.8148 6.61658 21.8925C6.7617 21.9701 6.92517 22.0069 7.08956 21.9989C7.25395 21.9909 7.41309 21.9385 7.55 21.8471L12.7727 18.3635H17.9545C19.1596 18.3621 20.3149 17.8827 21.1671 17.0306C22.0192 16.1785 22.4986 15.0232 22.5 13.8181V6.54542C22.4986 5.34035 22.0192 4.18504 21.1671 3.33292C20.3149 2.4808 19.1596 2.00144 17.9545 2ZM16.1364 12.909H8.86364C8.62253 12.909 8.3913 12.8132 8.22081 12.6428C8.05032 12.4723 7.95455 12.241 7.95455 11.9999C7.95455 11.7588 8.05032 11.5276 8.22081 11.3571C8.3913 11.1866 8.62253 11.0908 8.86364 11.0908H16.1364C16.3775 11.0908 16.6087 11.1866 16.7792 11.3571C16.9497 11.5276 17.0455 11.7588 17.0455 11.9999C17.0455 12.241 16.9497 12.4723 16.7792 12.6428C16.6087 12.8132 16.3775 12.909 16.1364 12.909ZM17.9545 9.27268H7.04545C6.80435 9.27268 6.57312 9.1769 6.40263 9.00641C6.23214 8.83593 6.13636 8.6047 6.13636 8.36359C6.13636 8.12249 6.23214 7.89126 6.40263 7.72077C6.57312 7.55029 6.80435 7.45451 7.04545 7.45451H17.9545C18.1957 7.45451 18.4269 7.55029 18.5974 7.72077C18.7679 7.89126 18.8636 8.12249 18.8636 8.36359C18.8636 8.6047 18.7679 8.83593 18.5974 9.00641C18.4269 9.1769 18.1957 9.27268 17.9545 9.27268Z" fill="#493F99"/>
</svg>
