<svg width="43" height="34" viewBox="0 0 43 34" fill="none" xmlns="http://www.w3.org/2000/svg">
<path d="M40.3619 2.77905H2.74506V5.77508H40.3619V2.77905Z" fill="url(#paint0_linear_2364_4756)"/>
<path d="M2.745 7.01929C4.26102 7.01929 5.49 5.79031 5.49 4.27429C5.49 2.75827 4.26102 1.5293 2.745 1.5293C1.22898 1.5293 0 2.75827 0 4.27429C0 5.79031 1.22898 7.01929 2.745 7.01929Z" fill="url(#paint1_linear_2364_4756)"/>
<path d="M39.8706 7.01929C41.3867 7.01929 42.6156 5.79031 42.6156 4.27429C42.6156 2.75827 41.3867 1.5293 39.8706 1.5293C38.3546 1.5293 37.1256 2.75827 37.1256 4.27429C37.1256 5.79031 38.3546 7.01929 39.8706 7.01929Z" fill="url(#paint2_linear_2364_4756)"/>
<path d="M6.53781 34V3.13379C6.53781 1.95502 7.49283 1 8.6716 1H33.9387C35.1174 1 36.0725 1.95502 36.0725 3.13379V34L31.5757 29.8197L28.1758 26.6655L25.6546 29.3559L21.3051 34L16.9557 29.3504L14.4399 26.66L11.04 29.8197L6.53781 34Z" fill="url(#paint3_linear_2364_4756)"/>
<path d="M15.7265 12.458C15.7685 10.792 16.2515 9.518 17.1755 8.636C18.1135 7.754 19.4365 7.313 21.1445 7.313C22.2505 7.313 23.1955 7.502 23.9795 7.88C24.7635 8.258 25.3515 8.769 25.7435 9.413C26.1495 10.057 26.3525 10.785 26.3525 11.597C26.3525 12.577 26.1215 13.347 25.6595 13.907C25.1975 14.453 24.6795 14.824 24.1055 15.02V15.104C25.7855 15.734 26.6255 16.903 26.6255 18.611C26.6255 19.507 26.4155 20.298 25.9955 20.984C25.5755 21.67 24.9735 22.202 24.1895 22.58C23.4195 22.958 22.5025 23.147 21.4385 23.147C19.6185 23.147 18.1905 22.713 17.1545 21.845C16.1185 20.977 15.5865 19.619 15.5585 17.771H20.0945C20.0665 18.275 20.1365 18.66 20.3045 18.926C20.4865 19.178 20.7945 19.304 21.2285 19.304C21.4805 19.304 21.6905 19.213 21.8585 19.031C22.0265 18.835 22.1105 18.583 22.1105 18.275C22.1105 17.883 21.9775 17.589 21.7115 17.393C21.4595 17.183 21.0255 17.078 20.4095 17.078H19.6325V13.319H20.3885C21.3405 13.375 21.8165 12.997 21.8165 12.185C21.8165 11.835 21.7395 11.576 21.5855 11.408C21.4455 11.24 21.2635 11.156 21.0395 11.156C20.5215 11.156 20.2625 11.59 20.2625 12.458H15.7265Z" fill="white"/>
<defs>
<linearGradient id="paint0_linear_2364_4756" x1="21.5529" y1="2.93569" x2="21.5529" y2="5.72019" gradientUnits="userSpaceOnUse">
<stop stop-color="#FFC124"/>
<stop offset="1" stop-color="#FF8C00"/>
</linearGradient>
<linearGradient id="paint1_linear_2364_4756" x1="1.85172" y1="2.50141" x2="4.07448" y2="6.91646" gradientUnits="userSpaceOnUse">
<stop stop-color="#FFC124"/>
<stop offset="1" stop-color="#FF8C00"/>
</linearGradient>
<linearGradient id="paint2_linear_2364_4756" x1="38.9775" y1="2.5017" x2="41.2002" y2="6.91675" gradientUnits="userSpaceOnUse">
<stop stop-color="#FFC124"/>
<stop offset="1" stop-color="#FF8C00"/>
</linearGradient>
<linearGradient id="paint3_linear_2364_4756" x1="32.7017" y1="7.59823" x2="5.68912" y2="32.4922" gradientUnits="userSpaceOnUse">
<stop stop-color="#293E84"/>
<stop offset="1" stop-color="#841A82"/>
</linearGradient>
</defs>
</svg>
