<svg width="43" height="34" viewBox="0 0 43 34" fill="none" xmlns="http://www.w3.org/2000/svg">
<path d="M40.3619 2.77905H2.74506V5.77508H40.3619V2.77905Z" fill="url(#paint0_linear_2364_4747)"/>
<path d="M2.745 7.01929C4.26102 7.01929 5.49 5.79031 5.49 4.27429C5.49 2.75827 4.26102 1.5293 2.745 1.5293C1.22898 1.5293 0 2.75827 0 4.27429C0 5.79031 1.22898 7.01929 2.745 7.01929Z" fill="url(#paint1_linear_2364_4747)"/>
<path d="M39.8706 7.01929C41.3867 7.01929 42.6156 5.79031 42.6156 4.27429C42.6156 2.75827 41.3867 1.5293 39.8706 1.5293C38.3546 1.5293 37.1256 2.75827 37.1256 4.27429C37.1256 5.79031 38.3546 7.01929 39.8706 7.01929Z" fill="url(#paint2_linear_2364_4747)"/>
<path d="M6.53781 34V3.13379C6.53781 1.95502 7.49283 1 8.6716 1H33.9387C35.1174 1 36.0725 1.95502 36.0725 3.13379V34L31.5757 29.8197L28.1758 26.6655L25.6546 29.3559L21.3051 34L16.9557 29.3504L14.4399 26.66L11.04 29.8197L6.53781 34Z" fill="url(#paint3_linear_2364_4747)"/>
<path d="M15.8822 19.283C17.7582 17.883 19.2422 16.616 20.3342 15.482C21.4262 14.334 21.9722 13.263 21.9722 12.269C21.9722 11.933 21.8952 11.674 21.7412 11.492C21.6012 11.31 21.4122 11.219 21.1742 11.219C20.8942 11.219 20.6702 11.366 20.5022 11.66C20.3482 11.94 20.2922 12.374 20.3342 12.962H15.8192C15.8612 11.66 16.1412 10.589 16.6592 9.749C17.1912 8.909 17.8772 8.293 18.7172 7.901C19.5572 7.509 20.4812 7.313 21.4892 7.313C23.2812 7.313 24.5902 7.747 25.4162 8.615C26.2562 9.469 26.6762 10.568 26.6762 11.912C26.6762 13.326 26.2212 14.656 25.3112 15.902C24.4152 17.134 23.2882 18.177 21.9302 19.031H26.7392V22.79H15.8822V19.283Z" fill="white"/>
<defs>
<linearGradient id="paint0_linear_2364_4747" x1="21.5529" y1="2.93569" x2="21.5529" y2="5.72019" gradientUnits="userSpaceOnUse">
<stop stop-color="#FFC124"/>
<stop offset="1" stop-color="#FF8C00"/>
</linearGradient>
<linearGradient id="paint1_linear_2364_4747" x1="1.85172" y1="2.50141" x2="4.07448" y2="6.91646" gradientUnits="userSpaceOnUse">
<stop stop-color="#FFC124"/>
<stop offset="1" stop-color="#FF8C00"/>
</linearGradient>
<linearGradient id="paint2_linear_2364_4747" x1="38.9775" y1="2.5017" x2="41.2002" y2="6.91675" gradientUnits="userSpaceOnUse">
<stop stop-color="#FFC124"/>
<stop offset="1" stop-color="#FF8C00"/>
</linearGradient>
<linearGradient id="paint3_linear_2364_4747" x1="32.7017" y1="7.59823" x2="5.68912" y2="32.4922" gradientUnits="userSpaceOnUse">
<stop stop-color="#293E84"/>
<stop offset="1" stop-color="#841A82"/>
</linearGradient>
</defs>
</svg>
