<svg width="64" height="32" viewBox="0 0 64 32" fill="none" xmlns="http://www.w3.org/2000/svg">
<path fill-rule="evenodd" clip-rule="evenodd" d="M1.28381 13.0703C1.28381 19.2196 8.56008 18.9121 9.68739 19.3221C11.1222 19.8345 11.0197 22.3968 7.74022 22.3968C5.99802 22.3968 4.56326 22.1918 2.92354 21.6794C2.51361 21.5769 2.10367 21.3719 1.69374 21.2694V25.8814C2.92354 26.4964 7.12533 26.5988 8.86753 26.5988C13.3768 26.5988 17.4761 23.5242 16.3488 18.9121C15.2215 13.8902 8.66257 14.4026 7.74022 13.8902C6.61291 13.3777 6.61291 11.9429 7.84271 11.4304C9.48243 10.713 12.7619 11.4304 14.4016 11.9429C14.914 12.1479 15.4264 12.3528 15.8364 12.4553V8.04828C15.119 7.8433 14.709 7.63832 13.2743 7.33086C11.2246 6.9209 10.4048 6.9209 8.35512 6.9209C4.66574 6.9209 1.28381 9.38064 1.28381 13.0703Z" fill="#AFABE4" fill-opacity="0.5"/>
<path fill-rule="evenodd" clip-rule="evenodd" d="M17.7834 7.94628V26.3944H23.1125V20.8599C23.215 21.0649 23.1125 20.9624 23.215 21.1674L23.7274 22.0898C23.9324 22.4998 24.1374 22.9097 24.3423 23.4222C24.5473 23.9346 25.1622 25.7794 25.1622 26.3944H31.6186C31.5161 26.1894 31.4136 25.7794 31.3111 25.4719L30.0814 22.7047C27.5193 17.4778 28.0317 20.245 30.2863 15.838C30.6962 15.223 31.8236 12.8658 31.926 12.0459H25.8796C25.6746 13.0707 23.7274 16.4529 23.1125 16.9653V6.92139C22.0877 6.92139 18.6033 7.94628 17.7834 7.94628Z" fill="#AFABE4" fill-opacity="0.5"/>
<path fill-rule="evenodd" clip-rule="evenodd" d="M49.6558 7.84379V26.3944H54.7799V6.92139C53.9601 6.92139 50.7831 7.7413 49.6558 7.84379Z" fill="#AFABE4" fill-opacity="0.5"/>
<path fill-rule="evenodd" clip-rule="evenodd" d="M57.0342 7.84379V26.3944H62.1583V6.92139C61.5434 6.92139 57.6491 7.84379 57.0342 7.84379Z" fill="#AFABE4" fill-opacity="0.5"/>
<path fill-rule="evenodd" clip-rule="evenodd" d="M32.5406 18.1954V26.3945H37.6647V20.2451C37.6647 17.3754 38.0747 16.2481 40.9442 16.2481V11.9435C40.0218 11.9435 40.8417 11.841 39.3044 11.9435C37.7672 12.1485 36.6399 12.1485 35.0002 13.1734C33.5655 14.0958 32.5406 15.8381 32.5406 18.1954Z" fill="#AFABE4" fill-opacity="0.5"/>
<path fill-rule="evenodd" clip-rule="evenodd" d="M42.4819 26.3949H47.606V12.1489H42.4819V26.3949Z" fill="#AFABE4" fill-opacity="0.5"/>
<path fill-rule="evenodd" clip-rule="evenodd" d="M42.584 8.15083C42.584 8.97075 42.6865 9.48319 43.3014 10.0981C45.556 12.3529 49.1429 8.97075 46.7858 6.511C45.2485 4.87117 42.584 6.30602 42.584 8.15083Z" fill="#AFABE4" fill-opacity="0.5"/>
</svg>
