<svg width="86" height="32" viewBox="0 0 86 32" fill="none" xmlns="http://www.w3.org/2000/svg">
<path d="M84.0594 10.6854C83.6883 9.60594 82.988 8.66985 82.057 8.00872C81.126 7.3476 80.0112 6.99467 78.8691 6.99956H78.8054C78.0608 7.00855 77.3257 7.16707 76.6437 7.46568C75.9617 7.7643 75.3467 8.19692 74.8353 8.73783C74.3225 8.20263 73.706 7.77736 73.0235 7.4879C72.3409 7.19845 71.6066 7.05088 70.8652 7.05417C69.5408 7.05543 68.2635 7.54472 67.2775 8.4284V7.96425C67.2637 7.75818 67.1726 7.56492 67.0223 7.42316C66.872 7.2814 66.6737 7.20162 66.4671 7.19978H62.7246C62.5096 7.20449 62.3048 7.29258 62.1536 7.44543C62.0023 7.59828 61.9165 7.80391 61.9142 8.01886V28.0408C61.9165 28.2557 62.0023 28.4614 62.1536 28.6142C62.3048 28.767 62.5096 28.8551 62.7246 28.8599H66.4215C66.6175 28.8554 66.8056 28.7816 66.9523 28.6516C67.099 28.5217 67.1949 28.3439 67.2228 28.15V13.7342C67.2138 13.6892 67.2138 13.6427 67.2228 13.5977C67.2447 13.2735 67.3846 12.9685 67.6161 12.7405C67.8477 12.5124 68.1548 12.377 68.4794 12.36H69.1624C69.4464 12.378 69.7188 12.4793 69.9455 12.6512C70.1065 12.7807 70.2349 12.9461 70.3203 13.1342C70.4057 13.3223 70.4458 13.5278 70.4372 13.7342V28.0226C70.436 28.1289 70.4558 28.2345 70.4954 28.3332C70.535 28.432 70.5937 28.5219 70.6681 28.598C70.7425 28.6741 70.8312 28.7347 70.929 28.7765C71.0269 28.8183 71.1321 28.8405 71.2385 28.8417H74.9719C75.1813 28.8442 75.3834 28.7646 75.5349 28.62C75.6863 28.4754 75.7751 28.2773 75.7823 28.0681V13.716C75.7697 13.4857 75.8177 13.2561 75.9215 13.0501C76.0254 12.8441 76.1814 12.6689 76.3741 12.542C76.5751 12.4088 76.8074 12.3304 77.048 12.3145H77.7309C78.0811 12.331 78.4109 12.4842 78.6493 12.7412C78.8877 12.9982 79.0156 13.3384 79.0057 13.6887V27.9316C79.0057 28.1457 79.0895 28.3513 79.2393 28.5044C79.389 28.6575 79.5928 28.7459 79.807 28.7506H83.5586C83.6642 28.7519 83.7689 28.732 83.8667 28.6922C83.9644 28.6523 84.0533 28.5934 84.1279 28.5188C84.2026 28.4442 84.2616 28.3554 84.3014 28.2577C84.3412 28.16 84.3611 28.0553 84.3599 27.9498V12.633C84.3928 11.9903 84.3 11.3473 84.0867 10.74" fill="#AFABE4" fill-opacity="0.2"/>
<path d="M59.1097 7.20873H56.9971V3.7959C56.9996 3.59952 56.9245 3.41009 56.7881 3.26868C56.6518 3.12728 56.4651 3.0453 56.2687 3.04053H56.1139C53.7737 3.67759 54.2108 6.9175 49.9766 7.19052H49.3847C49.2041 7.23334 49.043 7.33556 48.9274 7.48079C48.8119 7.62602 48.7484 7.80584 48.7473 7.9914V11.7137C48.7473 11.9309 48.8337 12.1392 48.9873 12.2928C49.141 12.4464 49.3495 12.5327 49.5668 12.5327H51.7886V28.1498C51.7886 28.3646 51.874 28.5707 52.026 28.7226C52.178 28.8745 52.3841 28.9598 52.5991 28.9598H56.2414C56.3474 28.9598 56.4523 28.9388 56.5501 28.898C56.6479 28.8572 56.7367 28.7974 56.8112 28.722C56.8857 28.6467 56.9446 28.5573 56.9843 28.4591C57.024 28.3609 57.0439 28.2558 57.0427 28.1498V12.5418H59.1006C59.3156 12.5371 59.5204 12.449 59.6716 12.2962C59.8228 12.1433 59.9087 11.9377 59.911 11.7228V8.0278C59.9087 7.81285 59.8228 7.60722 59.6716 7.45437C59.5204 7.30153 59.3156 7.21344 59.1006 7.20873" fill="#AFABE4" fill-opacity="0.2"/>
<path d="M45.8425 7.20832H42.2002C41.9852 7.21303 41.7804 7.30112 41.6292 7.45397C41.478 7.60682 41.3921 7.81245 41.3898 8.0274V15.6266C41.3768 15.8493 41.2824 16.0594 41.1246 16.2171C40.9669 16.3748 40.7566 16.4691 40.5339 16.4821H38.9859C38.7444 16.4821 38.5128 16.3862 38.342 16.2155C38.1712 16.0449 38.0753 15.8134 38.0753 15.572V8.0183C38.0707 7.80252 37.9828 7.59687 37.8301 7.44426C37.6774 7.29165 37.4717 7.20386 37.2558 7.19922H33.5588C33.3446 7.19917 33.1389 7.28296 32.9857 7.43265C32.8325 7.58234 32.7441 7.78603 32.7393 8.0001V16.3365C32.7075 17.0219 32.8111 17.7069 33.0442 18.3524C33.2773 18.9978 33.6354 19.591 34.0979 20.0981C34.5605 20.6051 35.1184 21.0162 35.7399 21.3077C36.3615 21.5992 37.0343 21.7655 37.7202 21.797H40.634C40.8446 21.8188 41.0397 21.9179 41.1815 22.075C41.3233 22.2322 41.4018 22.4363 41.4018 22.6479C41.4018 22.8596 41.3233 23.0637 41.1815 23.2209C41.0397 23.378 40.8446 23.4771 40.634 23.4989H35.1706C34.9563 23.4988 34.7506 23.5826 34.5974 23.7323C34.4442 23.882 34.3558 24.0857 34.351 24.2998V27.9401C34.351 28.1573 34.4374 28.3657 34.5911 28.5193C34.7448 28.6729 34.9532 28.7592 35.1706 28.7592H41.1895C41.8765 28.7897 42.5628 28.6847 43.2091 28.4502C43.8555 28.2156 44.4494 27.8561 44.9567 27.3921C45.4641 26.9281 45.875 26.3688 46.166 25.7461C46.4571 25.1234 46.6225 24.4494 46.6529 23.7628V8.0274C46.6529 7.81016 46.5666 7.60183 46.4129 7.44822C46.2592 7.29461 46.0508 7.20832 45.8334 7.20832" fill="#AFABE4" fill-opacity="0.5"/>
<path d="M10.1844 13.9613V16.2365C10.1844 16.4779 10.0885 16.7094 9.9177 16.8801C9.74693 17.0507 9.51532 17.1466 9.27382 17.1466H6.96095V12.5962H9.30114C9.52815 12.5962 9.74586 12.6863 9.90638 12.8468C10.0669 13.0072 10.1571 13.2248 10.1571 13.4517L10.1844 13.9613ZM10.5031 7.20848H2.42629C2.21609 7.21319 2.01595 7.29936 1.86813 7.4488C1.72032 7.59823 1.63639 7.79923 1.63408 8.00936V28.0313C1.62651 28.2368 1.69925 28.4372 1.83691 28.5901C1.97457 28.743 2.16635 28.8363 2.37165 28.8503H6.15965C6.37472 28.848 6.58046 28.7622 6.73339 28.6111C6.88632 28.4599 6.97446 28.2553 6.97917 28.0404V22.4342H10.4758C11.7315 22.5063 12.9645 22.077 13.9036 21.2408C14.8427 20.4046 15.4112 19.2298 15.484 17.9748C15.4931 17.7959 15.4931 17.6167 15.484 17.4379V12.2231C15.5536 10.9662 15.1223 9.73294 14.2844 8.79315C13.4465 7.85336 12.2702 7.28357 11.013 7.20848C10.8341 7.19939 10.6547 7.19939 10.4758 7.20848" fill="#AFABE4" fill-opacity="0.5"/>
<path d="M25.4547 22.6163V23.3262C25.464 23.362 25.464 23.3996 25.4547 23.4354C25.3877 23.5988 25.2745 23.7391 25.1289 23.8393C24.9834 23.9395 24.8119 23.9952 24.6352 23.9997H23.0508C22.8299 24.0199 22.61 23.9518 22.4393 23.8102C22.2686 23.6686 22.161 23.465 22.1402 23.2443V23.1897V20.6232V20.0499C22.1422 19.9354 22.1679 19.8226 22.2157 19.7186C22.2634 19.6145 22.3323 19.5215 22.4179 19.4454C22.5034 19.3693 22.6038 19.3117 22.7128 19.2763C22.8217 19.241 22.9368 19.2286 23.0508 19.2399H24.6261C24.8503 19.2248 25.0714 19.2984 25.2418 19.4448C25.4122 19.5913 25.5181 19.7988 25.5367 20.0226L25.4547 22.6163ZM24.8629 7.23587H19.7545C19.5474 7.22839 19.3456 7.30234 19.1924 7.44185C19.0392 7.58136 18.9468 7.77533 18.935 7.98214V11.4405C18.9408 11.5533 18.969 11.6639 19.0182 11.7656C19.0674 11.8673 19.1364 11.9582 19.2213 12.0328C19.3062 12.1075 19.4051 12.1644 19.5124 12.2002C19.6196 12.236 19.7329 12.25 19.8456 12.2413H24.7445C24.933 12.2783 25.105 12.3739 25.2358 12.5145C25.3667 12.6551 25.4497 12.8334 25.473 13.024V13.47C25.4586 13.6589 25.3805 13.8374 25.2515 13.9763C25.1225 14.1151 24.9502 14.2061 24.7627 14.2344H22.3315C19.1171 14.2344 16.868 16.3549 16.868 19.3491V23.6265C16.7959 24.9057 17.235 26.1611 18.0888 27.1168C18.9425 28.0725 20.1411 28.6502 21.4209 28.723H28.6509C29.2018 28.7483 29.7409 28.5581 30.154 28.1929C30.567 27.8276 30.8215 27.316 30.8636 26.7663V12.7601C30.8636 9.36547 29.1153 7.23587 24.9266 7.23587" fill="#AFABE4" fill-opacity="0.5"/>
</svg>
