<svg width="54" height="32" viewBox="0 0 54 32" fill="none" xmlns="http://www.w3.org/2000/svg">
<path fill-rule="evenodd" clip-rule="evenodd" d="M23.409 16.0778H26.0647C26.1428 15.2966 25.9866 14.6717 25.2055 14.5155C24.112 14.3593 23.5652 15.0623 23.409 16.0778ZM34.1099 14.6717H34.0318C33.1726 14.5936 32.2353 14.2812 31.4542 14.7498C30.9855 15.0623 31.0637 15.4529 31.4542 15.8434C32.2353 16.3121 32.9383 16.1559 33.6413 16.937C34.7348 18.4993 33.7194 20.2959 32.0791 20.8427C30.9074 21.077 29.0328 20.9989 27.8612 20.6084L28.1736 18.968C29.189 19.2023 29.8139 19.3585 30.8293 19.2804C31.8447 19.1242 32.0791 18.1868 30.9855 17.7182C30.1264 17.4057 29.5015 17.1714 29.0328 16.4683C28.6423 15.6091 28.7985 14.3593 29.3453 13.6562C30.4388 12.5627 32.9383 12.7189 34.3442 12.9532H34.4223H34.5005L34.1099 14.6717ZM37.5467 0.220703C46.2949 0.220703 53.3247 7.25093 53.3247 15.9997C53.3247 24.7484 46.2949 31.7786 37.5467 31.7786C30.2826 31.7786 24.1901 26.9356 22.3155 20.2178C23.7214 21.077 25.9085 21.3114 27.3925 20.5302L27.705 18.7336C26.299 19.5148 23.0184 19.671 23.0965 17.64V17.4838H27.9393C28.408 14.8279 28.1736 13.0313 25.2055 12.797C24.1901 12.797 23.3309 12.9532 22.4717 13.5781L22.3155 13.7344L22.1592 13.8906L22.003 14.0468C22.003 14.1249 21.9249 14.203 21.8468 14.2812C22.706 6.39168 29.4234 0.220703 37.5467 0.220703ZM38.484 20.9208H40.593L41.2959 16.7027C41.374 16.3902 41.4522 16.0778 41.6084 15.7653C41.9989 15.1404 42.8581 14.9061 43.5611 14.9842H43.6392V14.9061L43.7173 14.7498V14.5936L43.7954 14.3593C43.8735 14.0468 43.9516 13.7344 44.1079 13.5L44.186 13.3438L44.2641 13.1876V13.1094L44.3422 13.0313L44.4203 12.9532H44.3422V12.8751C43.2487 12.7189 42.4676 13.3438 41.8427 14.203L41.9989 12.9532H39.89L38.484 20.9208ZM50.2004 13.6562C51.7625 14.9061 51.9188 17.2495 51.0596 18.968C49.6536 21.7801 44.9671 21.8582 43.6392 18.968C42.8581 16.8589 43.5611 14.1249 45.7481 13.1876C47.1541 12.6408 48.9506 12.7189 50.2004 13.6562ZM45.9825 17.9525C46.373 19.4367 48.0133 19.2023 48.7163 17.9525C48.9506 17.2495 49.1068 16.4683 49.0287 15.6872C48.6382 14.1249 46.9979 14.4374 46.2949 15.6872C45.9825 16.3902 45.8263 17.1714 45.9825 17.9525ZM35.8283 11.1566H37.9372L37.5467 12.9532H38.8746L38.5621 14.6717L37.2343 14.5936L36.5313 18.7336C36.5313 19.1242 36.6094 19.2023 36.9218 19.2804C37.3124 19.3585 37.781 19.3585 38.0935 19.2023H38.1716L37.9372 20.6084C37.3124 20.9989 36.2189 20.9989 35.5159 20.9208C34.5005 20.6865 34.2661 20.2959 34.4223 19.2804L35.8283 11.1566ZM50.7471 20.5302H51.372V20.6084H51.1377V21.1551H50.9814V20.6084H50.7471V20.5302ZM51.4501 20.5302H51.6063L51.8406 20.9989L52.075 20.5302H52.2312V21.1551H52.075V20.6865L51.9188 21.1551H51.7625L51.6063 20.6865V21.1551H51.4501V20.5302Z" fill="#AFABE4" fill-opacity="0.5"/>
<path fill-rule="evenodd" clip-rule="evenodd" d="M16.5355 0.221191C21.1439 0.221191 25.2836 2.17403 28.1736 5.29858H25.8304L25.1274 6.23594H28.9547C29.189 6.54839 29.4234 6.86085 29.6577 7.1733H24.4244L23.7995 8.11067H30.2044C30.3607 8.42312 30.595 8.73557 30.7512 9.12614H23.3309L22.8622 9.98539H31.1417C31.298 10.2978 31.3761 10.6103 31.5323 11.0009H22.5498L22.3155 11.8601H31.7666C31.8447 12.1726 31.9228 12.485 32.0009 12.7975C31.7666 12.7975 31.5323 12.7975 31.2198 12.8756H25.5179C25.4398 12.8756 25.3617 12.7975 25.2055 12.7975C24.9712 12.7975 24.815 12.7975 24.5806 12.8756H22.0031L21.8468 13.7348H22.3155L22.1593 13.8911L22.0031 14.0473C20.8314 15.4533 20.4409 17.953 21.5344 19.5153C21.7687 19.8277 22.0812 20.062 22.3936 20.2964L22.6279 20.9213H24.4244C24.9712 20.9994 25.5179 20.9994 26.0647 20.9213H29.7358C30.1263 20.9994 30.595 20.9994 30.9855 20.9213H31.5323C31.3761 21.3119 31.298 21.7024 31.1417 22.0149H22.9404L23.409 22.8741H30.7512C30.5169 23.2647 30.3607 23.6553 30.1263 23.9677H23.9558L24.5025 24.9051H29.5796C29.3452 25.2175 29.1109 25.6081 28.7985 25.9206H25.2055L25.9085 26.7798H28.0955C25.2055 29.8262 21.0658 31.7791 16.5355 31.7791C7.78732 31.7791 0.757568 24.7489 0.757568 16.0001C0.757568 7.25142 7.78732 0.221191 16.5355 0.221191ZM27.5488 13.7348H29.3452C29.1109 13.9692 28.9547 14.3598 28.8766 14.6722H28.0174C27.9393 14.2816 27.7831 13.9692 27.5488 13.7348ZM32.2353 14.516C32.2353 14.5941 32.2353 14.5941 32.2353 14.6722H31.5323C31.7666 14.5941 32.0009 14.516 32.2353 14.516ZM25.596 14.6722H24.1901C24.4244 14.516 24.815 14.4379 25.2055 14.516C25.3617 14.516 25.5179 14.5941 25.596 14.6722ZM23.4871 15.5315H26.0647C26.0647 15.6877 26.0647 15.922 26.0647 16.0783H23.409C23.409 15.922 23.4871 15.6877 23.4871 15.5315ZM28.0955 15.5315H28.7985C28.7985 15.8439 28.8766 16.1564 29.0328 16.4688H28.0955C28.0955 16.1564 28.0955 15.8439 28.0955 15.5315ZM31.2198 15.5315H32.3134C32.3134 15.6877 32.3134 15.8439 32.3134 16.0001C32.3134 16.0783 32.3134 16.1564 32.3134 16.1564C32.079 16.0783 31.7666 16.0001 31.4542 15.8439C31.3761 15.7658 31.298 15.6877 31.2198 15.5315ZM27.9393 17.3281H30.1263C30.3607 17.4843 30.6731 17.5624 30.9855 17.7186C31.298 17.8749 31.5323 18.0311 31.6104 18.2654H23.1747C23.0966 18.0311 23.0966 17.8749 23.0966 17.6405V17.4843H27.9393C27.9393 17.4843 27.9393 17.4062 27.9393 17.3281ZM24.2682 19.1247H26.5333C25.8304 19.2809 24.8931 19.359 24.2682 19.1247ZM27.6269 19.1247H28.0955L27.9393 20.062H27.4706L27.6269 19.1247ZM28.8766 19.1247H31.3761C31.2198 19.2028 31.0636 19.2809 30.8293 19.2809C30.1263 19.359 29.5796 19.2809 28.8766 19.1247ZM20.2066 19.2809L19.8941 20.9213H18.0195L18.0976 20.7651V20.6088V20.5307V20.3745L18.1757 20.2964V20.1402V20.062L18.0976 20.2183C17.0822 21.1556 15.3638 21.39 14.1922 20.5307C12.8644 19.2809 13.4892 17.3281 14.8952 16.3907L15.1295 16.3126C16.223 15.8439 17.4728 15.922 18.6444 15.922L18.7225 15.8439C18.8787 15.1409 18.4882 14.6722 17.7852 14.5941C17.0822 14.5941 15.2076 14.6722 14.6609 14.9847L15.2076 13.2662C16.1449 12.7975 17.8633 12.7975 18.9568 12.9537C20.2066 13.2662 21.222 13.8911 20.9876 15.3752L20.2066 19.2809ZM18.4101 17.3281C18.4101 17.25 18.4101 17.25 18.2539 17.25C17.629 17.1718 16.7698 17.3281 16.223 17.7186C15.6763 18.1873 15.5201 19.1247 16.3011 19.2809C17.0041 19.359 17.7071 19.2028 18.0976 18.5779C18.332 18.1873 18.332 17.7968 18.4101 17.3281ZM4.50677 20.9213H2.47595L4.19434 11.1571H7.78732L8.09976 17.0156L10.5211 11.1571H14.1922L12.4738 20.9213H10.443L11.6927 13.6567H11.6146L8.64652 20.9213H6.30327C6.14705 18.4998 6.06894 16.0783 5.91272 13.6567H5.83461L4.50677 20.9213Z" fill="#AFABE4" fill-opacity="0.5"/>
</svg>
