<svg width="152" height="32" viewBox="0 0 152 32" fill="none" xmlns="http://www.w3.org/2000/svg">
<g clip-path="url(#clip0_2363_2723)">
<path d="M15.4283 7.69385V22.863H11.9274L5.59137 15.703V22.863H1.10828V7.69385H4.60912L10.9236 14.987V7.69385H15.4283Z" fill="#5C587C"/>
<path d="M22.1457 11.4645V13.4938H28.3918V17.0918H22.1457V19.0779H29.4388V22.863H17.659V7.69385H29.4388V11.4645H22.1457Z" fill="#5C587C"/>
<path d="M43.8271 11.5977H39.3225V22.863H34.8142V11.5977H30.3095V7.69385H43.8271V11.5977Z" fill="#5C587C"/>
<path d="M57.9816 15.1237C58.7837 15.2872 59.498 15.7391 59.9893 16.3938C60.4669 17.0303 60.72 17.8072 60.7089 18.6029C60.7295 19.1966 60.6099 19.7868 60.3599 20.3256C60.1098 20.8645 59.7364 21.3368 59.2697 21.7044C58.3103 22.4792 56.9754 22.8654 55.2652 22.863H47.051V7.69385H54.7183C56.3973 7.69385 57.7034 8.06204 58.6365 8.79843C59.0928 9.14058 59.4599 9.58772 59.7067 10.1019C59.9535 10.6162 60.0727 11.1823 60.0541 11.7524C60.0498 12.4672 59.8575 13.1683 59.4964 13.7852C59.1699 14.3998 58.6318 14.8753 57.9816 15.1237ZM51.5341 11.1947V13.7385H53.9195C54.386 13.7657 54.8486 13.6393 55.2364 13.3787C55.3869 13.2689 55.5082 13.124 55.5897 12.9565C55.6712 12.789 55.7105 12.6041 55.7041 12.418C55.7041 11.6025 55.1045 11.1935 53.9051 11.1911L51.5341 11.1947ZM51.5341 19.3153H54.434C55.6957 19.3153 56.3278 18.8692 56.3302 17.9769C56.3302 17.1901 55.7053 16.7968 54.4556 16.7968H51.5341V19.3153Z" fill="#2B273E"/>
<path d="M72.1469 20.7007H66.3218L65.541 22.8595H60.7449L67.0378 7.604H71.4309L77.7238 22.8631H72.9492L72.1469 20.7007ZM70.8048 17.0415L69.2217 12.7239L67.6602 17.0415H70.8048Z" fill="#2B273E"/>
<path d="M93.2923 7.69385V22.863H89.7914L83.4554 15.703V22.863H78.9723V7.69385H82.4731L88.7876 14.987V7.69385H93.2923Z" fill="#2B273E"/>
<path d="M101.902 17.8869L100.006 20.0961V22.863H95.5231V7.69385H100.006V13.8356L105.295 7.69385H110.581L104.961 14.2962L110.937 22.863H105.605L101.902 17.8869Z" fill="#2B273E"/>
<path d="M116.56 7.69385V22.863H112.074V7.69385H116.56Z" fill="#2B273E"/>
<path d="M133.111 7.69385V22.863H129.61L123.274 15.703V22.863H118.791V7.69385H122.292L128.603 14.987V7.69385H133.111Z" fill="#2B273E"/>
<path d="M151.108 14.2313V22.8665H147.849L147.737 21.4596C147.139 22.0339 146.432 22.4828 145.658 22.78C144.883 23.0772 144.058 23.2167 143.229 23.1903C140.789 23.1903 138.801 22.4539 137.263 20.9811C136.504 20.257 135.906 19.3809 135.508 18.4101C135.11 17.4393 134.921 16.3954 134.953 15.3467C134.919 14.2828 135.107 13.2234 135.505 12.236C135.903 11.2487 136.501 10.3549 137.263 9.61147C138.803 8.10992 140.779 7.35914 143.189 7.35914C145.095 7.29981 146.966 7.8771 148.507 8.99982C149.194 9.4873 149.768 10.1173 150.19 10.8469C150.612 11.5765 150.871 12.3885 150.95 13.2274H146.273C145.793 11.9945 144.789 11.3769 143.261 11.3745C142.757 11.3506 142.254 11.4345 141.785 11.6206C141.316 11.8068 140.892 12.0909 140.541 12.4539C139.852 13.1971 139.483 14.1823 139.516 15.1955C139.495 15.7094 139.581 16.222 139.767 16.7016C139.952 17.1812 140.234 17.6176 140.595 17.984C140.98 18.3517 141.435 18.6371 141.934 18.8227C142.432 19.0083 142.964 19.0902 143.495 19.0634C144.154 19.0894 144.81 18.9546 145.405 18.6707C146.001 18.3867 146.518 17.9621 146.913 17.4335L144.909 17.3903V14.2313H151.108Z" fill="#2B273E"/>
</g>
<defs>
<clipPath id="clip0_2363_2723">
<rect width="150" height="15.8383" fill="white" transform="translate(1.10828 7.35938)"/>
</clipPath>
</defs>
</svg>
