<svg width="42" height="32" viewBox="0 0 42 32" fill="none" xmlns="http://www.w3.org/2000/svg">
<path fill-rule="evenodd" clip-rule="evenodd" d="M21.4611 3.08129C21.3017 3.2067 21.1457 3.3359 20.9932 3.46853C18.3868 5.73663 16.737 9.0754 16.737 12.8017C16.737 16.5278 18.3868 19.8665 20.9932 22.1343C21.1457 22.2673 21.3017 22.3964 21.4611 22.5219C21.6206 22.3964 21.7766 22.2673 21.9294 22.1343C24.5358 19.8665 26.1853 16.5278 26.1853 12.8017C26.1853 9.0754 24.5358 5.73663 21.9294 3.46853C21.7766 3.3359 21.6206 3.2067 21.4611 3.08129ZM29.1054 0.432129C26.5729 0.432129 24.219 1.19355 22.2582 2.49923C22.3586 2.58135 22.4603 2.66244 22.5572 2.74697C25.471 5.28205 27.1425 8.94689 27.1425 12.8017C27.1425 16.6563 25.471 20.3208 22.5575 22.8562C22.461 22.9404 22.3586 23.0215 22.2582 23.1036C24.219 24.4096 26.5729 25.171 29.1054 25.171C35.9364 25.171 41.4742 19.6332 41.4742 12.8017C41.4742 5.96994 35.9364 0.432129 29.1054 0.432129ZM20.3651 22.8562C20.4617 22.9404 20.5637 23.0215 20.664 23.1036C18.7036 24.4096 16.3494 25.171 13.8169 25.171C6.98555 25.171 1.44812 19.6332 1.44812 12.8017C1.44812 5.97028 6.98555 0.432129 13.8169 0.432129C16.3494 0.432129 18.7036 1.19355 20.664 2.49923C20.5637 2.58135 20.4624 2.66244 20.3651 2.74662C17.4513 5.28205 15.7801 8.94689 15.7801 12.8017C15.7801 16.6563 17.4513 20.3211 20.3651 22.8562ZM41.087 20.4668V19.9864H40.9612L40.8169 20.3166L40.673 19.9864H40.5475V20.4668H40.6362V20.1043L40.7716 20.4166H40.8629L40.9983 20.1036V20.4668H41.087ZM40.293 20.4668V20.0682H40.4534V19.9871H40.0442V20.0682H40.205V20.4668H40.293ZM40.6795 31.1459V31.2266H40.754C40.7709 31.2266 40.7846 31.2232 40.7946 31.2167C40.8045 31.2098 40.8097 31.1995 40.8097 31.1857C40.8097 31.1723 40.8045 31.1624 40.7946 31.1555C40.7846 31.1493 40.7709 31.1459 40.754 31.1459H40.6795ZM40.7547 31.0889C40.7935 31.0889 40.8234 31.0974 40.8447 31.115C40.8657 31.1325 40.876 31.1559 40.876 31.1857C40.876 31.2108 40.8678 31.2314 40.8509 31.2479C40.8341 31.2637 40.8104 31.2741 40.7795 31.2778L40.8784 31.3923H40.8011L40.709 31.2782H40.6795V31.3923H40.6149V31.0889H40.7547ZM40.7355 31.496C40.7709 31.496 40.8032 31.4895 40.8337 31.4764C40.8643 31.463 40.8908 31.4448 40.9138 31.4215C40.9368 31.3988 40.9547 31.372 40.9677 31.3411C40.9808 31.3098 40.9877 31.2771 40.9877 31.2418C40.9877 31.2064 40.9808 31.1737 40.9677 31.1425C40.9547 31.1115 40.9368 31.0847 40.9138 31.0617C40.8908 31.0387 40.8643 31.0205 40.8337 31.0074C40.8032 30.9944 40.7709 30.9882 40.7355 30.9882C40.6998 30.9882 40.6661 30.9944 40.6348 31.0074C40.6035 31.0205 40.5768 31.0387 40.5537 31.0617C40.5307 31.0847 40.5128 31.1115 40.4998 31.1425C40.4867 31.1737 40.4802 31.2064 40.4802 31.2418C40.4802 31.2771 40.4867 31.3098 40.4998 31.3411C40.5128 31.372 40.5307 31.3988 40.5537 31.4215C40.5768 31.4448 40.6035 31.463 40.6348 31.4764C40.6661 31.4895 40.6998 31.496 40.7355 31.496ZM40.7355 30.9153C40.7812 30.9153 40.8245 30.9236 40.8647 30.9408C40.9049 30.9579 40.9403 30.981 40.9705 31.0109C41.0004 31.0404 41.0241 31.0751 41.0416 31.115C41.0588 31.1545 41.0674 31.1967 41.0674 31.2418C41.0674 31.2864 41.0588 31.3287 41.0416 31.3682C41.0241 31.4074 41.0004 31.4421 40.9705 31.4716C40.9403 31.5015 40.9049 31.5245 40.8647 31.5421C40.8245 31.5596 40.7812 31.5682 40.7355 31.5682C40.6884 31.5682 40.6444 31.5596 40.6035 31.5421C40.563 31.5245 40.5276 31.5015 40.4981 31.4716C40.4678 31.4421 40.4441 31.4074 40.4269 31.3682C40.4098 31.3287 40.4008 31.2864 40.4008 31.2418C40.4008 31.1967 40.4098 31.1545 40.4269 31.115C40.4441 31.0751 40.4678 31.0404 40.4981 31.0109C40.5276 30.981 40.563 30.9579 40.6035 30.9408C40.6444 30.9236 40.6884 30.9153 40.7355 30.9153ZM10.097 29.7488C10.097 29.1719 10.4746 28.6977 11.093 28.6977C11.684 28.6977 12.0825 29.1513 12.0825 29.7488C12.0825 30.347 11.684 30.8002 11.093 30.8002C10.4746 30.8002 10.097 30.3261 10.097 29.7488ZM12.7559 29.7488V28.1067H12.0413V28.5053C11.8145 28.2102 11.471 28.0246 11.0037 28.0246C10.0832 28.0246 9.36173 28.7458 9.36173 29.7488C9.36173 30.7521 10.0832 31.4737 11.0037 31.4737C11.471 31.4737 11.8145 31.2881 12.0413 30.9926V31.3916H12.7559V29.7488ZM36.8854 29.7488C36.8854 29.1719 37.2633 28.6977 37.8814 28.6977C38.4723 28.6977 38.8709 29.1513 38.8709 29.7488C38.8709 30.347 38.4723 30.8002 37.8814 30.8002C37.2633 30.8002 36.8854 30.3261 36.8854 29.7488ZM39.5443 29.7488V26.7877H38.8297V28.5053C38.6029 28.2102 38.2593 28.0246 37.7924 28.0246C36.8716 28.0246 36.1501 28.7458 36.1501 29.7488C36.1501 30.7521 36.8716 31.4737 37.7924 31.4737C38.2593 31.4737 38.6029 31.2881 38.8297 30.9926V31.3916H39.5443V29.7488ZM21.6188 28.6634C22.0792 28.6634 22.3747 28.952 22.45 29.4602H20.7462C20.8217 28.9864 21.1104 28.6634 21.6188 28.6634ZM21.6326 28.0246C20.6706 28.0246 19.9975 28.7252 19.9975 29.7488C19.9975 30.7934 20.6981 31.4737 21.6807 31.4737C22.1754 31.4737 22.629 31.35 23.0272 31.0133L22.6771 30.4841C22.4022 30.7044 22.0518 30.8277 21.7219 30.8277C21.2615 30.8277 20.8424 30.6147 20.7393 30.0237H23.1787C23.1852 29.9344 23.1924 29.8454 23.1924 29.7488C23.1852 28.7252 22.553 28.0246 21.6326 28.0246ZM30.255 29.7488C30.255 29.1719 30.6333 28.6977 31.2517 28.6977C31.8423 28.6977 32.2409 29.1513 32.2409 29.7488C32.2409 30.347 31.8423 30.8002 31.2517 30.8002C30.6333 30.8002 30.255 30.3261 30.255 29.7488ZM32.9139 29.7488V28.1067H32.1993V28.5053C31.9729 28.2102 31.6293 28.0246 31.162 28.0246C30.2413 28.0246 29.5201 28.7458 29.5201 29.7488C29.5201 30.7521 30.2413 31.4737 31.162 31.4737C31.6293 31.4737 31.9729 31.2881 32.1993 30.9926V31.3916H32.9139V29.7488ZM26.2221 29.7488C26.2221 30.7456 26.9161 31.4737 27.9743 31.4737C28.4687 31.4737 28.7986 31.3641 29.1559 31.082L28.8123 30.5051C28.5447 30.6971 28.2626 30.8002 27.9537 30.8002C27.3834 30.7934 26.9642 30.381 26.9642 29.7488C26.9642 29.1169 27.3834 28.7046 27.9537 28.6977C28.2626 28.6977 28.5447 28.8008 28.8123 28.9932L29.1559 28.416C28.7986 28.1342 28.4687 28.0246 27.9743 28.0246C26.9161 28.0246 26.2221 28.7527 26.2221 29.7488ZM35.4289 28.0246C35.0166 28.0246 34.7483 28.2167 34.5631 28.5053V28.1067H33.8554V31.3916H34.57V29.5499C34.57 29.007 34.8033 28.7046 35.2709 28.7046C35.4152 28.7046 35.566 28.7252 35.7175 28.7871L35.9371 28.114C35.779 28.0521 35.5732 28.0246 35.4289 28.0246ZM16.2872 28.3679C15.9436 28.1414 15.4698 28.0246 14.9476 28.0246C14.1162 28.0246 13.5805 28.4229 13.5805 29.0757C13.5805 29.6117 13.9787 29.9416 14.714 30.0447L15.0507 30.0924C15.442 30.1474 15.6276 30.2505 15.6276 30.436C15.6276 30.6906 15.3664 30.8346 14.8789 30.8346C14.3841 30.8346 14.0268 30.6769 13.7863 30.491L13.4496 31.048C13.8413 31.3359 14.336 31.4737 14.872 31.4737C15.82 31.4737 16.3697 31.027 16.3697 30.402C16.3697 29.8247 15.9368 29.5224 15.2225 29.419L14.8858 29.3712C14.5765 29.33 14.3292 29.2681 14.3292 29.0482C14.3292 28.8077 14.5628 28.6634 14.9545 28.6634C15.3733 28.6634 15.7787 28.8214 15.9783 28.9451L16.2872 28.3679ZM25.5006 28.0246C25.0886 28.0246 24.8206 28.2167 24.6351 28.5053V28.1067H23.9273V31.3916H24.6416V29.5499C24.6416 29.007 24.8756 28.7046 25.3425 28.7046C25.4868 28.7046 25.6384 28.7252 25.7892 28.7871L26.0091 28.114C25.851 28.0521 25.6449 28.0246 25.5006 28.0246ZM19.4066 28.1067H18.2387V27.1106H17.5172V28.1067H16.8507V28.7596H17.5172V30.2577C17.5172 31.0205 17.8124 31.4737 18.6576 31.4737C18.9668 31.4737 19.3241 31.3775 19.5509 31.2198L19.3447 30.6078C19.1317 30.7319 18.8981 30.7934 18.7125 30.7934C18.3552 30.7934 18.2387 30.5738 18.2387 30.2439V28.7596H19.4066V28.1067ZM8.72955 31.3916V29.33C8.72955 28.5534 8.2348 28.0312 7.43804 28.0246C7.01888 28.0174 6.58597 28.148 6.28363 28.6084C6.05686 28.2442 5.69954 28.0246 5.19827 28.0246C4.84782 28.0246 4.50424 28.1277 4.23625 28.5125V28.1067H3.52161V31.3916H4.24312V29.5705C4.24312 29.0001 4.55921 28.6977 5.04709 28.6977C5.52088 28.6977 5.76139 29.007 5.76139 29.5633V31.3916H6.4829V29.5705C6.4829 29.0001 6.81273 28.6977 7.28687 28.6977C7.77475 28.6977 8.00804 29.007 8.00804 29.5633V31.3916H8.72955Z" fill="#AFABE4" fill-opacity="0.5"/>
</svg>
