<svg width="137" height="32" viewBox="0 0 137 32" fill="none" xmlns="http://www.w3.org/2000/svg">
<path d="M120.037 14.429C119.361 14.8797 118.235 15.105 116.883 15.105H116.207H115.531L116.432 9.24637H117.108H117.559C118.685 9.24637 119.586 9.4717 120.262 9.69703C120.713 10.1477 121.164 10.5984 121.164 11.9503C121.164 13.3023 120.713 13.9783 120.037 14.429ZM34.8677 21.8649H23.8272L24.5031 17.809H31.4879L32.1639 13.5277H25.4044L26.0803 9.69703H37.1208L34.8677 21.8649ZM126.121 6.31706C124.318 5.19041 121.84 4.73975 118.685 4.73975H110.348L107.194 21.8649H96.1536L96.8295 17.809H103.364L104.265 13.5277H97.5055L98.4067 9.69703H105.166L106.067 4.73975H92.0979L89.1688 20.9636H83.9865L87.1409 4.73975H79.7055L76.7764 20.9636H71.8195L74.7486 4.73975H67.5385L64.384 21.8649H53.3436L54.0195 17.809H60.5537L61.4549 13.5277H54.6955L55.3714 9.69703H62.3562L63.2575 4.73975H19.7715L17.293 18.2596L12.5614 4.73975H4.90066L0.844971 26.8222H8.05508L10.5336 12.8517L15.2652 26.8222H41.1765L44.3309 9.69703H48.3866L45.2322 26.8222H113.278L115.305 16.0063L118.46 26.8222H125.67L122.29 18.0343L123.191 17.809C124.769 17.3583 126.121 16.6823 127.022 15.5556C127.923 14.429 128.374 12.8517 128.374 11.049C128.374 9.02104 127.698 7.44372 126.121 6.31706Z" fill="#AFABE4" fill-opacity="0.5"/>
<path d="M131.979 24.1188H132.88C133.105 24.1188 133.33 24.1188 133.556 24.1188C133.556 23.8935 133.556 23.8935 133.781 23.8935C133.781 23.6682 133.781 23.6682 133.781 23.4428C133.781 23.2175 133.781 23.2175 133.556 22.9922C133.556 22.9922 133.33 22.9922 133.105 22.9922H131.979V24.1188ZM131.528 26.1468V22.7668L132.88 22.5415C133.33 22.5415 133.556 22.5415 133.781 22.5415C133.781 22.7668 134.006 22.7668 134.006 22.9922C134.232 22.9922 134.232 23.2175 134.232 23.4428C134.232 23.6682 134.232 23.8935 134.006 24.1188C134.006 24.3442 133.556 24.3442 133.33 24.5695C133.556 24.5695 133.556 24.5695 133.556 24.5695C133.781 24.7948 133.781 24.7948 134.006 25.0201L134.682 25.9215H134.006L133.556 25.2455C133.556 25.0201 133.33 25.0201 133.33 24.7948C133.105 24.7948 133.105 24.5695 133.105 24.5695C132.88 24.5695 132.88 24.5695 132.88 24.5695C132.654 24.5695 132.654 24.5695 132.429 24.5695H131.979V26.1468H131.528Z" fill="#5F5984"/>
<path d="M130.176 24.3428C130.176 23.6668 130.402 22.9908 130.852 22.5401C131.303 22.0895 131.979 21.6388 132.655 21.6388C134.232 21.6388 135.359 22.7655 135.584 24.1175V24.3428C135.584 25.6948 134.457 26.8214 132.88 27.0468C131.528 27.0468 130.176 25.9201 130.176 24.3428ZM132.655 21.1881C131.754 21.1881 131.078 21.4135 130.402 22.0895C129.726 22.7655 129.5 23.6668 129.5 24.5681C129.726 26.3708 131.078 27.7228 132.88 27.4974C134.683 27.4974 136.035 25.9201 136.035 24.1175C136.035 22.3148 134.457 20.9628 132.655 21.1881Z" fill="#5F5984"/>
</svg>
