<svg width="137" height="32" viewBox="0 0 137 32" fill="none" xmlns="http://www.w3.org/2000/svg">
<path d="M17.5121 14.1186L27.0296 4.62982C27.0557 4.60224 27.0921 4.58661 27.1302 4.58661C27.1682 4.58661 27.2046 4.60224 27.2307 4.62982L38.5732 15.9321C38.6026 15.9583 38.6194 15.9956 38.6194 16.0348C38.6194 16.0741 38.6026 16.1114 38.5732 16.1376L27.2307 27.4399C27.1749 27.4946 27.0854 27.4946 27.0296 27.4399L21.4589 21.8889C21.4039 21.8333 21.4039 21.7441 21.4589 21.6885L25.1065 18.0538C25.1623 17.9991 25.2518 17.9991 25.3076 18.0538L27.0296 19.7697C27.0854 19.8245 27.1749 19.8245 27.2307 19.7697L30.8783 16.1376C30.9333 16.082 30.9333 15.9927 30.8783 15.9372L27.2307 12.3025C27.1749 12.2477 27.0854 12.2477 27.0296 12.3025L21.3583 17.9536L11.8409 27.4399C11.7842 27.4949 11.6939 27.4949 11.6372 27.4399L0.292184 16.1376C0.237241 16.082 0.237241 15.9927 0.292184 15.9372L11.6372 4.62982C11.6638 4.60211 11.7006 4.58643 11.739 4.58643C11.7775 4.58643 11.8143 4.60211 11.8409 4.62982L17.4116 10.1858C17.4665 10.2414 17.4665 10.3306 17.4116 10.3862L13.764 14.0184C13.7082 14.0731 13.6186 14.0731 13.5629 14.0184L11.8409 12.3025C11.7842 12.2474 11.6939 12.2474 11.6372 12.3025L7.99214 15.9372C7.93719 15.9927 7.93719 16.082 7.99214 16.1376L11.6372 19.7697C11.6939 19.8248 11.7842 19.8248 11.8409 19.7697L17.5121 14.1186Z" fill="#AFABE4" fill-opacity="0.53"/>
<path d="M106.501 22.6715L107.518 18.4571C107.534 18.3939 107.591 18.3495 107.656 18.3492H110.293C110.339 18.3487 110.382 18.3702 110.41 18.4069C110.437 18.4436 110.445 18.4912 110.431 18.5349L107.581 27.7514C107.561 27.8111 107.505 27.8516 107.443 27.8518H104.886C104.827 27.8518 104.774 27.816 104.753 27.7614L103.087 23.409C102.999 23.1445 102.945 22.9397 102.876 22.6715C102.862 22.5963 102.82 22.5586 102.75 22.5586C102.697 22.5586 102.631 22.5586 102.55 22.5586C102.482 22.5588 102.424 22.6073 102.412 22.674C102.357 22.9411 102.258 23.1964 102.173 23.4542L100.503 27.7614C100.481 27.816 100.428 27.8518 100.37 27.8518H97.9837C97.9219 27.8525 97.8669 27.8128 97.8481 27.7539L94.8969 18.5474C94.8822 18.5041 94.8895 18.4564 94.9165 18.4194C94.9435 18.3825 94.9868 18.361 95.0325 18.3618H97.8908C97.9553 18.3618 98.0119 18.4049 98.0289 18.4671L99.1717 22.7317C99.232 22.95 99.2774 23.1721 99.3073 23.3965C99.3174 23.4676 99.3787 23.5201 99.4505 23.5194H99.669C99.7371 23.5207 99.7963 23.4732 99.8097 23.4065C99.8565 23.1794 99.9186 22.9556 99.9955 22.7367L101.417 18.4696C101.436 18.4108 101.491 18.3711 101.553 18.3718H104.037C104.098 18.3707 104.153 18.4093 104.172 18.4671L105.637 22.7317C105.714 22.9544 105.776 23.1824 105.82 23.4141C105.834 23.4807 105.893 23.5286 105.961 23.5295H106.212C106.282 23.5302 106.342 23.4787 106.352 23.409C106.393 23.1732 106.44 22.9224 106.501 22.6715ZM112.524 18.3593H115.183C115.262 18.3593 115.327 18.4232 115.327 18.502V27.719C115.327 27.7979 115.262 27.8618 115.183 27.8618H112.524C112.445 27.8618 112.38 27.7979 112.38 27.719V18.502C112.38 18.4232 112.445 18.3593 112.524 18.3593ZM113.92 13.1138C114.371 13.1041 114.807 13.2788 115.127 13.5975C115.446 13.9161 115.622 14.3512 115.613 14.8021C115.613 15.9987 114.761 16.6258 113.92 16.6258C113.011 16.6258 112.094 16.0564 112.094 14.8021C112.094 13.9893 112.664 13.1138 113.92 13.1138ZM122.608 21.9842C124.127 22.3404 126.212 22.8346 126.202 24.9694C126.202 26.886 124.602 28.1252 122.123 28.1252C120.214 28.1252 118.519 27.192 117.924 26.5674C117.879 26.5143 117.879 26.4373 117.924 26.3842L119.124 24.696C119.146 24.6647 119.18 24.6437 119.218 24.6381C119.256 24.6324 119.295 24.6424 119.325 24.6659C120.094 25.2202 121.467 25.722 122.339 25.722C123.163 25.722 123.251 25.3005 123.251 25.1174C123.251 24.6182 122.578 24.4501 121.648 24.2218C120.129 23.8481 118.044 23.3338 118.044 21.1388C118.044 19.734 119.009 18.0933 121.729 18.0933C123.635 18.0933 124.843 18.6779 125.559 19.2272C125.612 19.2706 125.626 19.3452 125.594 19.4053L124.647 21.199C124.628 21.2333 124.596 21.2584 124.558 21.2688C124.521 21.2792 124.48 21.2739 124.446 21.2542C123.687 20.7925 122.823 20.5333 121.935 20.5016C121.319 20.5016 121 20.8051 121 21.1087C121 21.6004 121.673 21.7609 122.608 21.9842ZM132.659 21.9842C134.179 22.3404 136.258 22.8346 136.251 24.9694C136.251 26.886 134.649 28.1252 132.17 28.1252C130.263 28.1252 128.565 27.192 127.97 26.5674C127.926 26.5143 127.926 26.4373 127.97 26.3842L129.176 24.696C129.198 24.6647 129.232 24.6437 129.27 24.6381C129.308 24.6324 129.346 24.6424 129.377 24.6659C130.148 25.2202 131.519 25.722 132.391 25.722C133.214 25.722 133.302 25.3005 133.302 25.1174C133.302 24.6182 132.632 24.4501 131.7 24.2218C130.18 23.8481 128.096 23.3338 128.096 21.1388C128.096 19.734 129.06 18.0933 131.78 18.0933C133.687 18.0933 134.895 18.6779 135.61 19.2272C135.665 19.2693 135.681 19.3448 135.648 19.4053L134.699 21.199C134.68 21.2333 134.648 21.2584 134.61 21.2688C134.572 21.2792 134.532 21.2739 134.498 21.2542C133.739 20.7925 132.874 20.5333 131.986 20.5016C131.373 20.5016 131.052 20.8051 131.052 21.1087C131.052 21.6004 131.727 21.7609 132.659 21.9842ZM50.1447 19.162C51.9706 20.0024 54.0377 20.9556 54.0377 23.7452C54.0377 26.2563 51.9003 28.08 48.9541 28.08C47.0729 28.08 44.82 27.3124 44.0087 25.8449C43.9816 25.7927 43.9885 25.7294 44.0263 25.6843L45.6513 23.7402C45.6785 23.709 45.7179 23.6911 45.7593 23.6911C45.8008 23.6911 45.8402 23.709 45.8673 23.7402C46.6916 24.624 47.8404 25.1348 49.0496 25.155C50.0442 25.155 50.6621 24.6383 50.6621 23.8054C50.6621 22.7694 49.5519 22.235 48.266 21.6154C46.4852 20.7499 44.2699 19.6813 44.2699 16.8491C44.2699 14.7394 45.9025 12.6021 49.042 12.6021C50.7751 12.6021 52.2544 13.1113 53.2415 14.0445C53.2939 14.0939 53.3015 14.1744 53.2591 14.2326L51.7345 16.3574C51.7107 16.39 51.6742 16.4111 51.634 16.4154C51.5939 16.4197 51.5537 16.4068 51.5235 16.38C50.9463 15.8117 50.1582 15.509 49.3485 15.5446C48.2986 15.5446 47.6481 16.0438 47.6481 16.8491C47.6481 18.0131 48.8034 18.5449 50.1447 19.162ZM61.2486 18.0984C64.4258 18.0984 66.5532 20.1052 66.5532 23.1155C66.5532 26.1258 64.4208 28.1327 61.2486 28.1327C58.0764 28.1327 55.944 26.1258 55.944 23.1155C55.944 20.1052 58.0764 18.0984 61.2486 18.0984ZM61.2486 25.4009C62.527 25.4009 63.3885 24.4928 63.3885 23.113C63.3885 21.786 62.4893 20.8227 61.2486 20.8227C60.1862 20.8227 59.1112 21.6079 59.1112 23.113C59.1112 24.4376 60.0103 25.4009 61.2486 25.4009ZM68.7558 16.5957C68.7558 14.0771 70.0041 12.6322 72.1842 12.6422C73.1989 12.6422 74.2212 12.9382 74.7712 13.3948C74.8186 13.4359 74.833 13.5035 74.8064 13.5603L73.9549 15.4995C73.9397 15.5353 73.9102 15.5633 73.8735 15.5766C73.8369 15.5899 73.7963 15.5874 73.7615 15.5697C73.4521 15.4272 73.1152 15.3544 72.7745 15.3565C72.2621 15.3565 71.7095 15.8055 71.7095 16.7914V18.2213C71.7109 18.2969 71.7719 18.3579 71.8477 18.3593H73.6385C73.7175 18.3593 73.7816 18.4233 73.7816 18.5023V20.9456C73.7816 21.0246 73.7175 21.0886 73.6385 21.0886H71.8477C71.8095 21.0879 71.7727 21.1028 71.7457 21.1297C71.7187 21.1567 71.7038 21.1935 71.7045 21.2316V27.7188C71.7045 27.7978 71.6404 27.8618 71.5613 27.8618H68.899C68.8608 27.8625 68.824 27.8476 68.797 27.8207C68.77 27.7937 68.7552 27.7569 68.7558 27.7188V16.5957ZM79.2947 25.4009C79.7357 25.4064 80.1682 25.2787 80.5354 25.0346C80.5715 25.0113 80.6161 25.0054 80.657 25.0185C80.6978 25.0317 80.7307 25.0624 80.7464 25.1023L81.4999 27.034C81.5237 27.0936 81.5041 27.1617 81.4522 27.1995C80.5728 27.8234 79.5166 28.1495 78.4382 28.1302C76.464 28.1302 75.5423 26.9135 75.5423 24.2996V15.7704C75.5423 15.6914 75.6064 15.6274 75.6854 15.6274H78.3478C78.4268 15.6274 78.4909 15.6914 78.4909 15.7704V18.2213C78.4916 18.259 78.5074 18.2949 78.5348 18.3208C78.5622 18.3468 78.5989 18.3606 78.6366 18.3593H81.0855C81.164 18.3606 81.2273 18.4238 81.2286 18.5023V20.9456C81.2273 21.024 81.164 21.0873 81.0855 21.0886H78.6366C78.5984 21.0879 78.5616 21.1028 78.5346 21.1297C78.5076 21.1567 78.4928 21.1935 78.4934 21.2316V24.1466C78.4934 24.9167 78.7923 25.4009 79.2947 25.4009ZM89.6627 19.1946C91.4861 20.035 93.5607 20.9807 93.5733 23.7904C93.5733 26.304 91.4334 28.1252 88.4872 28.1252C86.606 28.1252 84.3556 27.3601 83.5443 25.8926C83.5157 25.8407 83.5228 25.7765 83.5619 25.732L85.1869 23.7878C85.2137 23.7567 85.2527 23.7388 85.2937 23.7388C85.3347 23.7388 85.3737 23.7567 85.4004 23.7878C86.226 24.6636 87.3711 25.1684 88.5751 25.1876C89.5697 25.1876 90.1901 24.6709 90.1901 23.8405C90.1901 22.8045 89.08 22.2676 87.794 21.648C86.0133 20.7826 83.7955 19.7139 83.7955 16.8817C83.7955 14.7695 85.4306 12.6322 88.5676 12.6322C90.3006 12.6322 91.78 13.1439 92.7696 14.0771C92.821 14.127 92.8284 14.2067 92.7871 14.2652L91.2626 16.39C91.2379 16.4222 91.201 16.4428 91.1607 16.447C91.1203 16.4513 91.08 16.4388 91.0491 16.4126C90.4675 15.8364 89.6695 15.5322 88.8514 15.5747C87.8016 15.5747 87.151 16.0764 87.151 16.8817C87.151 18.0432 88.3215 18.5775 89.6627 19.1946Z" fill="#AFABE4" fill-opacity="0.53"/>
<path fill-rule="evenodd" clip-rule="evenodd" d="M45.7997 5.39929V6.64443C45.9732 6.66968 46.1731 6.69493 46.3729 6.69493C46.6983 6.69493 47.0964 6.54343 47.0964 6.00844C47.0964 5.52554 46.7974 5.37404 46.3481 5.37404C46.1731 5.37404 46.0491 5.37404 45.7997 5.39929ZM44.5758 9.7186V4.20466C44.8764 4.20466 45.7997 4.17941 46.2226 4.17941C47.8695 4.17941 48.3946 5.04264 48.3946 6.00844C48.3946 6.9995 47.6448 7.86431 46.3977 7.86431C46.2738 7.86431 45.998 7.86431 45.7997 7.83906V9.7186H44.5758ZM51.7869 8.62654C52.8094 8.62654 53.3346 7.88956 53.3346 6.949C53.3346 5.93269 52.6344 5.27304 51.7869 5.27304C50.8884 5.27304 50.2393 5.93269 50.2393 6.949C50.2393 7.91481 50.9395 8.62654 51.7869 8.62654ZM51.7869 4.12891C53.4338 4.12891 54.6561 5.22096 54.6561 6.97425C54.6561 8.65179 53.4338 9.82118 51.7869 9.82118C50.1401 9.82118 48.9178 8.72754 48.9178 6.97425C48.9178 5.37404 50.0906 4.12891 51.7869 4.12891ZM61.0179 9.71923H59.8452L58.7235 6.1874L57.5988 9.71923H56.4276L54.8304 4.22896H56.2278L57.1263 7.71186L58.124 4.22896H59.3711L60.4184 7.71186L61.3417 4.22896H62.5392L61.0179 9.71923ZM63.2381 4.20418H66.4326V5.37357H64.4604V6.33938H66.2079V7.53401H64.4604V8.52507H66.5069V9.69445H63.2381V4.20418ZM68.9017 5.39929V6.61918H69.351C69.825 6.61918 70.1984 6.44085 70.1984 5.98319C70.1984 5.67862 70.0497 5.39929 69.4501 5.39929C69.2751 5.37404 69.1759 5.37404 68.9017 5.39929ZM67.6794 9.7186V4.20466C67.9784 4.20466 69.351 4.17941 69.5245 4.17941C70.9978 4.17941 71.5214 4.91639 71.5214 5.93269C71.5214 6.949 70.8986 7.38141 70.6229 7.50766L72.1938 9.6681H70.6988L69.3758 7.73648H68.9265V9.6681H67.6794V9.7186ZM72.8677 4.20418H76.0622V5.37357H74.09V6.33938H75.8375V7.53401H74.09V8.52507H76.1365V9.69445H72.8677V4.20418ZM78.5321 5.39929V8.55079C78.6823 8.57604 78.8063 8.57604 78.9798 8.57604C80.0534 8.57604 80.7273 7.99214 80.7273 6.949C80.7273 5.93269 80.0038 5.39929 78.9798 5.39929C78.8559 5.37404 78.6823 5.37404 78.5321 5.39929ZM77.3097 4.20466H77.4089C77.6831 4.20466 78.656 4.17941 79.0061 4.17941C81.1766 4.17941 82.024 5.44979 82.024 6.8985C82.024 8.44821 81.0015 9.7186 78.9318 9.7186C78.656 9.7186 77.9325 9.69335 77.4089 9.69335H77.3097V4.20466ZM85.8166 7.48304V8.49934C85.891 8.52459 85.9901 8.54984 86.2396 8.54984C86.7152 8.54984 86.963 8.34627 86.963 7.96594C86.963 7.61086 86.7152 7.48304 86.3155 7.48304H85.8166ZM85.8166 5.39992V6.39098H86.2163C86.5401 6.39098 86.7895 6.26315 86.7895 5.856C86.7895 5.52617 86.4905 5.37467 86.19 5.37467C86.0413 5.34784 85.9406 5.37467 85.8166 5.39992ZM84.568 4.22896C84.8685 4.20371 85.6168 4.17846 86.2163 4.17846C87.513 4.17846 88.0382 4.78919 88.0382 5.55142C88.0382 6.13532 87.812 6.51723 87.4123 6.77131V6.79656C87.812 6.94963 88.1854 7.35521 88.1854 8.04169C88.1854 9.18583 87.3132 9.74448 86.1404 9.74448C85.6168 9.74448 84.9181 9.71923 84.5943 9.69398L84.568 4.22896ZM91.7791 7.48304V9.71923H90.5319V7.48304L88.6357 4.22896H90.0579L91.2059 6.31365L92.3523 4.22896H93.6753L91.7791 7.48304Z" fill="#AFABE4" fill-opacity="0.53"/>
</svg>
