<svg width="143" height="32" viewBox="0 0 143 32" fill="none" xmlns="http://www.w3.org/2000/svg">
<path fill-rule="evenodd" clip-rule="evenodd" d="M41.7948 8.24365C40.8347 13.5606 39.9045 18.7114 38.9581 23.9515H35.07C34.0504 21.1051 33.0385 18.2795 32.0266 15.4546C31.9181 15.4595 31.8096 15.4652 31.7012 15.4708C31.1771 18.2735 30.6526 21.0766 30.113 23.96H26.3194C27.2559 18.698 28.1784 13.5117 29.1121 8.26479H32.9649C33.9426 10.9661 34.963 13.7854 36.1281 17.0058C37.2397 13.9245 37.1692 10.9833 38.0772 8.24365H41.7948Z" fill="#AFABE4" fill-opacity="0.5"/>
<path fill-rule="evenodd" clip-rule="evenodd" d="M113.249 14.4426C114.541 14.4197 115.687 14.8315 116.487 13.7166C116.917 13.1161 116.797 12.3912 116.407 11.9308C115.562 10.934 114.41 11.4289 113.249 11.4648V14.4426ZM113.099 18.9889C113.066 20.6909 113.101 20.737 114.424 20.7624C116.528 20.8032 117.239 20.371 117.235 19.0551C117.231 17.8561 116.686 17.4239 115.127 17.3845C113.131 17.3334 113.131 17.3334 113.099 18.9889ZM109.161 24.0343V8.18198H111.901C113.483 8.18163 115.067 8.23869 116.646 8.16578C118.366 8.08617 119.605 8.78395 120.338 10.2919C121.131 11.9231 120.791 13.6233 119.519 14.9635C119.36 15.1319 119.182 15.2844 118.983 15.4725C119.067 15.6176 119.113 15.8244 119.235 15.8892C121.146 16.9121 121.43 18.5697 121.185 20.526C120.948 22.4193 119.567 23.9536 117.241 24.0177C114.612 24.0903 111.979 24.0343 109.161 24.0343Z" fill="#AFABE4" fill-opacity="0.5"/>
<path fill-rule="evenodd" clip-rule="evenodd" d="M85.2848 11.8536C85.3458 14.7578 85.0943 17.5915 85.4285 20.3724C88.3308 20.8789 89.0369 19.8825 89.337 17.3421C89.4261 16.5905 89.4096 15.8145 89.3412 15.0586C89.0947 12.3376 88.0905 11.3475 85.2848 11.8536ZM81.3492 24.0462V8.18089H84.4557C85.3947 8.18089 86.3387 8.24288 87.2724 8.16997C91.2833 7.85578 92.8968 10.9653 93.2092 13.5433C93.4244 15.3217 93.4008 17.1629 93.2138 18.948C92.8838 22.0913 90.5461 24.0328 87.3555 24.0448C85.4197 24.0522 83.4836 24.0462 81.3492 24.0462Z" fill="#AFABE4" fill-opacity="0.5"/>
<path fill-rule="evenodd" clip-rule="evenodd" d="M99.7775 20.5142H106.739V23.9319H95.7486V8.30713H106.523V11.441H99.7596V14.1197H106.047V17.2859H99.7775V20.5142Z" fill="#AFABE4" fill-opacity="0.5"/>
<path fill-rule="evenodd" clip-rule="evenodd" d="M42.3581 18.8431C43.5817 18.7297 44.6841 18.6268 45.8637 18.5169C46.0356 19.0411 46.1616 19.6061 46.4015 20.1179C46.8883 21.1559 48.0854 21.6289 49.0491 21.0492C49.5481 20.7487 50.0631 20.1281 50.1423 19.5895C50.2022 19.1823 49.6778 18.5314 49.2445 18.2433C48.3746 17.6649 47.3754 17.2855 46.454 16.7794C44.1622 15.5198 43.4426 14.0897 43.8987 11.7836C44.3457 9.52299 45.8475 8.05452 48.2228 7.89214C49.4816 7.8062 50.8175 7.95308 52.0291 8.30391C53.6105 8.76216 54.4245 10.0961 54.8242 11.6477C54.9965 12.3176 54.6263 12.6498 53.9793 12.6632C53.0487 12.6822 52.1175 12.6681 51.1634 12.6681C51.0066 12.2602 50.9052 11.8002 50.6696 11.4244C50.2314 10.7259 49.2333 10.4754 48.4894 10.8009C47.4303 11.2644 47.2729 12.3486 48.2453 12.9622C49.1818 13.5529 50.218 13.983 51.1912 14.5184C52.5166 15.2479 53.5073 16.2204 53.8698 17.7956C54.5206 20.6237 52.8318 23.9551 49.2248 24.3492C48.0896 24.4729 46.878 24.3179 45.7566 24.0562C43.3405 23.4919 42.1119 21.5571 42.3581 18.8431Z" fill="#AFABE4" fill-opacity="0.5"/>
<path fill-rule="evenodd" clip-rule="evenodd" d="M74.7221 13.7343C74.5918 13.7096 74.4619 13.6846 74.3315 13.66C73.6225 15.0731 72.7924 16.437 72.4793 18.2263C73.3718 18.1626 74.0889 18.1111 74.7221 18.0661V13.7343ZM72.9149 8.2373H78.389V23.9575H74.9764C74.9426 23.3038 74.9049 22.5708 74.8539 21.5842C73.6623 21.5842 72.4535 21.5204 71.2592 21.6264C70.9366 21.655 70.4914 22.1513 70.3914 22.5127C70.0272 23.8254 69.222 24.2721 67.9241 24.1005C67.3549 24.0252 66.7678 24.0878 65.8707 24.0878C68.2883 18.6479 70.5988 13.4486 72.9149 8.2373Z" fill="#AFABE4" fill-opacity="0.5"/>
<path fill-rule="evenodd" clip-rule="evenodd" d="M56.351 12.0959C56.6043 10.7147 56.8209 9.533 57.0523 8.26953H69.4705C69.2701 9.55906 69.087 10.738 68.8837 12.0437H64.5734C63.8612 16.0497 63.1716 19.9271 62.4608 23.9249H58.366C59.0574 20.0113 59.74 16.1455 60.455 12.0959H56.351Z" fill="#AFABE4" fill-opacity="0.5"/>
<mask id="mask0_2363_2614" style="mask-type:alpha" maskUnits="userSpaceOnUse" x="129" y="8" width="14" height="16">
<path d="M129.934 8.25928H142.13V23.9408H129.934V8.25928Z" fill="white"/>
</mask>
<g mask="url(#mask0_2363_2614)">
<path fill-rule="evenodd" clip-rule="evenodd" d="M138.007 11.9866V23.9408H134.123V12.105H129.934V8.25928H142.13V11.9866H138.007Z" fill="#AFABE4" fill-opacity="0.5"/>
</g>
<mask id="mask1_2363_2614" style="mask-type:alpha" maskUnits="userSpaceOnUse" x="0" y="7" width="143" height="18">
<path d="M0.371155 24.3935H142.13V7.86914H0.371155V24.3935Z" fill="white"/>
</mask>
<g mask="url(#mask1_2363_2614)">
<path fill-rule="evenodd" clip-rule="evenodd" d="M123.661 23.9301H127.67V8.2373H123.661V23.9301Z" fill="#AFABE4" fill-opacity="0.5"/>
<path fill-rule="evenodd" clip-rule="evenodd" d="M22.0475 8.24805H26.0782C25.3477 13.5397 24.2456 18.6816 23.4063 23.9521H19.2435C20.1882 18.6615 21.1145 13.4734 22.0475 8.24805Z" fill="#AFABE4" fill-opacity="0.5"/>
<path fill-rule="evenodd" clip-rule="evenodd" d="M18.9814 8.23389C18.5791 10.4516 18.2002 12.5414 17.806 14.7161H11.17C11.5663 12.4906 11.9396 10.392 12.3239 8.23389H18.9814Z" fill="#AFABE4" fill-opacity="0.5"/>
<path fill-rule="evenodd" clip-rule="evenodd" d="M17.4396 17.499C17.0373 19.7167 16.6584 21.8065 16.2642 23.9808H9.6286C10.0245 21.7554 10.3982 19.6572 10.7821 17.499H17.4396Z" fill="#AFABE4" fill-opacity="0.5"/>
<path fill-rule="evenodd" clip-rule="evenodd" d="M1.52458 17.499H8.18202C7.7798 19.7167 7.40083 21.8065 7.0067 23.9808H0.371094" fill="#AFABE4" fill-opacity="0.5"/>
</g>
</svg>
