<svg width="62" height="32" viewBox="0 0 62 32" fill="none" xmlns="http://www.w3.org/2000/svg">
<path fill-rule="evenodd" clip-rule="evenodd" d="M21.5896 25.0692L24.6299 7.03613H29.5572L26.5169 25.0692H21.5896Z" fill="#AFABE4" fill-opacity="0.5"/>
<path fill-rule="evenodd" clip-rule="evenodd" d="M44.234 7.4551C43.2905 7.14057 41.8228 6.72119 39.8309 6.72119C35.0085 6.72119 31.6537 9.13259 31.5489 12.6973C31.5489 15.2135 34.0649 16.6813 35.8472 17.5201C37.839 18.4637 38.4681 18.9879 38.4681 19.8266C38.4681 20.9799 36.8955 21.5041 35.5327 21.5041C33.5408 21.5041 32.4924 21.2944 30.9199 20.5605L30.186 20.3508L29.557 24.3349C30.7102 24.8591 32.8069 25.2785 35.0085 25.2785C40.1454 25.2785 43.5002 22.8671 43.605 19.1976C43.605 17.1007 42.2421 15.528 39.4116 14.2699C37.7342 13.4312 36.6858 12.907 36.6858 12.0682C36.6858 11.3343 37.6294 10.4956 39.5164 10.4956C41.089 10.4956 42.2421 10.8101 43.1857 11.1246L43.605 11.3343L44.234 7.4551Z" fill="#AFABE4" fill-opacity="0.5"/>
<path fill-rule="evenodd" clip-rule="evenodd" d="M56.9186 7.03613H53.0397C51.8865 7.03613 51.0478 7.35066 50.5236 8.50394L43.1851 25.0692H48.322C48.322 25.0692 49.1607 22.8675 49.3704 22.3433C49.9994 22.3433 54.9267 22.3433 55.6606 22.3433C55.8702 22.9723 56.2896 25.0692 56.2896 25.0692H60.7975L56.9186 7.03613ZM50.8381 18.6738C51.2574 17.6253 52.7252 13.6413 52.7252 13.6413C52.7252 13.6413 53.1445 12.5928 53.459 11.8589L53.7735 13.4316C53.7735 13.4316 54.717 17.7302 54.9267 18.6738H50.8381Z" fill="#AFABE4" fill-opacity="0.5"/>
<path fill-rule="evenodd" clip-rule="evenodd" d="M17.3959 7.0376L12.6783 19.3043L12.1541 16.788C11.2106 13.9573 8.48482 10.812 5.33972 9.23931L9.74286 25.0707H14.8798L22.6377 7.0376H17.3959Z" fill="#AFABE4" fill-opacity="0.5"/>
<path fill-rule="evenodd" clip-rule="evenodd" d="M8.17058 7.03662H0.307839L0.203003 7.45599C6.38836 8.9238 10.477 12.4885 12.1544 16.7871L10.3721 8.60927C10.1625 7.45599 9.21894 7.03662 8.17058 7.03662Z" fill="#AFABE4" fill-opacity="0.5"/>
</svg>
