<svg width="106" height="32" viewBox="0 0 106 32" fill="none" xmlns="http://www.w3.org/2000/svg">
<path d="M8.42724 3.09863L1.51196 23.3766H5.58259L7.53649 17.457H13.1492L15.1605 23.3766H19.3078L12.3829 3.09863H8.42724ZM12.1722 14.0949H8.53259L10.0459 9.63125C10.1513 9.32473 10.247 9.02779 10.3332 8.72128C10.429 9.02779 10.5248 9.34389 10.6397 9.65998L12.1722 14.0949Z" fill="#AFABE4" fill-opacity="0.5"/>
<path fill-rule="evenodd" clip-rule="evenodd" d="M26.1467 14.1426C24.279 13.3955 24.0683 13.0602 24.0683 12.5143C24.0683 11.8342 24.6429 11.4031 25.5624 11.4031C26.6639 11.4031 27.5163 11.8438 27.9282 12.1024L28.7231 12.6005L29.7767 9.38205L29.3074 9.07554C28.3879 8.47208 27.0087 8.11768 25.6103 8.11768C22.4879 8.11768 20.218 10.0909 20.218 12.8208C20.218 15.3208 22.44 16.6618 24.2981 17.3323C26.1562 18.0315 26.2999 18.5009 26.2999 19.0948C26.2999 20.2059 25.1314 20.3687 24.4418 20.3687C23.3691 20.3687 22.2102 19.9089 21.5493 19.5258L20.7543 19.0564L19.7103 22.3419L20.218 22.6389C21.3577 23.3094 22.871 23.6925 24.3843 23.6925C27.8324 23.6925 30.1406 21.7576 30.1406 18.884C30.1598 15.9721 27.8611 14.7844 26.1467 14.1426Z" fill="#AFABE4" fill-opacity="0.5"/>
<path fill-rule="evenodd" clip-rule="evenodd" d="M36.2707 4.9082L32.4012 6.07679V8.39482H30.3132V11.7377H32.4012V18.3661C32.4012 20.2148 32.7747 21.5367 33.5409 22.4083C34.288 23.2321 35.4278 23.6823 36.7304 23.6823C37.9085 23.6823 38.7513 23.4428 39.1536 23.3087L39.6804 23.1267L39.4793 19.7742L38.5885 20.0424C38.3203 20.119 38.0138 20.1765 37.3817 20.1765C36.9124 20.1765 36.2802 20.1765 36.2802 18.2895V11.7377H39.7953V8.39482H36.2802V4.9082H36.2707Z" fill="#AFABE4" fill-opacity="0.5"/>
<path fill-rule="evenodd" clip-rule="evenodd" d="M49.21 8.26135L48.5013 8.17515C48.2906 8.14641 48.0799 8.11768 47.8021 8.11768C46.5761 8.11768 45.446 8.62534 44.5935 9.49699L44.5552 8.39545H40.9156L40.9635 9.1809C41.0402 10.3303 41.0785 11.6522 41.0785 13.3476V23.3764H45.0054V15.4453C45.0054 15.0717 45.0341 14.6982 45.0724 14.43C45.3598 12.8782 46.3367 11.9108 47.6393 11.9108C47.9458 11.9108 48.1469 11.9108 48.3193 11.9491L49.21 12.1407V8.26135Z" fill="#AFABE4" fill-opacity="0.5"/>
<path d="M56.3745 8.11768C51.9973 8.11768 48.942 11.3552 48.942 16.0009C48.942 20.522 51.9016 23.6829 56.1446 23.6829C59.7364 23.6829 63.6059 21.2116 63.6059 15.771C63.6155 11.269 60.6367 8.11768 56.3745 8.11768ZM59.631 15.8572C59.631 18.4721 58.2135 20.3687 56.2691 20.3687C54.3344 20.3687 52.9264 18.4913 52.9264 15.9147C52.9264 14.248 53.6448 11.4319 56.3266 11.4319C58.9414 11.4319 59.631 14.3246 59.631 15.8572Z" fill="#AFABE4" fill-opacity="0.5"/>
<path d="M76.4882 4.70699C75.1951 3.54798 73.2604 2.9541 70.7222 2.9541C69.0269 2.9541 67.4178 3.07862 65.9428 3.32767L65.3298 3.43303V23.3757H69.228V15.9619C69.6303 16.0002 70.0422 16.0098 70.4444 16.0098C73.0784 16.0098 75.3101 15.1956 76.718 13.7205C77.8195 12.5902 78.375 11.0672 78.375 9.18978C78.375 7.37942 77.7046 5.78937 76.4882 4.70699ZM74.4768 9.32388C74.4768 12.1592 71.9865 12.5806 70.4923 12.5806C69.9943 12.5806 69.5728 12.5615 69.2184 12.5136V6.43114C69.592 6.38325 70.1188 6.35451 70.7701 6.35451C72.4654 6.35451 74.4768 6.87176 74.4768 9.32388Z" fill="#AFABE4" fill-opacity="0.5"/>
<path d="M90.319 19.4013V14.3533C90.319 10.3303 88.2311 8.11768 84.4478 8.11768C82.6951 8.11768 80.8753 8.59661 79.5919 9.40121L79.1034 9.70772L80.1569 12.8208L80.9615 12.2748C81.7756 11.7288 82.9441 11.3936 84.103 11.3936C84.8884 11.384 85.4727 11.566 85.8462 11.9395C86.1623 12.2461 86.3538 12.7154 86.4113 13.3093C83.3464 13.3955 81.1051 14.133 79.7451 15.4836C78.7969 16.4223 78.318 17.6292 78.318 19.0564C78.318 21.3457 79.9845 23.6733 83.1835 23.6733C84.5436 23.6733 85.8366 23.2423 86.8327 22.4664L86.9381 23.3572H90.6543L90.5298 22.5143C90.3765 21.7097 90.319 20.6561 90.319 19.4013ZM83.7774 20.3974C83.1931 20.3974 82.2258 20.1867 82.2258 18.7882C82.2258 18.2518 82.3886 17.8304 82.7334 17.4951C83.1931 17.0449 84.2084 16.5277 86.4783 16.4798V18.089C86.4783 18.2039 86.4688 18.4243 86.4017 18.635C86.124 19.4492 85.2715 20.3974 83.7774 20.3974Z" fill="#AFABE4" fill-opacity="0.5"/>
<path fill-rule="evenodd" clip-rule="evenodd" d="M101.113 8.39453L98.2687 16.8141C98.1921 17.0249 98.125 17.2452 98.058 17.4559C97.9814 17.2452 97.9143 17.044 97.8377 16.8524L94.7344 8.39453H90.4531L95.8167 21.8429L95.8359 21.8812C95.9221 22.0536 95.9508 22.159 95.9604 22.1973C95.9317 22.2739 95.8742 22.408 95.8359 22.4942C95.3762 23.4904 94.677 24.41 93.9874 24.9655L93.9682 24.9847C93.1828 25.6456 92.3782 25.9521 92.0717 26.0479L91.3821 26.2682L92.3878 29.6207L93.0296 29.5058C93.4223 29.4387 94.8111 29.1035 96.401 27.7721C98.307 26.0862 99.5713 23.3946 101.228 19.0268L105.289 8.40411H101.113V8.39453Z" fill="#AFABE4" fill-opacity="0.5"/>
<path fill-rule="evenodd" clip-rule="evenodd" d="M15.8404 8.67256C18.369 6.0959 22.6503 4.55374 27.3052 4.55374C29.1154 4.55374 30.8873 4.78363 32.5539 5.24341L32.688 5.28172L35.6763 4.38133L34.3354 3.87366C31.7877 2.89664 28.8568 2.37939 25.8398 2.37939C21.4722 2.37939 17.392 3.43304 14.3462 5.34877L14.0206 5.5595L15.2753 9.23769L15.8404 8.67256Z" fill="#AFABE4" fill-opacity="0.5"/>
</svg>
