<svg width="110" height="32" viewBox="0 0 110 32" fill="none" xmlns="http://www.w3.org/2000/svg">
<path fill-rule="evenodd" clip-rule="evenodd" d="M62.0927 16.7977L62.0016 17.4961C61.8045 19.1098 61.0784 20.6128 59.9367 21.7702C59.172 22.5819 58.2359 23.213 57.1967 23.6177C56.1575 24.0224 55.0412 24.1905 53.9289 24.1098C52.8166 24.0291 51.7362 23.7016 50.7663 23.1512C49.7964 22.6007 48.9612 21.8411 48.3216 20.9275C48.0975 20.5298 47.8973 20.1191 47.7219 19.6977C47.6968 19.6507 47.6884 19.5965 47.698 19.5441C47.7077 19.4917 47.7348 19.4441 47.775 19.4092C48.0635 19.0751 48.3368 18.7259 48.6177 18.3843C48.6177 18.3464 48.6633 18.3008 48.7088 18.2249C48.8075 18.5134 48.8758 18.7411 48.9669 18.984C49.3494 19.9263 49.9704 20.7529 50.769 21.3824C51.5676 22.012 52.5163 22.4229 53.5219 22.5749C55.0242 22.8086 56.5595 22.4704 57.8245 21.6271C59.0896 20.7837 59.9923 19.4966 60.3543 18.0199C60.4607 17.5511 60.5217 17.0732 60.5365 16.5927C60.5365 15.9702 60.5365 15.3401 60.5365 14.7176C60.4621 13.5563 60.0328 12.4459 59.3066 11.5367C58.8175 10.8701 58.1951 10.3126 57.4789 9.89964C56.7627 9.48664 55.9684 9.22718 55.1465 9.13777C54.3312 9.04019 53.5046 9.11477 52.72 9.35669C51.9354 9.59861 51.2102 10.0025 50.5915 10.5422C49.24 11.6907 47.9973 12.9613 46.8792 14.338C46.3478 14.9681 45.8392 15.621 45.323 16.2663L45.2015 16.4029C45.2015 16.3194 45.2015 16.2739 45.2015 16.2359C45.2015 15.5982 45.2015 14.9681 45.2015 14.338C45.1987 14.2461 45.2253 14.1557 45.2774 14.0799C46.1741 12.877 47.1505 11.7357 48.2002 10.6637C48.9829 9.88668 49.8455 9.19453 50.7737 8.59877C51.6259 8.06969 52.5856 7.73769 53.5826 7.62705C55.4227 7.40887 57.279 7.87121 58.8018 8.92697C60.3246 9.98272 61.4087 11.559 61.8498 13.3587C61.9485 13.761 61.9789 14.1786 62.0396 14.5885C62.0396 14.6796 62.0396 14.7707 62.0927 14.8618V16.7977Z" fill="#AFABE4" fill-opacity="0.5"/>
<path fill-rule="evenodd" clip-rule="evenodd" d="M15.9209 14.8086H9.5971C9.5971 14.7251 9.5971 14.6492 9.5971 14.5809V13.5712C9.5971 13.2979 9.5971 13.2979 9.88558 13.2979H17.2115C17.3861 13.2979 17.4392 13.351 17.4392 13.5256C17.4392 16.1523 17.4392 18.7866 17.4392 21.4133C17.4349 21.53 17.3922 21.6421 17.3177 21.7321C16.5441 22.5977 15.5871 23.2798 14.5164 23.7287C13.5139 24.1678 12.4479 24.4446 11.3583 24.5486C9.52603 24.8021 7.65933 24.5392 5.96833 23.7895C4.53849 23.176 3.2816 22.22 2.30851 21.006C1.33542 19.7919 0.676034 18.3571 0.388518 16.828C-0.0529931 14.9453 0.0630714 12.9749 0.722547 11.1571C1.60853 8.80087 3.34454 6.86174 5.58875 5.7215C6.78918 5.08322 8.10093 4.68119 9.45286 4.53721C10.4475 4.43877 11.4493 4.43877 12.4439 4.53721C13.4241 4.60527 14.3899 4.80969 15.3136 5.14454C15.3977 5.15941 15.4727 5.20671 15.5224 5.27626C15.5721 5.34582 15.5925 5.43208 15.5793 5.51653C15.5793 5.97961 15.5793 6.4427 15.5793 6.92856L15.0706 6.67804C14.2408 6.27646 13.3411 6.03929 12.4212 5.97961C11.7531 5.92647 11.085 5.88851 10.417 5.89611C8.4608 5.91329 6.5654 6.57801 5.02697 7.78641C3.5412 8.89125 2.46068 10.4547 1.95238 12.2351C1.69938 13.1565 1.59684 14.1127 1.64872 15.0667C1.68394 16.2687 1.97646 17.4492 2.50657 18.5285C3.0453 19.663 3.8447 20.6539 4.8395 21.4205C5.83431 22.187 6.9963 22.7074 8.23062 22.9392C9.27913 23.1415 10.3538 23.1697 11.4115 23.0227C12.6595 22.9121 13.865 22.5146 14.934 21.8612C15.2267 21.6682 15.5058 21.4551 15.7691 21.2235C15.8518 21.1404 15.9005 21.0294 15.9057 20.9122C15.9057 18.946 15.9057 16.9874 15.9057 15.0212C15.9361 14.9529 15.9285 14.8921 15.9209 14.8086Z" fill="#AFABE4" fill-opacity="0.5"/>
<path fill-rule="evenodd" clip-rule="evenodd" d="M38.8474 22.1501C38.8474 22.6435 38.8474 23.1066 38.8474 23.5697C38.8474 23.6228 38.7563 23.6987 38.6956 23.7139C38.2336 23.8737 37.7586 23.9931 37.2759 24.0707C36.3338 24.1799 35.3794 24.102 34.4675 23.8414C33.5556 23.5809 32.7041 23.1428 31.9618 22.5524C31.1505 21.9653 30.4674 21.2187 29.9544 20.3585C29.4414 19.4983 29.1093 18.5425 28.9784 17.5496C28.9137 16.6575 28.9137 15.7619 28.9784 14.8697C29.0076 13.1332 29.6657 11.4662 30.8307 10.1782C31.4779 9.42048 32.2693 8.79907 33.1589 8.35009C34.0485 7.9011 35.0185 7.6335 36.0125 7.56286C37.0064 7.49221 38.0045 7.61993 38.9487 7.93859C39.8928 8.25724 40.7642 8.76047 41.512 9.41899C42.8892 10.5979 43.7949 12.2341 44.0628 14.0271C44.1198 14.3786 44.1503 14.7338 44.1539 15.0899V24.1163H42.6432V23.8278C42.6432 20.905 42.6432 17.9899 42.6432 15.0747C42.632 13.6592 42.1268 12.292 41.2147 11.2095C40.3026 10.1269 39.041 9.39692 37.6479 9.1457C36.7814 8.98005 35.8893 9.00515 35.0335 9.21927C34.1777 9.43338 33.3788 9.83137 32.6924 10.3855C32.006 10.9397 31.4486 11.6368 31.0589 12.4282C30.6692 13.2197 30.4566 14.0865 30.4359 14.9684C30.3683 15.8286 30.3886 16.6935 30.4967 17.5496C30.6768 18.5966 31.1284 19.5781 31.8065 20.396C32.4845 21.214 33.3653 21.8397 34.3608 22.2108C35.7161 22.75 37.2264 22.75 38.5817 22.2108L38.8474 22.1501Z" fill="#AFABE4" fill-opacity="0.5"/>
<path fill-rule="evenodd" clip-rule="evenodd" d="M14.7594 15.9778V20.3885C14.7634 20.4542 14.751 20.5199 14.7231 20.5796C14.6953 20.6392 14.6529 20.691 14.6 20.7301C13.9435 21.2165 13.1858 21.5487 12.3833 21.7019C11.488 21.909 10.5678 21.9883 9.65029 21.9372C8.39639 21.8923 7.17774 21.5105 6.1224 20.8319C5.06706 20.1533 4.21403 19.2029 3.65294 18.0807C3.11166 17.0482 2.83269 15.8985 2.84064 14.7328C2.779 13.5955 2.99254 12.4601 3.46315 11.4229C3.89714 10.513 4.50799 9.69867 5.26006 9.02742C6.01213 8.35616 6.89035 7.84141 7.84349 7.5132C9.0217 7.10109 10.2756 6.95083 11.5178 7.07289C12.5763 7.113 13.6217 7.32054 14.6152 7.6878C14.8961 7.80168 15.1694 7.93073 15.4427 8.05979C15.4741 8.07859 15.5013 8.10389 15.5222 8.134C15.5432 8.16411 15.5574 8.19833 15.5641 8.2344C15.5641 8.7734 15.5641 9.3124 15.5641 9.88936L15.3667 9.7603C14.5517 9.14696 13.5814 8.77358 12.5655 8.6823C11.8811 8.59141 11.1907 8.55334 10.5005 8.56843C9.36821 8.56592 8.25623 8.86933 7.28209 9.44659C6.30795 10.0239 5.50783 10.8535 4.96628 11.848C4.5587 12.5874 4.34456 13.4178 4.34378 14.2621C4.29045 15.2426 4.46452 16.2221 4.85241 17.1241C5.21825 17.9823 5.79995 18.7311 6.54093 19.2978C7.28191 19.8645 8.15694 20.2298 9.08092 20.3581C10.462 20.5592 11.8716 20.3997 13.1728 19.8951C13.2318 19.8823 13.2839 19.848 13.319 19.7988C13.3541 19.7497 13.3696 19.6893 13.3626 19.6294C13.3626 18.9993 13.3626 18.3692 13.3626 17.7315C13.3626 17.5341 13.3094 17.4658 13.0969 17.4658C12.0037 17.4658 10.9105 17.4658 9.80971 17.4658C9.6351 17.4658 9.56678 17.4202 9.57437 17.2304C9.57437 16.8129 9.57437 16.3953 9.57437 15.9626L14.7594 15.9778Z" fill="#AFABE4" fill-opacity="0.5"/>
<path fill-rule="evenodd" clip-rule="evenodd" d="M50.8345 15.6591C50.918 16.0538 50.9711 16.4182 51.0698 16.7143C51.3093 17.5996 51.778 18.4061 52.4287 19.0525C52.7281 19.3436 53.0828 19.5718 53.4718 19.7237C53.8609 19.8755 54.2764 19.9479 54.6938 19.9366C55.1113 19.9253 55.5223 19.8305 55.9025 19.6578C56.2827 19.4851 56.6245 19.238 56.9077 18.931C57.5096 18.34 57.8535 17.535 57.8643 16.6915C57.9022 16.0341 57.9022 15.3751 57.8643 14.7177C57.7937 14.0275 57.508 13.3769 57.0475 12.8579C56.5871 12.3389 55.9752 11.9777 55.2983 11.8253C54.7369 11.6915 54.1507 11.702 53.5945 11.856C53.0382 12.01 52.5301 12.3024 52.1174 12.7059C50.9254 13.8172 49.8143 15.0121 48.7923 16.2816C47.6005 17.6936 46.4465 19.1436 45.2774 20.5708C45.27 20.5829 45.26 20.5932 45.2482 20.601C45.2364 20.6089 45.2231 20.6141 45.2091 20.6164C45.2054 20.5633 45.2054 20.51 45.2091 20.4569C45.2091 19.8041 45.2091 19.1512 45.2091 18.4983C45.2128 18.3816 45.2497 18.2684 45.3154 18.1719C46.3934 16.7371 47.5929 15.3782 48.7847 14.0572C49.4452 13.336 50.1133 12.6148 50.8193 11.9316C51.5843 11.1361 52.562 10.5775 53.6358 10.3222C54.2561 10.1833 54.8991 10.1791 55.5212 10.3101C56.1433 10.4411 56.7301 10.7041 57.2418 11.0814C57.793 11.4499 58.2636 11.9266 58.6251 12.4825C58.9866 13.0385 59.2314 13.662 59.3446 14.3154C59.3928 14.5655 59.4157 14.8198 59.4129 15.0745C59.4129 15.7957 59.4129 16.5245 59.3598 17.2457C59.2337 18.1934 58.8307 19.0828 58.2014 19.8026C57.5721 20.5223 56.7445 21.0405 55.8221 21.292C54.8282 21.5692 53.771 21.5137 52.8115 21.134C51.8521 20.7544 51.0432 20.0714 50.508 19.1892C50.1481 18.6238 49.8911 17.9993 49.7489 17.3444C49.7391 17.2918 49.7401 17.2378 49.7518 17.1856C49.7636 17.1333 49.7858 17.0841 49.8172 17.0407C50.136 16.6308 50.4701 16.236 50.7965 15.8337L50.8345 15.6591Z" fill="#AFABE4" fill-opacity="0.5"/>
<path fill-rule="evenodd" clip-rule="evenodd" d="M38.8475 19.204C38.8475 19.7202 38.8475 20.2061 38.8475 20.6843C38.8475 20.7603 38.764 20.8438 38.6957 20.8969C38.2952 21.1558 37.8407 21.3194 37.3672 21.3752C36.3798 21.5455 35.3641 21.4107 34.4553 20.9889C33.5466 20.5671 32.788 19.8782 32.2808 19.0142C31.8326 18.2753 31.5987 17.4263 31.6051 16.5621V15.2184C31.5926 14.4571 31.7609 13.7038 32.0961 13.0202C32.4313 12.3365 32.9239 11.7422 33.5334 11.286C34.1899 10.7605 34.9712 10.4139 35.8013 10.2797C36.6315 10.1456 37.4822 10.2285 38.2708 10.5204C39.0594 10.8123 39.759 11.3032 40.3018 11.9456C40.8445 12.5879 41.2117 13.3597 41.3679 14.186C41.422 14.5273 41.4448 14.8729 41.4362 15.2184C41.4362 18.1032 41.4362 20.988 41.4362 23.8728C41.4362 24.1385 41.4362 24.1385 41.1629 24.1385C40.8896 24.1385 40.4873 24.1385 40.1533 24.1385C39.9787 24.1385 39.9407 24.0778 39.9407 23.9184C39.9407 23.1592 39.9407 22.4 39.9407 21.5953V15.2791C39.9672 14.542 39.757 13.8157 39.341 13.2066C38.9683 12.6706 38.4501 12.2523 37.8475 12.001C37.2449 11.7498 36.583 11.676 35.9398 11.7886C35.2967 11.9011 34.6992 12.1951 34.2177 12.636C33.7362 13.0769 33.3907 13.6463 33.2222 14.2771C33.1565 14.543 33.1208 14.8155 33.1159 15.0894C33.1159 15.5676 33.1159 16.0459 33.1159 16.5242C33.1027 17.3444 33.3905 18.1411 33.9249 18.7635C34.4592 19.386 35.2031 19.7912 36.0159 19.9024C36.9291 20.0374 37.8602 19.835 38.6349 19.333L38.8475 19.204Z" fill="#AFABE4" fill-opacity="0.5"/>
<path fill-rule="evenodd" clip-rule="evenodd" d="M30.6258 8.56064L29.5782 9.69938C29.2019 9.52742 28.8137 9.3828 28.4166 9.26666C27.313 8.93911 26.1393 8.92918 25.0303 9.238C23.9212 9.54682 22.9216 10.1619 22.146 11.0127C21.4031 11.8299 20.9288 12.8554 20.7871 13.9507C20.7137 14.4763 20.6782 15.0066 20.6808 15.5373C20.6808 18.3006 20.6808 21.0716 20.6808 23.8425C20.6808 24.1234 20.6808 24.1234 20.3924 24.1234H19.3903C19.246 24.1234 19.1929 24.0702 19.2081 23.9336V15.2185C19.1704 13.5938 19.6488 11.9991 20.5746 10.6635C21.1157 9.88948 21.8062 9.23149 22.6054 8.72825C23.4046 8.22501 24.2963 7.88668 25.2282 7.73316C26.7008 7.42597 28.2311 7.55525 29.6313 8.10515C29.9653 8.19625 30.2766 8.38603 30.6258 8.56064Z" fill="#AFABE4" fill-opacity="0.5"/>
<path fill-rule="evenodd" clip-rule="evenodd" d="M28.9176 10.6638L28.2648 11.962C27.9698 11.8784 27.6709 11.81 27.369 11.757C26.8835 11.6583 26.3821 11.6696 25.9016 11.7901C25.421 11.9105 24.9736 12.1371 24.5921 12.4531C24.2105 12.7691 23.9046 13.1665 23.6968 13.6162C23.4889 14.0659 23.3844 14.5564 23.391 15.0517V24.1085H21.8727C21.8689 24.0377 21.8689 23.9667 21.8727 23.8959C21.8727 20.9276 21.8727 17.9517 21.8727 14.9834C21.8695 13.8657 22.263 12.7831 22.983 11.9281C23.7031 11.0732 24.7031 10.5015 25.8051 10.3146C26.6932 10.1456 27.6096 10.203 28.4697 10.4816C28.6235 10.5307 28.7733 10.5916 28.9176 10.6638Z" fill="#AFABE4" fill-opacity="0.5"/>
<path fill-rule="evenodd" clip-rule="evenodd" d="M46.7882 0.794922H48.2686C48.2686 0.878429 48.2686 0.946753 48.2686 1.02267C48.2686 3.58862 48.2686 6.15457 48.2686 8.72812C48.2704 8.7869 48.2591 8.84536 48.2354 8.89921C48.2118 8.95306 48.1764 9.00095 48.1319 9.03937C47.7295 9.44932 47.3727 9.87445 46.94 10.292L46.773 10.4818L46.7882 0.794922Z" fill="#AFABE4" fill-opacity="0.5"/>
<path fill-rule="evenodd" clip-rule="evenodd" d="M49.4756 8.23467V1.06822C49.4756 0.794922 49.4756 0.794922 49.7414 0.794922H50.6675C50.994 0.794922 50.994 0.794922 50.994 1.09099V2.42711C50.994 3.94543 50.994 5.46374 50.994 6.98206C50.9995 7.05034 50.9843 7.11871 50.9505 7.17828C50.9166 7.23784 50.8657 7.28586 50.8042 7.31609C50.417 7.55902 50.045 7.83231 49.673 8.07524L49.4756 8.23467Z" fill="#AFABE4" fill-opacity="0.5"/>
<path fill-rule="evenodd" clip-rule="evenodd" d="M97.1812 25.9914L97.4621 26.2116C98.6301 27.1809 100.049 27.7995 101.554 27.9956C102.574 28.1747 103.623 28.075 104.591 27.7071C105.086 27.5137 105.514 27.1788 105.82 26.7441C106.126 26.3094 106.298 25.7942 106.314 25.2626C106.367 24.6553 106.314 24.048 106.359 23.4482C106.359 23.3951 106.359 23.3495 106.359 23.2736L106.276 23.3192C105.607 24.0582 104.703 24.5436 103.718 24.6933C102.154 25.0387 100.518 24.8181 99.1018 24.0707C98.3715 23.6785 97.7357 23.1315 97.2387 22.468C96.7418 21.8046 96.3957 21.0405 96.2246 20.2294C96.0546 19.5724 95.9704 18.8962 95.9741 18.2176V9.25958C95.9741 9.00146 95.9741 9.00146 96.2474 9.00146H99.3296C99.5346 9.00146 99.5877 9.0622 99.5877 9.26717C99.5877 12.3038 99.5877 15.3404 99.5877 18.3771C99.5631 19.1233 99.8142 19.8524 100.293 20.4252C100.772 20.9979 101.445 21.3742 102.184 21.482C102.673 21.5864 103.179 21.5834 103.666 21.4733C104.154 21.3632 104.612 21.1486 105.008 20.8443C105.305 20.6068 105.552 20.3114 105.732 19.9761C105.912 19.6408 106.022 19.2724 106.056 18.8933C106.09 18.5858 106.105 18.2765 106.101 17.9671V9.27476C106.101 9.00146 106.101 9.00146 106.375 9.00146H109.411C109.571 9.00146 109.624 9.04701 109.624 9.20644C109.624 14.5585 109.624 19.9106 109.624 25.2626C109.652 26.7099 109.137 28.1153 108.181 29.2026C107.351 30.1037 106.269 30.7356 105.076 31.017C104.369 31.1972 103.643 31.299 102.913 31.3207C100.941 31.4432 98.9956 30.8199 97.4621 29.5746C97.3935 29.5281 97.3384 29.4643 97.3024 29.3896C97.2665 29.315 97.2508 29.2321 97.2571 29.1495C97.2571 28.1626 97.2571 27.1757 97.2571 26.1812C97.166 26.1281 97.1736 26.0825 97.1812 25.9914Z" fill="#AFABE4" fill-opacity="0.5"/>
<path fill-rule="evenodd" clip-rule="evenodd" d="M66.7845 24.9205H66.5416C65.5547 24.9205 64.5602 24.9205 63.5733 24.9205C63.3607 24.9205 63.3151 24.8522 63.3227 24.6548V5.92643C63.3227 5.66072 63.3227 5.66072 63.5884 5.66072C66.0405 5.66072 68.4926 5.66072 70.9447 5.66072C71.8118 5.64933 72.6725 5.81061 73.4767 6.13514C74.2808 6.45967 75.0124 6.94098 75.6287 7.55102C76.4204 8.35413 76.9499 9.37857 77.147 10.489C77.446 11.8867 77.3647 13.339 76.9117 14.6947C76.5913 15.6539 76.0254 16.5124 75.2702 17.185C74.515 17.8576 73.5969 18.3208 72.6072 18.5284C71.9056 18.709 71.1832 18.7958 70.4588 18.7866H67.0426C66.7845 18.7866 66.7845 18.7866 66.7845 19.0598V24.9054V24.9205ZM68.7507 15.5829C69.229 15.5829 69.7073 15.5829 70.1855 15.5829C70.5929 15.5793 70.9992 15.5412 71.4002 15.469C71.9205 15.3944 72.4096 15.1757 72.812 14.8377C73.2145 14.4996 73.5144 14.0556 73.6776 13.556C73.9507 12.7043 73.9507 11.7885 73.6776 10.9369C73.5752 10.5299 73.3751 10.154 73.0947 9.84185C72.8143 9.52966 72.4619 9.29055 72.0682 9.14525C71.5618 8.95173 71.0238 8.85391 70.4816 8.85677C69.3125 8.85677 68.1434 8.85677 66.9743 8.85677C66.8225 8.85677 66.7769 8.90991 66.7769 9.06175C66.7769 11.157 66.7769 13.2523 66.7769 15.3476C66.7769 15.5146 66.8376 15.5677 66.9971 15.5601C67.5816 15.5753 68.1662 15.5829 68.7507 15.5829Z" fill="#AFABE4" fill-opacity="0.5"/>
<path fill-rule="evenodd" clip-rule="evenodd" d="M90.288 23.2807C89.5296 24.0751 88.5377 24.607 87.4563 24.799C86.6571 24.9433 85.8407 24.9663 85.0346 24.8673C84.058 24.7802 83.1097 24.4934 82.2485 24.0247C81.4824 23.606 80.8116 23.0329 80.2785 22.3417C79.7453 21.6504 79.3614 20.856 79.1511 20.0087C78.9352 19.2379 78.8279 18.4407 78.8323 17.6402C78.8323 16.881 78.8323 16.1219 78.8778 15.3247C78.9245 13.849 79.4655 12.4316 80.4139 11.3C81.3624 10.1684 82.6635 9.38821 84.1084 9.08446C85.7981 8.65784 87.575 8.72902 89.2252 9.28943C90.2785 9.63467 91.2227 10.2504 91.9635 11.0751C92.7042 11.8997 93.2154 12.9044 93.4461 13.9886C93.6134 14.6666 93.695 15.3628 93.689 16.0611V24.4498C93.689 24.7307 93.689 24.7307 93.4081 24.7307H90.5233C90.3487 24.7307 90.2728 24.6927 90.2804 24.4954C90.2956 24.093 90.288 23.6907 90.288 23.2807ZM90.288 16.9114C90.2424 16.342 90.288 15.765 90.1589 15.2109C90.0707 14.5789 89.8121 13.9829 89.4109 13.4867C89.0097 12.9905 88.481 12.6129 87.8814 12.3944C87.0725 12.1095 86.2015 12.0491 85.361 12.2198C84.592 12.3508 83.8842 12.7217 83.3387 13.2794C82.7933 13.8371 82.4383 14.553 82.3244 15.3247C82.1942 16.2099 82.1814 17.1084 82.2865 17.997C82.3348 18.6906 82.5728 19.3577 82.9744 19.9253C83.3761 20.4929 83.9259 20.9393 84.5639 21.2158C85.4002 21.577 86.3247 21.6827 87.221 21.5195C87.9009 21.4437 88.5418 21.1638 89.0595 20.7166C89.5772 20.2694 89.9472 19.6759 90.121 19.0142C90.2667 18.323 90.3354 17.6177 90.3259 16.9114H90.288Z" fill="#AFABE4" fill-opacity="0.5"/>
</svg>
