<svg width="132" height="32" viewBox="0 0 132 32" fill="none" xmlns="http://www.w3.org/2000/svg">
<path fill-rule="evenodd" clip-rule="evenodd" d="M24.9713 14.7108C24.9713 14.281 24.7563 14.0661 24.3265 14.0661H22.1774C21.5326 14.0661 21.3177 14.4959 21.3177 14.9258V18.7945C21.3177 19.4393 21.7475 19.6542 22.1774 19.6542H24.3265C24.5414 19.6542 24.5414 19.6542 24.7563 19.4393C24.9713 19.4393 24.9713 19.2244 24.9713 19.0094V14.7108ZM18.5238 14.281C18.5238 13.2063 18.7387 12.5615 19.1685 11.9168C19.3835 11.7018 19.8133 11.7018 20.0282 11.4869C20.458 11.272 20.673 11.272 21.1028 11.272H25.1862C26.9055 11.272 27.7652 12.1317 27.7652 14.0661V20.0841C27.7652 20.7289 27.5502 21.3737 26.9055 21.8035C26.4757 22.2334 25.8309 22.6632 25.1862 22.6632H21.3177V26.9618H18.5238V14.281Z" fill="#AFABE4" fill-opacity="0.5"/>
<path fill-rule="evenodd" clip-rule="evenodd" d="M32.9239 19.2244C32.9239 19.2244 32.9239 19.4393 33.1389 19.4393C33.1389 19.6542 33.3538 19.6542 33.5687 19.6542H35.7179C36.1477 19.6542 36.3626 19.4393 36.5776 19.2244V18.3646C36.5776 17.9348 36.1477 17.7199 35.7179 17.7199H33.5687C33.3538 17.7199 33.1389 17.7199 32.9239 17.7199C32.9239 17.9348 32.9239 18.1497 32.9239 18.3646V19.2244ZM36.5776 14.7108C36.5776 14.281 36.1477 14.0661 35.7179 14.0661H30.13V11.272H36.3626C38.2969 11.272 39.1566 12.1317 39.3715 13.8511V19.8691C39.1566 20.7289 38.9417 21.3736 38.5118 21.8035C38.082 22.4483 37.4372 22.6632 36.7925 22.6632H32.9239C30.9897 22.6632 30.13 21.8035 30.13 20.0841V17.7199C30.13 16.0004 30.9897 15.1407 32.709 14.9258H36.5776V14.7108Z" fill="#AFABE4" fill-opacity="0.5"/>
<path fill-rule="evenodd" clip-rule="evenodd" d="M47.1074 23.9528C47.3223 23.9528 47.5373 23.9528 47.7522 23.7379C47.9671 23.5229 47.9671 23.5229 47.9671 23.308V23.0931V22.6632H44.3135C43.8836 22.6632 43.4538 22.4483 43.2389 22.4483C43.024 22.2334 42.5941 22.0184 42.3792 21.8035C42.1643 21.5886 41.9494 21.1587 41.7344 20.9438C41.5195 20.5139 41.5195 20.0841 41.5195 19.6542V11.272H44.3135V18.7945C44.3135 19.4393 44.5284 19.6542 45.1731 19.6542H47.1074C47.3223 19.6542 47.5373 19.6542 47.7522 19.4393C47.7522 19.4393 47.9671 19.2244 47.9671 19.0094V18.7945V11.272H50.761V23.7379C50.761 24.5976 50.5461 25.4573 50.1163 26.1021C49.4715 26.532 48.8268 26.9618 48.182 26.9618H41.5195V23.9528H47.1074Z" fill="#AFABE4" fill-opacity="0.5"/>
<path fill-rule="evenodd" clip-rule="evenodd" d="M52.9103 19.6542H57.8534C58.2832 19.6542 58.7131 19.4393 58.7131 19.2244V19.0094C58.7131 18.7945 58.7131 18.7945 58.4981 18.5796C58.4981 18.3646 58.2832 18.3646 58.0683 18.3646H57.8534H55.7042C54.8445 18.3646 54.4147 18.1497 53.77 17.5049C53.3401 17.0751 52.9103 16.6452 52.9103 16.0004V13.8511C52.9103 12.1317 53.9849 11.272 55.7042 11.272H61.507V14.0661H56.5639C55.9191 14.0661 55.7042 14.281 55.7042 14.7108V14.9258C55.7042 15.3556 55.9191 15.3556 56.5639 15.3556H59.1429C59.7877 15.5706 60.2175 15.7855 60.8622 16.2153C61.2921 16.6452 61.507 17.29 61.507 17.9348V20.0841C61.507 20.7289 61.2921 21.1587 60.6473 21.8035C60.4324 22.2334 60.2175 22.2334 60.0026 22.4483C59.5727 22.6632 59.3578 22.6632 58.7131 22.6632H52.9103V19.6542Z" fill="#AFABE4" fill-opacity="0.5"/>
<path fill-rule="evenodd" clip-rule="evenodd" d="M66.2344 19.2244L66.4493 19.4393C66.6642 19.6542 66.8791 19.6542 67.0941 19.6542H69.2432C69.673 19.6542 69.8879 19.4393 69.8879 19.2244V18.3646C69.8879 17.9348 69.673 17.7199 69.2432 17.7199H67.0941C66.6642 17.7199 66.6642 17.7199 66.4493 17.7199C66.4493 17.9348 66.2344 18.1497 66.2344 18.3646V19.2244ZM69.8879 14.7108C69.8879 14.281 69.673 14.0661 69.2432 14.0661H63.4406V11.272H69.8879C71.8221 11.272 72.6818 12.1317 72.6818 13.8511V19.8691C72.6818 20.7289 72.4669 21.3736 72.037 21.8035C71.6072 22.4483 70.9625 22.6632 70.1028 22.6632H66.2344C64.5151 22.6632 63.4406 21.8035 63.4406 20.0841V17.7199C63.4406 16.0004 64.5151 15.1407 66.2344 14.9258H69.8879V14.7108Z" fill="#AFABE4" fill-opacity="0.5"/>
<path fill-rule="evenodd" clip-rule="evenodd" d="M75.0463 9.55278C75.0463 8.908 75.2612 8.26321 75.906 7.61842C76.3358 7.18856 77.1955 6.97363 78.0552 6.97363H79.7746V9.76771H78.7C78.0552 9.76771 77.8403 9.98264 77.8403 10.6274V11.2722H79.7746V14.0663H77.8403V22.6635H75.0463V9.55278Z" fill="#AFABE4" fill-opacity="0.5"/>
<path fill-rule="evenodd" clip-rule="evenodd" d="M87.7266 14.7108V14.4959C87.7266 14.4959 87.7266 14.281 87.5116 14.281C87.5116 14.0661 87.2967 14.0661 87.0818 14.0661H85.1476C84.9327 14.0661 84.7177 14.0661 84.5028 14.281C84.2879 14.4959 84.2879 14.7108 84.2879 14.9258V16.0004L87.7266 14.7108ZM84.2879 18.7945V19.0094C84.2879 19.2244 84.2879 19.4393 84.5028 19.4393C84.5028 19.6542 84.7177 19.6542 84.9327 19.6542H85.1476H90.5205V22.6632H84.5028C83.8581 22.6632 83.4283 22.4483 83.2133 22.4483C82.7835 22.2334 82.5686 22.2334 82.3537 21.8035C81.9238 21.5886 81.7089 21.3736 81.7089 20.9438C81.494 20.7289 81.494 20.299 81.494 19.6542V13.8511C81.494 12.1317 82.3537 11.272 84.2879 11.272H87.9415C89.6608 11.272 90.5205 12.1317 90.7354 14.0661V16.2153L84.2879 18.7945Z" fill="#AFABE4" fill-opacity="0.5"/>
<path fill-rule="evenodd" clip-rule="evenodd" d="M96.5381 22.6623C96.1083 22.6623 95.6785 22.6623 95.4636 22.4474C95.0338 22.4474 94.6039 22.2325 94.389 22.0175C93.9592 21.5877 93.7443 21.3728 93.5294 20.9429C93.3145 20.513 93.3145 20.0832 93.3145 19.4384V14.0652C93.3145 13.6353 93.3145 13.2054 93.3145 12.9905C93.5294 12.5607 93.7443 12.3457 93.9592 11.9159C94.389 11.7009 94.6039 11.486 95.0338 11.2711C95.4636 11.2711 95.8934 11.0562 96.3232 11.0562H100.621V11.9159H96.3232C95.6785 11.9159 95.0338 11.9159 94.6039 12.3457C94.1741 12.5607 93.9592 13.2054 93.9592 14.0652V19.4384C93.9592 19.6533 93.9592 20.0832 94.1741 20.513C94.1741 20.728 94.389 21.1578 94.6039 21.3728C95.0338 21.5877 95.2487 21.8026 95.6785 21.8026C95.8934 21.8026 96.3232 22.0175 96.5381 22.0175H100.621V22.6623H96.5381Z" fill="#AFABE4" fill-opacity="0.5"/>
<path fill-rule="evenodd" clip-rule="evenodd" d="M111.582 15.5697H105.995C105.35 15.5697 104.705 15.7846 104.49 16.2145C104.06 16.6443 103.846 17.2891 103.846 17.9339V19.6533C103.846 20.0832 103.846 20.2981 103.846 20.513C104.06 20.9429 104.06 21.1578 104.49 21.3728C104.92 21.8026 105.35 22.0175 105.995 22.0175H109.433C110.938 22.0175 111.582 21.1578 111.582 19.6533V15.5697ZM112.227 19.4384C112.227 19.8682 112.227 20.2981 112.227 20.728C112.012 20.9429 112.012 21.3728 111.582 21.8026C110.938 22.2325 110.293 22.6623 109.433 22.6623H105.995C105.135 22.6623 104.49 22.4474 104.06 21.8026C103.416 21.3728 103.201 20.513 103.201 19.6533V17.9339C103.201 15.9995 104.06 14.9249 105.995 14.9249H111.582V14.2801C111.582 13.6353 111.367 12.9905 111.153 12.5607C110.938 12.3457 110.508 12.1308 110.293 11.9159C109.863 11.9159 109.648 11.9159 109.218 11.9159H103.201V11.0562H109.003C109.433 11.0562 109.863 11.2711 110.293 11.2711C110.508 11.2711 110.723 11.486 110.938 11.486C111.153 11.7009 111.367 11.7009 111.582 12.1308C112.012 12.7756 112.227 13.4204 112.227 14.2801V19.4384Z" fill="#AFABE4" fill-opacity="0.5"/>
<path fill-rule="evenodd" clip-rule="evenodd" d="M118.674 11.9159C116.955 11.9159 116.31 12.7756 116.31 14.2801V22.6623H115.665V14.2801C115.665 12.1308 116.525 11.0562 118.674 11.0562H119.534V11.9159H118.674Z" fill="#AFABE4" fill-opacity="0.5"/>
<path fill-rule="evenodd" clip-rule="evenodd" d="M129.849 11.9159H124.691C124.262 11.9159 123.832 11.9159 123.617 11.9159C123.187 11.9159 122.972 12.1308 122.757 12.5606C122.327 12.7756 122.112 13.2054 122.112 13.4204C122.112 13.6353 121.897 14.0652 121.897 14.495V19.6533C121.897 20.513 122.327 21.1578 122.757 21.3727C122.972 21.5877 123.402 21.8026 123.617 21.8026C123.832 21.8026 124.262 22.0175 124.691 22.0175H127.055C127.915 22.0175 128.56 21.8026 128.99 21.3727C129.634 20.9429 129.849 20.2981 129.849 19.4384V11.9159ZM130.709 19.4384C130.494 21.5877 129.419 22.6623 127.055 22.6623H124.691C124.047 22.6623 123.617 22.6623 123.187 22.4474C122.757 22.4474 122.327 22.0175 122.112 21.8026C121.683 21.3727 121.468 20.9429 121.468 20.513C121.253 20.2981 121.253 19.8682 121.253 19.2235V14.495C121.253 12.1308 122.542 11.0561 124.691 11.0561H129.849V7.40234H130.709V19.4384Z" fill="#AFABE4" fill-opacity="0.5"/>
<path fill-rule="evenodd" clip-rule="evenodd" d="M3.05124 10.8417C3.26616 10.6267 3.48107 10.6267 3.69598 10.6267C4.1258 8.69237 5.8451 7.18787 7.77931 7.18787C9.92843 7.18787 11.6477 8.69237 11.8626 10.6267C12.5074 10.6267 13.1521 10.8417 13.5819 11.2715C13.5819 10.8417 13.5819 10.6267 13.5819 10.1969C13.1521 7.4028 10.7881 5.03857 7.77931 5.03857C4.77054 5.03857 2.1916 7.4028 1.97668 10.6267C1.97668 10.8417 1.97668 11.0566 1.97668 11.2715C2.40651 11.0566 2.62142 10.8417 3.05124 10.8417Z" fill="#AFABE4" fill-opacity="0.5"/>
<path fill-rule="evenodd" clip-rule="evenodd" d="M11.2168 11.272H4.33948C3.90965 11.272 3.69473 11.272 3.2649 11.4869C2.83507 11.7018 2.62016 11.7018 2.40524 11.9168C1.97541 12.5615 1.7605 13.2063 1.7605 14.281V19.6542C1.7605 20.5139 1.97541 21.3736 2.40524 21.8035C2.62016 22.0184 2.83507 22.2334 3.2649 22.4483C3.69473 22.4483 3.90965 22.6632 4.33948 22.6632H11.2168C12.9361 22.6632 13.7957 21.5886 13.7957 19.6542V14.0661C13.7957 12.1317 12.9361 11.272 11.2168 11.272Z" fill="#AFABE4" fill-opacity="0.5"/>
</svg>
