<svg width="24" height="24" viewBox="0 0 24 24" fill="none" xmlns="http://www.w3.org/2000/svg">
<path d="M22.998 15.599C22.9465 12.7487 22.6075 9.86645 22.0515 6.9573C21.5986 4.93609 19.9692 3.1359 17.3658 3.00406C15.4438 2.92555 15.0721 4.01274 12.8945 3.99184C12.2981 3.98799 11.7021 3.98799 11.1057 3.99184C8.92769 4.01274 8.55515 2.92555 6.63405 3.00406C4.03017 3.1359 2.35012 4.9314 1.94665 6.9573C1.39021 9.86645 1.05119 12.7483 1.00006 15.5985C0.987598 17.5831 2.9607 18.9032 4.26263 18.9937C6.77756 19.1823 8.77558 14.7785 10.2979 14.778C11.4327 14.7844 12.5671 14.7849 13.7019 14.778C15.2247 14.778 17.221 19.1827 19.7376 18.9941C21.0391 18.9037 23.0634 17.5745 22.9985 15.599H22.998ZM9.20268 10.0375H8.02965V11.2024C8.02965 11.6939 7.62833 12.0925 7.13334 12.0925C6.63834 12.0925 6.23702 11.6939 6.23702 11.2024V10.0375H5.06399C4.569 10.0375 4.16767 9.63902 4.16767 9.14748C4.16767 8.65594 4.569 8.25741 5.06399 8.25741H6.23702V7.09256C6.23702 6.60102 6.63834 6.20249 7.13334 6.20249C7.62833 6.20249 8.02965 6.60102 8.02965 7.09256V8.25741H9.20268C9.69768 8.25741 10.099 8.65594 10.099 9.14748C10.099 9.63902 9.69768 10.0375 9.20268 10.0375ZM16.4458 12.092C15.7442 12.1108 15.1607 11.5604 15.1417 10.864C15.1233 10.1651 15.678 9.58483 16.3792 9.56691C17.0813 9.54942 17.6657 10.0994 17.6837 10.7966C17.7014 11.4938 17.1475 12.0741 16.4458 12.092ZM18.562 8.72762C17.8603 8.74725 17.2755 8.1964 17.2562 7.49962C17.2386 6.80156 17.7925 6.22212 18.4946 6.20292C19.1975 6.18457 19.781 6.73543 19.7999 7.43263C19.8184 8.12941 19.2633 8.71013 18.562 8.72762Z" fill="#493F99"/>
</svg>
