<svg width="25" height="24" viewBox="0 0 25 24" fill="none" xmlns="http://www.w3.org/2000/svg">
<path d="M6.875 18.6H18.125C19.0193 18.5974 19.8762 18.2489 20.5085 17.6306C21.1409 17.0123 21.4973 16.1744 21.5 15.3V4.3C21.4973 3.42559 21.1409 2.58774 20.5085 1.96943C19.8762 1.35113 19.0193 1.00261 18.125 1H6.875C5.98072 1.00261 5.12382 1.35113 4.49147 1.96943C3.85911 2.58774 3.50267 3.42559 3.5 4.3V19.7C3.5 20.5752 3.85558 21.4146 4.48851 22.0335C5.12145 22.6523 5.97989 23 6.875 23H20.375C20.6734 23 20.9595 22.8841 21.1705 22.6778C21.3815 22.4715 21.5 22.1917 21.5 21.9C21.5 21.6083 21.3815 21.3285 21.1705 21.1222C20.9595 20.9159 20.6734 20.8 20.375 20.8H6.875C6.57663 20.8 6.29048 20.6841 6.0795 20.4778C5.86853 20.2715 5.75 19.9917 5.75 19.7C5.75 19.4083 5.86853 19.1285 6.0795 18.9222C6.29048 18.7159 6.57663 18.6 6.875 18.6ZM12.5 4.3C12.7225 4.3 12.94 4.36451 13.125 4.48538C13.31 4.60625 13.4542 4.77805 13.5394 4.97905C13.6245 5.18005 13.6468 5.40122 13.6034 5.6146C13.56 5.82798 13.4528 6.02398 13.2955 6.17782C13.1382 6.33166 12.9377 6.43642 12.7195 6.47886C12.5012 6.52131 12.275 6.49952 12.0695 6.41627C11.8639 6.33301 11.6882 6.19202 11.5646 6.01113C11.441 5.83023 11.375 5.61756 11.375 5.4C11.375 5.10826 11.4935 4.82847 11.7045 4.62218C11.9155 4.41589 12.2016 4.3 12.5 4.3ZM11.375 8.7C11.375 8.40826 11.4935 8.12847 11.7045 7.92218C11.9155 7.71589 12.2016 7.6 12.5 7.6C12.7984 7.6 13.0845 7.71589 13.2955 7.92218C13.5065 8.12847 13.625 8.40826 13.625 8.7V14.2C13.625 14.4917 13.5065 14.7715 13.2955 14.9778C13.0845 15.1841 12.7984 15.3 12.5 15.3C12.2016 15.3 11.9155 15.1841 11.7045 14.9778C11.4935 14.7715 11.375 14.4917 11.375 14.2V8.7Z" fill="#493F99"/>
</svg>
