<svg width="156" height="29" viewBox="0 0 156 29" fill="none" xmlns="http://www.w3.org/2000/svg">
<path d="M12.0567 2.34C13.1767 2.34 14.2067 2.48 15.1467 2.76C16.1067 3.02 17.0767 3.44 18.0567 4.02L18.7467 3.45C19.2267 3.07 19.6167 2.81 19.9167 2.67C20.2367 2.53 20.5967 2.46 20.9967 2.46C21.4767 2.46 21.8567 2.57 22.1367 2.79C22.4167 2.99 22.5567 3.29 22.5567 3.69C22.5567 3.85 22.5267 4.02 22.4667 4.2L21.2067 8.34C21.0667 8.82 20.8867 9.16 20.6667 9.36C20.4667 9.56 20.1567 9.66 19.7367 9.66C19.2967 9.66 18.9067 9.53 18.5667 9.27C18.2467 8.99 17.7367 8.43 17.0367 7.59C16.3367 6.79 15.6967 6.23 15.1167 5.91C14.5567 5.57 13.9767 5.4 13.3767 5.4C12.9367 5.4 12.5667 5.55 12.2667 5.85C11.9667 6.13 11.8167 6.48 11.8167 6.9C11.8167 7.38 12.0567 7.83 12.5367 8.25C13.0167 8.65 13.7667 9.16 14.7867 9.78C15.8267 10.4 16.6867 10.96 17.3667 11.46C18.0467 11.96 18.6267 12.58 19.1067 13.32C19.5867 14.06 19.8267 14.91 19.8267 15.87C19.8267 16.49 19.7267 17.11 19.5267 17.73C19.0467 19.33 18.1167 20.55 16.7367 21.39C15.3567 22.21 13.7467 22.62 11.9067 22.62C10.5267 22.62 9.36674 22.46 8.42674 22.14C7.48674 21.82 6.52674 21.28 5.54674 20.52L4.46674 21.42C3.96674 21.84 3.55674 22.13 3.23674 22.29C2.91674 22.43 2.55674 22.5 2.15674 22.5C1.69674 22.5 1.32674 22.39 1.04674 22.17C0.786738 21.95 0.656738 21.65 0.656738 21.27C0.656738 21.07 0.696738 20.86 0.776738 20.64L2.24674 16.17C2.40674 15.65 2.62674 15.28 2.90674 15.06C3.18674 14.84 3.54674 14.73 3.98674 14.73C4.44674 14.73 4.85674 14.89 5.21674 15.21C5.59674 15.53 6.08674 16.11 6.68674 16.95C7.32674 17.87 7.91674 18.51 8.45674 18.87C9.01674 19.23 9.67674 19.41 10.4367 19.41C10.9767 19.41 11.3867 19.33 11.6667 19.17C11.9667 18.99 12.1767 18.71 12.2967 18.33C12.3367 18.23 12.3567 18.08 12.3567 17.88C12.3567 17.4 12.1267 16.96 11.6667 16.56C11.2067 16.16 10.4967 15.68 9.53674 15.12C8.51674 14.5 7.68674 13.95 7.04674 13.47C6.40674 12.97 5.84674 12.35 5.36674 11.61C4.90674 10.87 4.67674 10 4.67674 9C4.67674 8.3 4.78674 7.61 5.00674 6.93C5.42674 5.55 6.28674 4.44 7.58674 3.6C8.88674 2.76 10.3767 2.34 12.0567 2.34Z" fill="url(#paint0_linear_2363_2421)"/>
<path d="M37.2103 6.51C38.7503 6.51 39.9603 7.02 40.8403 8.04C41.7203 9.06 42.1603 10.45 42.1603 12.21C42.1603 13.15 42.0303 14.14 41.7703 15.18C41.1703 17.66 40.0503 19.55 38.4103 20.85C36.7703 22.13 34.8703 22.77 32.7103 22.77C31.3303 22.77 30.1303 22.48 29.1103 21.9L28.1503 25.11C28.0703 25.33 28.0303 25.54 28.0303 25.74C28.0303 25.96 28.0803 26.14 28.1803 26.28C28.2803 26.44 28.4103 26.59 28.5703 26.73C28.7303 26.89 28.8303 27.02 28.8703 27.12C28.9303 27.22 28.9403 27.34 28.9003 27.48C28.8203 27.74 28.6303 27.92 28.3303 28.02C28.0303 28.14 27.5703 28.2 26.9503 28.2H20.0803C19.5603 28.2 19.1903 28.11 18.9703 27.93C18.7303 27.77 18.6603 27.56 18.7603 27.3C18.8003 27.14 18.8703 27.01 18.9703 26.91C19.0703 26.81 19.2103 26.72 19.3903 26.64C19.6903 26.44 19.9303 26.23 20.1103 26.01C20.2903 25.81 20.4503 25.48 20.5903 25.02L24.9703 10.65C25.0303 10.47 25.0603 10.32 25.0603 10.2C25.0603 9.98 25.0103 9.81 24.9103 9.69C24.8103 9.55 24.6603 9.41 24.4603 9.27C24.2603 9.11 24.1203 8.97 24.0403 8.85C23.9603 8.73 23.9503 8.57 24.0103 8.37C24.1303 7.91 24.7603 7.51 25.9003 7.17C27.0403 6.81 28.2303 6.63 29.4703 6.63C30.3503 6.63 31.0703 6.85 31.6303 7.29C32.2103 7.73 32.5403 8.34 32.6203 9.12C33.9803 7.38 35.5103 6.51 37.2103 6.51ZM33.7303 15.42C34.2103 13.64 34.4503 12.41 34.4503 11.73C34.4503 11.31 34.3803 11.04 34.2403 10.92C34.1203 10.78 33.9403 10.71 33.7003 10.71C33.5203 10.71 33.2903 10.8 33.0103 10.98C32.7303 11.14 32.4503 11.42 32.1703 11.82L29.8003 19.68C30.0403 19.92 30.3303 20.04 30.6703 20.04C31.2103 20.04 31.7203 19.74 32.2003 19.14C32.7003 18.52 33.2103 17.28 33.7303 15.42Z" fill="url(#paint1_linear_2363_2421)"/>
<path d="M50.1525 6.63C51.3125 6.63 52.1625 6.85 52.7025 7.29C53.2425 7.73 53.5125 8.33 53.5125 9.09C53.5125 9.55 53.4425 9.99 53.3025 10.41L50.5425 19.38C50.4825 19.62 50.4525 19.83 50.4525 20.01C50.4525 20.27 50.5025 20.48 50.6025 20.64C50.7025 20.78 50.8425 20.92 51.0225 21.06C51.1625 21.2 51.2625 21.32 51.3225 21.42C51.3825 21.5 51.3925 21.61 51.3525 21.75C51.2525 22.01 51.0525 22.2 50.7525 22.32C50.4525 22.44 49.9925 22.5 49.3725 22.5H42.5325C42.0125 22.5 41.6325 22.42 41.3925 22.26C41.1525 22.08 41.0725 21.85 41.1525 21.57C41.2325 21.33 41.4425 21.12 41.7825 20.94C42.0825 20.78 42.3325 20.59 42.5325 20.37C42.7325 20.15 42.9025 19.8 43.0425 19.32L45.6525 10.65C45.7125 10.47 45.7425 10.32 45.7425 10.2C45.7425 9.98 45.6925 9.81 45.5925 9.69C45.4925 9.55 45.3425 9.41 45.1425 9.27C44.9425 9.11 44.8025 8.97 44.7225 8.85C44.6425 8.73 44.6325 8.57 44.6925 8.37C44.8125 7.91 45.4425 7.51 46.5825 7.17C47.7225 6.81 48.9125 6.63 50.1525 6.63ZM52.1625 0C52.9425 0 53.5925 0.26 54.1125 0.780001C54.6325 1.28 54.8925 1.9 54.8925 2.64C54.8925 3.16 54.7525 3.67 54.4725 4.17C54.2125 4.67 53.8325 5.08 53.3325 5.4C52.8525 5.7 52.3125 5.85 51.7125 5.85C50.9525 5.85 50.3125 5.6 49.7925 5.1C49.2925 4.58 49.0325 3.94 49.0125 3.18C49.0125 2.68 49.1425 2.19 49.4025 1.71C49.6625 1.21 50.0325 0.8 50.5125 0.480001C50.9925 0.16 51.5425 0 52.1625 0Z" fill="url(#paint2_linear_2363_2421)"/>
<path d="M71.8188 18.36C71.7788 18.44 71.7589 18.56 71.7589 18.72C71.7589 18.86 71.7888 18.97 71.8488 19.05C71.9288 19.13 72.0288 19.17 72.1488 19.17C72.3888 19.17 72.5888 19.07 72.7488 18.87C72.9288 18.65 73.0489 18.54 73.1088 18.54C73.2088 18.54 73.2888 18.61 73.3488 18.75C73.4088 18.87 73.4389 19.02 73.4389 19.2C73.4588 19.78 73.2689 20.35 72.8689 20.91C72.4688 21.45 71.8788 21.9 71.0988 22.26C70.3388 22.6 69.4189 22.77 68.3389 22.77C67.0189 22.77 65.9688 22.47 65.1889 21.87C64.4089 21.25 64.0089 20.43 63.9888 19.41C63.9888 18.67 64.1688 17.84 64.5288 16.92L66.1788 12.6C66.2788 12.34 66.3288 12.13 66.3288 11.97C66.3288 11.71 66.2388 11.51 66.0588 11.37C65.8988 11.21 65.6988 11.13 65.4588 11.13C65.0188 11.13 64.5989 11.34 64.1988 11.76C63.7989 12.16 63.5089 12.66 63.3288 13.26L61.4688 19.38C61.3888 19.6 61.3488 19.81 61.3488 20.01C61.3488 20.25 61.3988 20.45 61.4988 20.61C61.5988 20.75 61.7388 20.9 61.9188 21.06C62.0588 21.18 62.1588 21.29 62.2188 21.39C62.2789 21.49 62.2888 21.61 62.2488 21.75C62.1688 22.01 61.9788 22.2 61.6788 22.32C61.3788 22.44 60.9088 22.5 60.2688 22.5H53.4288C52.9088 22.5 52.5388 22.42 52.3188 22.26C52.0788 22.08 51.9888 21.85 52.0488 21.57C52.1288 21.33 52.3388 21.12 52.6788 20.94C52.9788 20.78 53.2288 20.59 53.4288 20.37C53.6288 20.15 53.7988 19.8 53.9388 19.32L56.6088 10.65C56.6488 10.55 56.6688 10.41 56.6688 10.23C56.6688 10.01 56.6188 9.84 56.5188 9.72C56.4388 9.6 56.2988 9.45 56.0988 9.27C55.8988 9.11 55.7589 8.97 55.6788 8.85C55.5989 8.73 55.5888 8.57 55.6488 8.37C55.7688 7.91 56.3988 7.51 57.5388 7.17C58.6788 6.81 59.8688 6.63 61.1088 6.63C62.1088 6.63 62.8988 6.91 63.4788 7.47C64.0588 8.01 64.3188 8.77 64.2588 9.75C65.0788 8.57 65.9489 7.76 66.8689 7.32C67.7888 6.86 68.7888 6.63 69.8689 6.63C71.0889 6.63 72.0688 7 72.8088 7.74C73.5688 8.48 73.9489 9.44 73.9489 10.62C73.9489 11.24 73.8489 11.85 73.6488 12.45L71.8188 18.36Z" fill="url(#paint3_linear_2363_2421)"/>
<path d="M85.4335 6.63C87.7335 6.63 89.5735 7.06 90.9535 7.92C92.3335 8.76 93.0235 10.05 93.0235 11.79C93.0235 12.45 92.9035 13.2 92.6635 14.04L91.4335 18.18C91.4135 18.26 91.4035 18.36 91.4035 18.48C91.4035 18.8 91.5335 18.96 91.7935 18.96C92.0335 18.96 92.2335 18.86 92.3935 18.66C92.5735 18.44 92.6935 18.33 92.7535 18.33C92.8535 18.33 92.9335 18.4 92.9935 18.54C93.0735 18.68 93.1135 18.84 93.1135 19.02C93.1335 19.56 92.9235 20.11 92.4835 20.67C92.0635 21.23 91.4935 21.69 90.7735 22.05C90.0535 22.41 89.2635 22.59 88.4035 22.59C87.3635 22.59 86.4735 22.4 85.7335 22.02C84.9935 21.64 84.4835 21.08 84.2035 20.34C83.6035 21.06 82.8935 21.62 82.0735 22.02C81.2535 22.4 80.3735 22.59 79.4335 22.59C78.3735 22.59 77.4835 22.39 76.7635 21.99C76.0435 21.57 75.5035 21.04 75.1435 20.4C74.8035 19.74 74.6335 19.05 74.6335 18.33C74.6335 18.01 74.6635 17.7 74.7235 17.4C75.0435 16.02 75.7335 14.98 76.7935 14.28C77.8735 13.58 79.1535 13.23 80.6335 13.23C82.2935 13.23 83.9235 13.49 85.5235 14.01L86.2735 12.03C86.5335 11.19 86.6635 10.54 86.6635 10.08C86.6435 9.6 86.4835 9.24 86.1835 9C85.8835 8.76 85.4235 8.64 84.8035 8.64C84.9235 8.96 84.9835 9.29 84.9835 9.63C84.9835 10.37 84.7035 11.01 84.1435 11.55C83.5835 12.09 82.7835 12.36 81.7435 12.36C80.7635 12.36 79.9935 12.15 79.4335 11.73C78.8935 11.29 78.6235 10.75 78.6235 10.11C78.6235 9.11 79.1835 8.28 80.3035 7.62C81.4235 6.96 83.1335 6.63 85.4335 6.63ZM83.7535 15.72C83.1935 15.72 82.7335 15.94 82.3735 16.38C82.0335 16.8 81.8635 17.26 81.8635 17.76C81.8635 18.08 81.9335 18.34 82.0735 18.54C82.2335 18.74 82.4535 18.84 82.7335 18.84C82.9935 18.84 83.2735 18.74 83.5735 18.54C83.8935 18.32 84.1235 18 84.2635 17.58L84.8935 15.81C84.5535 15.75 84.1735 15.72 83.7535 15.72Z" fill="url(#paint4_linear_2363_2421)"/>
<path d="M112.922 18.36C112.882 18.44 112.862 18.56 112.862 18.72C112.862 18.86 112.892 18.97 112.952 19.05C113.032 19.13 113.132 19.17 113.252 19.17C113.492 19.17 113.692 19.07 113.852 18.87C114.032 18.65 114.152 18.54 114.212 18.54C114.312 18.54 114.392 18.61 114.452 18.75C114.512 18.87 114.542 19.02 114.542 19.2C114.562 19.78 114.372 20.35 113.972 20.91C113.572 21.45 112.982 21.9 112.202 22.26C111.442 22.6 110.522 22.77 109.442 22.77C108.122 22.77 107.072 22.47 106.292 21.87C105.512 21.25 105.112 20.43 105.092 19.41C105.092 18.67 105.272 17.84 105.632 16.92L107.282 12.6C107.382 12.34 107.432 12.13 107.432 11.97C107.432 11.71 107.342 11.51 107.162 11.37C107.002 11.21 106.802 11.13 106.562 11.13C106.122 11.13 105.702 11.34 105.302 11.76C104.902 12.16 104.612 12.66 104.432 13.26L102.572 19.38C102.492 19.6 102.452 19.81 102.452 20.01C102.452 20.25 102.502 20.45 102.602 20.61C102.702 20.75 102.842 20.9 103.022 21.06C103.162 21.18 103.262 21.29 103.322 21.39C103.382 21.49 103.392 21.61 103.352 21.75C103.272 22.01 103.082 22.2 102.782 22.32C102.482 22.44 102.012 22.5 101.372 22.5H94.5324C94.0124 22.5 93.6424 22.42 93.4224 22.26C93.1824 22.08 93.0924 21.85 93.1524 21.57C93.2324 21.33 93.4424 21.12 93.7824 20.94C94.0824 20.78 94.3324 20.59 94.5324 20.37C94.7324 20.15 94.9024 19.8 95.0424 19.32L97.7124 10.65C97.7524 10.55 97.7724 10.41 97.7724 10.23C97.7724 10.01 97.7224 9.84 97.6224 9.72C97.5424 9.6 97.4024 9.45 97.2024 9.27C97.0024 9.11 96.8624 8.97 96.7824 8.85C96.7024 8.73 96.6924 8.57 96.7524 8.37C96.8724 7.91 97.5024 7.51 98.6424 7.17C99.7824 6.81 100.972 6.63 102.212 6.63C103.212 6.63 104.002 6.91 104.582 7.47C105.162 8.01 105.422 8.77 105.362 9.75C106.182 8.57 107.052 7.76 107.972 7.32C108.892 6.86 109.892 6.63 110.972 6.63C112.192 6.63 113.172 7 113.912 7.74C114.672 8.48 115.052 9.44 115.052 10.62C115.052 11.24 114.952 11.85 114.752 12.45L112.922 18.36Z" fill="url(#paint5_linear_2363_2421)"/>
<path d="M132.597 18.18C132.557 18.34 132.537 18.45 132.537 18.51C132.537 18.65 132.577 18.76 132.657 18.84C132.737 18.92 132.837 18.96 132.957 18.96C133.197 18.96 133.397 18.86 133.557 18.66C133.737 18.44 133.857 18.33 133.917 18.33C134.017 18.33 134.097 18.4 134.157 18.54C134.217 18.68 134.247 18.84 134.247 19.02C134.267 19.56 134.057 20.11 133.617 20.67C133.197 21.23 132.627 21.69 131.907 22.05C131.187 22.41 130.407 22.59 129.567 22.59C128.567 22.59 127.697 22.4 126.957 22.02C126.217 21.64 125.707 21.14 125.427 20.52C124.887 21.22 124.267 21.74 123.567 22.08C122.867 22.42 122.127 22.59 121.347 22.59C120.427 22.59 119.567 22.36 118.767 21.9C117.987 21.44 117.357 20.79 116.877 19.95C116.417 19.09 116.187 18.12 116.187 17.04C116.187 15.22 116.527 13.51 117.207 11.91C117.907 10.29 118.877 8.99 120.117 8.01C121.357 7.01 122.767 6.51 124.347 6.51C125.207 6.51 125.937 6.61 126.537 6.81C127.157 7.01 127.717 7.31 128.217 7.71L129.237 4.35C129.297 4.17 129.327 4.02 129.327 3.9C129.327 3.68 129.267 3.5 129.147 3.36C129.047 3.22 128.907 3.08 128.727 2.94C128.527 2.78 128.377 2.64 128.277 2.52C128.197 2.4 128.187 2.24 128.247 2.04C128.367 1.58 128.997 1.18 130.137 0.84C131.277 0.500001 132.467 0.330001 133.707 0.330001C134.867 0.330001 135.717 0.550001 136.257 0.990002C136.817 1.43 137.097 2.03 137.097 2.79C137.097 3.23 137.027 3.66 136.887 4.08L132.597 18.18ZM127.587 9.75C127.267 9.47 126.917 9.33 126.537 9.33C125.957 9.33 125.387 9.76 124.827 10.62C124.267 11.48 123.817 12.52 123.477 13.74C123.137 14.96 122.977 16.06 122.997 17.04C122.997 18.14 123.357 18.69 124.077 18.69C124.337 18.69 124.557 18.59 124.737 18.39C124.917 18.17 125.087 17.82 125.247 17.34L127.587 9.75Z" fill="url(#paint6_linear_2363_2421)"/>
<path d="M147.393 6.63C150.113 6.63 152.113 7.18 153.393 8.28C154.693 9.38 155.343 10.82 155.343 12.6C155.343 13.2 155.263 13.87 155.103 14.61C154.723 16.25 154.013 17.69 152.973 18.93C151.933 20.15 150.653 21.1 149.133 21.78C147.633 22.44 146.003 22.77 144.243 22.77C141.463 22.77 139.403 22.22 138.063 21.12C136.743 20 136.083 18.52 136.083 16.68C136.083 16.06 136.163 15.37 136.323 14.61C136.703 13.05 137.423 11.67 138.483 10.47C139.563 9.25 140.873 8.31 142.413 7.65C143.973 6.97 145.633 6.63 147.393 6.63ZM147.303 9.3C146.883 9.3 146.433 9.68 145.953 10.44C145.493 11.18 144.943 12.59 144.303 14.67C143.663 16.75 143.343 18.21 143.343 19.05C143.343 19.49 143.413 19.79 143.553 19.95C143.693 20.09 143.883 20.16 144.123 20.16C144.543 20.2 144.973 19.84 145.413 19.08C145.873 18.32 146.443 16.84 147.123 14.64C147.743 12.7 148.053 11.29 148.053 10.41C148.053 9.99 147.983 9.7 147.843 9.54C147.723 9.38 147.543 9.3 147.303 9.3Z" fill="url(#paint7_linear_2363_2421)"/>
<defs>
<linearGradient id="paint0_linear_2363_2421" x1="78.7602" y1="-15.7947" x2="79.4477" y2="41.0456" gradientUnits="userSpaceOnUse">
<stop stop-color="#BB63FF"/>
<stop offset="1" stop-color="#717CFF"/>
</linearGradient>
<linearGradient id="paint1_linear_2363_2421" x1="78.7602" y1="-15.7947" x2="79.4477" y2="41.0456" gradientUnits="userSpaceOnUse">
<stop stop-color="#BB63FF"/>
<stop offset="1" stop-color="#717CFF"/>
</linearGradient>
<linearGradient id="paint2_linear_2363_2421" x1="78.7602" y1="-15.7947" x2="79.4477" y2="41.0456" gradientUnits="userSpaceOnUse">
<stop stop-color="#BB63FF"/>
<stop offset="1" stop-color="#717CFF"/>
</linearGradient>
<linearGradient id="paint3_linear_2363_2421" x1="78.7602" y1="-15.7947" x2="79.4477" y2="41.0456" gradientUnits="userSpaceOnUse">
<stop stop-color="#BB63FF"/>
<stop offset="1" stop-color="#717CFF"/>
</linearGradient>
<linearGradient id="paint4_linear_2363_2421" x1="78.7602" y1="-15.7947" x2="79.4477" y2="41.0456" gradientUnits="userSpaceOnUse">
<stop stop-color="#BB63FF"/>
<stop offset="1" stop-color="#717CFF"/>
</linearGradient>
<linearGradient id="paint5_linear_2363_2421" x1="78.7602" y1="-15.7947" x2="79.4477" y2="41.0456" gradientUnits="userSpaceOnUse">
<stop stop-color="#BB63FF"/>
<stop offset="1" stop-color="#717CFF"/>
</linearGradient>
<linearGradient id="paint6_linear_2363_2421" x1="78.7602" y1="-15.7947" x2="79.4477" y2="41.0456" gradientUnits="userSpaceOnUse">
<stop stop-color="#BB63FF"/>
<stop offset="1" stop-color="#717CFF"/>
</linearGradient>
<linearGradient id="paint7_linear_2363_2421" x1="78.7602" y1="-15.7947" x2="79.4477" y2="41.0456" gradientUnits="userSpaceOnUse">
<stop stop-color="#BB63FF"/>
<stop offset="1" stop-color="#717CFF"/>
</linearGradient>
</defs>
</svg>
