<svg width="24" height="24" viewBox="0 0 24 24" fill="none" xmlns="http://www.w3.org/2000/svg">
<path d="M19.9998 18.2012C19.9473 18.2012 19.8953 18.1909 19.8468 18.1708C19.7983 18.1508 19.7542 18.1215 19.7171 18.0845C19.68 18.0475 19.6505 18.0036 19.6304 17.9552C19.6103 17.9069 19.6 17.8551 19.6 17.8028V15.3998C19.6 15.2941 19.6421 15.1927 19.7172 15.1179C19.7922 15.0432 19.8939 15.0012 20 15.0012C20.1061 15.0012 20.2078 15.0432 20.2828 15.1179C20.3579 15.1927 20.4 15.2941 20.4 15.3998V17.8023C20.4001 17.8547 20.3897 17.9066 20.3697 17.955C20.3496 18.0034 20.3201 18.0474 20.2829 18.0845C20.2457 18.1215 20.2016 18.1509 20.153 18.1709C20.1044 18.1909 20.0523 18.2012 19.9998 18.2012Z" fill="white"/>
<path d="M19.6 4.33895V12.0643C19.5999 12.2012 19.5504 12.333 19.4616 12.4328C19.3727 12.5325 19.2512 12.5928 19.1217 12.6012H19.0904H15.6V3.80118H19.0896C19.1566 3.80107 19.2229 3.81489 19.2848 3.84186C19.3467 3.86883 19.4029 3.90842 19.4503 3.95836C19.4977 4.0083 19.5353 4.06762 19.561 4.13292C19.5867 4.19822 19.5999 4.26823 19.6 4.33895Z" fill="white"/>
<path d="M18.7127 12.6012H15.1711C15.0727 12.6012 14.9783 12.5638 14.9087 12.4972C14.8391 12.4306 14.8 12.3403 14.8 12.2461V4.15622C14.8 4.06206 14.8391 3.97175 14.9087 3.90517C14.9783 3.83858 15.0727 3.80118 15.1711 3.80118H18.7127C18.9479 3.80139 19.1734 3.89084 19.3397 4.04992C19.5061 4.209 19.5997 4.42471 19.6 4.64974V11.7506C19.5999 11.9664 19.514 12.1739 19.3598 12.3313C19.2056 12.4886 18.9946 12.584 18.7696 12.598C18.7519 12.6008 18.7325 12.6012 18.7127 12.6012ZM15.5413 11.8911H18.7222C18.7594 11.8888 18.7943 11.873 18.8198 11.847C18.8453 11.821 18.8595 11.7867 18.8595 11.751V4.65013C18.8593 4.61302 18.8437 4.5775 18.8162 4.55133C18.7887 4.52517 18.7515 4.51048 18.7127 4.51048H15.5421L15.5413 11.8911Z" fill="#1C2042"/>
<path d="M14.8 8.17445C14.8 8.17445 15.7378 7.58781 16.4 6.20117C16.4 6.20117 17.0069 7.64125 18 8.17445C18 8.17445 16.8967 9.02789 16.4 10.2012C16.4008 10.2008 15.848 8.86758 14.8 8.17445Z" fill="#A5A5A5"/>
<path d="M16.799 10.2012C16.7225 10.2009 16.6479 10.1785 16.5846 10.1369C16.5213 10.0952 16.4723 10.0362 16.4439 9.96736C16.4386 9.95528 15.9139 8.71018 14.9674 8.08198C14.9152 8.04741 14.8727 8.00088 14.8435 7.94653C14.8143 7.89218 14.7993 7.83168 14.8 7.7704C14.8007 7.70911 14.817 7.64894 14.8473 7.59521C14.8777 7.54147 14.9213 7.49584 14.9742 7.46236C14.9875 7.45378 15.8448 6.893 16.4515 5.61789C16.4828 5.55189 16.5334 5.49622 16.5969 5.45773C16.6605 5.41925 16.7342 5.39962 16.8091 5.40128C16.884 5.40294 16.9568 5.4258 17.0184 5.46706C17.0801 5.50832 17.128 5.56616 17.1562 5.63348C17.1618 5.64673 17.7323 6.97951 18.6025 7.44872C18.6576 7.47841 18.7043 7.52081 18.7385 7.57216C18.7727 7.6235 18.7934 7.68223 18.7987 7.74315C18.8039 7.80408 18.7937 7.86532 18.7688 7.92149C18.7439 7.97766 18.7051 8.02702 18.6559 8.06522C18.6459 8.07302 17.6114 8.88789 17.1554 9.9697C17.1264 10.0383 17.0771 10.0969 17.0136 10.1382C16.9501 10.1794 16.8754 10.2014 16.799 10.2012ZM15.7946 7.771C16.2386 8.1607 16.5748 8.63224 16.8022 9.00947C17.0853 8.57283 17.4209 8.17031 17.8018 7.81036C17.3631 7.44988 17.0204 6.96899 16.789 6.58163C16.5154 7.0206 16.1808 7.42095 15.7946 7.77139V7.771Z" fill="#1C2042"/>
<path d="M8.4 3.80118V12.6012H4.9084C4.84143 12.6009 4.77518 12.5864 4.71358 12.5586C4.62072 12.5178 4.54137 12.4488 4.48555 12.3604C4.42974 12.2719 4.39997 12.1679 4.4 12.0615V4.33915C4.4 4.2685 4.41315 4.19854 4.4387 4.13327C4.46425 4.068 4.5017 4.0087 4.54891 3.95874C4.59612 3.90879 4.65216 3.86916 4.71385 3.84213C4.77553 3.81509 4.84164 3.80118 4.9084 3.80118H8.4Z" fill="white"/>
<path d="M8.83187 12.6012H5.28392C5.16784 12.6012 5.0529 12.5793 4.94566 12.5367C4.83842 12.4942 4.74098 12.4318 4.6589 12.3531C4.57682 12.2745 4.51171 12.1811 4.46729 12.0784C4.42286 11.9757 4.4 11.8655 4.4 11.7543V4.64803C4.40033 4.42352 4.49356 4.2083 4.65925 4.04956C4.82495 3.89081 5.04959 3.80149 5.28392 3.80118H8.83187C8.92951 3.80118 9.02314 3.83834 9.09218 3.90448C9.16122 3.97062 9.2 4.06033 9.2 4.15387V12.2501C9.19957 12.3433 9.16059 12.4326 9.0916 12.4984C9.02261 12.5642 8.92922 12.6012 8.83187 12.6012ZM5.28392 4.50499C5.26432 4.50499 5.2449 4.50869 5.22679 4.51588C5.20867 4.52307 5.19222 4.5336 5.17835 4.54688C5.16449 4.56017 5.15349 4.57593 5.14599 4.59329C5.13849 4.61064 5.13462 4.62924 5.13462 4.64803V11.7543C5.13458 11.7826 5.1433 11.8103 5.15969 11.8338C5.17607 11.8573 5.19938 11.8756 5.22666 11.8864C5.24476 11.8938 5.26425 11.8975 5.28392 11.8974H8.46456V4.50499H5.28392Z" fill="#1C2042"/>
<path d="M9.04927 9.25038C9.12413 9.57347 9.0383 9.91459 9.21781 10.2012H7.53247C7.53247 10.2012 7.61556 9.82627 7.7594 9.27471C7.82956 9.00434 7.74098 8.74613 7.49837 8.77092C7.07939 8.81373 6.73997 8.45548 6.80895 7.7381C6.91477 6.64309 8.29401 5.49041 8.39552 5.40659V5.40118L8.39905 5.40389L8.40218 5.40118V5.40659C8.50369 5.49041 9.88293 6.64309 9.98875 7.7381C10.0609 8.48252 9.78024 8.83806 9.32245 8.75875C9.08337 8.71729 8.98617 8.9791 9.04927 9.25038Z" fill="#A5A5A5"/>
<path d="M8.82868 10.2012H7.12154C7.0637 10.2012 7.00662 10.1885 6.95465 10.1641C6.90269 10.1397 6.85721 10.1041 6.8217 10.0602C6.7862 10.0163 6.76159 9.9651 6.74977 9.91062C6.73796 9.85614 6.73924 9.79978 6.75351 9.74585C6.75709 9.73286 6.8357 9.43567 6.97346 8.99104C6.72266 8.9843 6.48432 8.88436 6.30847 8.71218C6.07026 8.47649 5.96347 8.12009 6.01111 7.70793C6.12664 6.70673 7.37007 5.75977 7.72658 5.50804C7.77885 5.45775 7.84525 5.42326 7.91761 5.4088C7.98998 5.39434 8.06517 5.40056 8.13391 5.42667C8.14424 5.43049 8.15456 5.43469 8.16488 5.43928C8.19742 5.45426 8.22762 5.47354 8.2546 5.49658C8.58809 5.73036 9.86884 6.69068 9.98636 7.70754C10.0531 8.28473 9.86249 8.59491 9.69098 8.75382C9.60358 8.8328 9.50062 8.89415 9.38819 8.93424C9.27575 8.97432 9.1561 8.99234 9.03631 8.98722C9.05945 9.09811 9.07273 9.21069 9.07601 9.32375C9.08395 9.47349 9.09031 9.56135 9.13636 9.62209C9.17732 9.67661 9.20183 9.74096 9.20718 9.80804C9.21253 9.87512 9.19852 9.94232 9.16669 10.0022C9.13487 10.0621 9.08646 10.1124 9.02681 10.1475C8.96717 10.1826 8.8986 10.2012 8.82868 10.2012ZM7.62018 9.47082H8.32487C8.3221 9.43262 8.32011 9.39442 8.31813 9.36042C8.31716 9.28095 8.30812 9.20175 8.29113 9.12397C8.21927 8.8646 8.27088 8.6079 8.42968 8.43638C8.49988 8.36216 8.58846 8.30624 8.68718 8.27385C8.78589 8.24145 8.89153 8.23363 8.99423 8.25112C9.0514 8.25952 9.12763 8.26181 9.16614 8.22629C9.21536 8.18083 9.26221 8.03873 9.23323 7.78738C9.17169 7.25259 8.48884 6.60321 8.00012 6.22694C7.5114 6.60435 6.82855 7.25412 6.76701 7.78738C6.74557 7.97494 6.77654 8.12544 6.85277 8.20031C6.87948 8.22428 6.91156 8.24201 6.94653 8.25215C6.9815 8.26228 7.01842 8.26454 7.05445 8.25876C7.15752 8.24755 7.26188 8.26116 7.35813 8.29837C7.45438 8.33557 7.53952 8.39521 7.60589 8.47191C7.75358 8.64648 7.79487 8.90165 7.71626 9.15453C7.68053 9.27027 7.64837 9.37646 7.62018 9.47082Z" fill="#1C2042"/>
<path d="M22 12.6012C22 17.9039 17.5224 22.2012 12 22.2012C6.47761 22.2012 2 17.9039 2 12.6012H8.51176V12.9326C8.51176 13.1116 8.58581 13.2832 8.71762 13.4098C8.84944 13.5363 9.02821 13.6074 9.21462 13.6074H14.9417C15.1281 13.6074 15.3068 13.5363 15.4387 13.4098C15.5705 13.2832 15.6445 13.1116 15.6445 12.9326V12.6012H22Z" fill="#38C689"/>
<path d="M11.9996 22.2012C9.34754 22.2012 6.8041 21.1434 4.92882 19.2606C3.05353 17.3778 2 14.8241 2 12.1614C2 12.0659 2.0378 11.9742 2.10508 11.9067C2.17236 11.8391 2.26362 11.8012 2.35877 11.8012H8.63637C8.73152 11.8012 8.82277 11.8391 8.89006 11.9067C8.95734 11.9742 8.99514 12.0659 8.99514 12.1614V12.4956C8.99514 12.5805 9.02874 12.6619 9.08854 12.722C9.14835 12.782 9.22946 12.8158 9.31404 12.8158H14.8358C14.9204 12.8158 15.0015 12.782 15.0613 12.722C15.1211 12.6619 15.1547 12.5805 15.1547 12.4956V12.1614C15.1547 12.0659 15.1925 11.9742 15.2598 11.9067C15.3271 11.8391 15.4184 11.8012 15.5135 11.8012H21.6412C21.7364 11.8012 21.8276 11.8391 21.8949 11.9067C21.9622 11.9742 22 12.0659 22 12.1614C22 13.4799 21.7413 14.7855 21.2387 16.0036C20.7362 17.2218 19.9995 18.3286 19.0709 19.2609C18.1423 20.1932 17.0398 20.9327 15.8265 21.4372C14.6132 21.9417 13.3128 22.2013 11.9996 22.2012ZM2.72271 12.5208C2.91087 17.4945 7.0008 21.4808 11.9996 21.4808C16.9984 21.4808 21.0883 17.4945 21.2765 12.5208H15.8699C15.8627 12.7915 15.7507 13.0488 15.5576 13.238C15.3645 13.4271 15.1056 13.5332 14.8358 13.5338H9.31284C9.04301 13.5334 8.78398 13.4273 8.59081 13.2381C8.39764 13.049 8.28556 12.7916 8.2784 12.5208H2.72271Z" fill="#1C2042"/>
<path d="M14.8906 2.20117H9.10936C8.92123 2.20117 8.7408 2.27346 8.60777 2.40213C8.47474 2.53081 8.4 2.70533 8.4 2.8873V12.715C8.4 12.897 8.47474 13.0715 8.60777 13.2002C8.7408 13.3289 8.92123 13.4012 9.10936 13.4012H14.8906C15.0788 13.4012 15.2592 13.3289 15.3922 13.2002C15.5253 13.0715 15.6 12.897 15.6 12.715V2.88488C15.5993 2.70332 15.5243 2.52943 15.3914 2.40128C15.2584 2.27313 15.0783 2.20117 14.8906 2.20117Z" fill="white"/>
<path d="M14.6192 13.4012H9.38268C9.12245 13.4012 8.87284 13.2903 8.68862 13.0927C8.5044 12.8952 8.4006 12.6272 8.4 12.3476V2.4548C8.4006 2.17514 8.5044 1.90715 8.68862 1.70963C8.87284 1.51211 9.12245 1.40118 9.38268 1.40118H14.6192C14.8791 1.40172 15.1282 1.51289 15.3121 1.71035C15.4959 1.90781 15.5994 2.17549 15.6 2.4548V12.3476C15.5994 12.6269 15.4959 12.8946 15.3121 13.092C15.1282 13.2895 14.8791 13.4006 14.6192 13.4012ZM9.38268 2.1323C9.30249 2.1323 9.22558 2.16653 9.16888 2.22747C9.11217 2.28841 9.08032 2.37106 9.08032 2.45724V12.3476C9.08032 12.4337 9.11217 12.5164 9.16888 12.5773C9.22558 12.6383 9.30249 12.6725 9.38268 12.6725H14.6192C14.6994 12.6725 14.7763 12.6383 14.833 12.5773C14.8897 12.5164 14.9216 12.4337 14.9216 12.3476V2.4548C14.9216 2.36862 14.8897 2.28597 14.833 2.22503C14.7763 2.16409 14.6994 2.12986 14.6192 2.12986L9.38268 2.1323Z" fill="#1C2042"/>
<path d="M12 6.54621C11.3168 5.89495 9.87926 6.19892 10.0081 7.17799C10.1304 8.11296 11.5324 9.09084 11.9888 9.38647V9.40117L12 9.39362L12.0112 9.40117V9.38647C12.4676 9.09084 13.8696 8.11495 13.9919 7.17799C14.1207 6.19892 12.6832 5.89535 12 6.54621Z" fill="#FF5368"/>
<path d="M12.0093 9.40078H12C11.9452 9.40227 11.8908 9.39018 11.8413 9.36549C11.7918 9.3408 11.7485 9.3042 11.7151 9.25867C11.1909 8.8287 10.1173 7.83234 10.0085 6.80471C9.9485 6.23629 10.2091 5.74623 10.6891 5.52211C10.8997 5.42555 11.13 5.38581 11.3589 5.40652C11.5879 5.42723 11.8083 5.50773 12 5.64067C12.1917 5.50773 12.4121 5.42723 12.6411 5.40652C12.87 5.38581 13.1003 5.42555 13.3109 5.52211C13.7909 5.74623 14.0515 6.23792 13.9915 6.80512C13.8827 7.83315 12.8091 8.82911 12.2849 9.25908C12.2524 9.30328 12.2106 9.33907 12.1629 9.3637C12.1151 9.38834 12.0625 9.40116 12.0093 9.40118V9.40078ZM11.2381 6.13114C11.1465 6.13051 11.0558 6.14987 10.9717 6.18798C10.8285 6.25497 10.6651 6.40195 10.7007 6.72392C10.7627 7.30777 11.3806 8.02723 12.0012 8.56357C12.6206 8.02763 13.24 7.30817 13.3016 6.72432C13.3357 6.40235 13.1723 6.25497 13.0306 6.18838C12.9007 6.1299 12.7567 6.1152 12.6186 6.14634C12.4804 6.17747 12.3549 6.25289 12.2594 6.36216C12.2267 6.4005 12.1867 6.43118 12.1419 6.45218C12.0971 6.47319 12.0487 6.48404 11.9996 6.48404C11.9506 6.48404 11.9021 6.47319 11.8573 6.45218C11.8126 6.43118 11.7725 6.4005 11.7398 6.36216C11.6766 6.28853 11.5992 6.22984 11.5127 6.19001C11.4262 6.15018 11.3326 6.13011 11.2381 6.13114Z" fill="#1C2042"/>
<path d="M12.2425 16.6012H10.9575C10.8705 16.6012 10.8 16.6888 10.8 16.797V19.6054C10.8 19.7135 10.8705 19.8012 10.9575 19.8012H12.2425C12.3295 19.8012 12.4 19.7135 12.4 19.6054V16.797C12.4 16.6888 12.3295 16.6012 12.2425 16.6012Z" fill="#FCBE22"/>
<path d="M12.7029 20.6012H11.2972C11.1653 20.6011 11.0389 20.5406 10.9457 20.433C10.8525 20.3254 10.8001 20.1795 10.8 20.0273V17.175C10.8001 17.0229 10.8525 16.877 10.9457 16.7694C11.0389 16.6618 11.1653 16.6013 11.2972 16.6012H12.7029C12.8347 16.6013 12.9611 16.6618 13.0543 16.7694C13.1475 16.877 13.1999 17.0229 13.2 17.175V20.0273C13.1999 20.1795 13.1475 20.3254 13.0543 20.433C12.9611 20.5406 12.8347 20.6011 12.7029 20.6012ZM11.4498 19.8494H12.5505V17.3517H11.4506L11.4498 19.8494Z" fill="#1C2042"/>
<path d="M15.9073 14.3455L14.6491 15.4277C14.564 15.5009 14.5544 15.6292 14.6276 15.7143L16.53 17.926C16.6032 18.0112 16.7315 18.0208 16.8166 17.9476L18.0748 16.8654C18.1599 16.7922 18.1695 16.6639 18.0963 16.5788L16.1939 14.367C16.1207 14.2819 15.9924 14.2723 15.9073 14.3455Z" fill="#FF5368"/>
<path d="M16.7609 18.2012C16.6703 18.2013 16.5806 18.1856 16.4982 18.155C16.4157 18.1245 16.3425 18.0799 16.2834 18.0243L14.1517 16.0206C14.0431 15.9183 13.9892 15.7854 14.0018 15.651C14.0144 15.5166 14.0924 15.3917 14.2187 15.3038L15.6294 14.3238C15.756 14.236 15.9205 14.1925 16.0869 14.2026C16.2532 14.2128 16.4077 14.2758 16.5166 14.3779L18.6483 16.3816C18.7569 16.4839 18.8108 16.6168 18.7982 16.7512C18.7856 16.8856 18.7076 17.0105 18.5813 17.0984L17.1706 18.0784C17.0567 18.1578 16.9113 18.2014 16.7609 18.2012ZM14.8736 15.7044L16.7797 17.4959L17.9269 16.6996L16.0203 14.9071L14.8736 15.7044Z" fill="#1C2042"/>
<path d="M5.73975 16.8765L6.99788 17.9587C7.08299 18.0319 7.21132 18.0223 7.28452 17.9372L9.18695 15.7254C9.26015 15.6403 9.2505 15.512 9.1654 15.4388L7.90726 14.3566C7.82216 14.2834 7.69382 14.293 7.62062 14.3782L5.7182 16.5899C5.64499 16.675 5.65464 16.8033 5.73975 16.8765Z" fill="#2EC4FF"/>
<path d="M6.89834 18.2012C6.77305 18.2014 6.65187 18.1578 6.55701 18.0784L5.38225 17.0987C5.27696 17.0107 5.21196 16.8858 5.20149 16.7514C5.19102 16.617 5.23595 16.4841 5.32642 16.3818L7.10269 14.3779C7.19341 14.2758 7.32219 14.2128 7.46077 14.2026C7.59936 14.1925 7.73644 14.236 7.84194 14.3238L9.01744 15.3039C9.06966 15.3474 9.11253 15.4004 9.1436 15.46C9.17466 15.5196 9.19332 15.5845 9.19851 15.6511C9.20369 15.7177 9.1953 15.7846 9.17381 15.848C9.15233 15.9115 9.11816 15.9702 9.07327 16.0208L7.297 18.0246C7.24767 18.0803 7.18648 18.1249 7.11765 18.1554C7.04883 18.1858 6.974 18.2015 6.89834 18.2012ZM5.92682 16.6994L6.88345 17.4969L8.47175 15.7042L7.51512 14.9068L5.92682 16.6994Z" fill="#1C2042"/>
<path d="M20.0764 14.2012H18.3236C18.2378 14.2012 18.1555 14.159 18.0948 14.084C18.0341 14.009 18 13.9073 18 13.8012C18 13.6951 18.0341 13.5934 18.0948 13.5183C18.1555 13.4433 18.2378 13.4012 18.3236 13.4012H20.0764C20.1622 13.4012 20.2445 13.4433 20.3052 13.5183C20.3659 13.5934 20.4 13.6951 20.4 13.8012C20.4 13.9073 20.3659 14.009 20.3052 14.084C20.2445 14.159 20.1622 14.2012 20.0764 14.2012Z" fill="white"/>
</svg>
