<svg width="24" height="24" viewBox="0 0 24 24" fill="none" xmlns="http://www.w3.org/2000/svg">
<path d="M6.85163 7.95793C4.46895 6.94155 4.56559 4.38891 4.80219 3.05927C4.82505 2.92087 4.75879 2.78297 4.63644 2.71433C4.5141 2.6457 4.36187 2.66104 4.25567 2.75269C2.98197 3.88188 2.27823 5.52029 2.3362 7.22147C2.3362 9.75078 3.12931 11.327 3.61918 12.0601L6.85163 7.95793Z" fill="#FFE0B2"/>
<path d="M20.3809 12.0601C20.8708 11.327 21.6639 9.75078 21.6639 7.22147C21.7219 5.52029 21.0181 3.88188 19.7444 2.75269C19.6383 2.66104 19.486 2.6457 19.3637 2.71433C19.2413 2.78297 19.1751 2.92087 19.1979 3.05927C19.4345 4.38891 19.5312 6.94155 17.1485 7.95793L20.3809 12.0601Z" fill="#FFE0B2"/>
<path d="M19.7445 2.75269C19.6383 2.66104 19.4861 2.6457 19.3637 2.71433C19.2414 2.78297 19.1751 2.92087 19.198 3.05927C19.2073 3.11159 19.216 3.16924 19.2246 3.22589C20.191 4.32867 20.7052 5.75576 20.6642 7.22147C20.6935 8.63698 20.3981 10.0404 19.8008 11.324L20.381 12.0601C20.8709 11.327 21.664 9.75078 21.664 7.22147C21.7219 5.52029 21.0182 3.88188 19.7445 2.75269Z" fill="#DFC49C"/>
<path d="M13.6664 6.49181C17.9178 7.29297 20.9972 11.0064 20.9977 15.3327V15.666H3.00262V15.3327C3.0031 11.0064 6.08249 7.29297 10.3339 6.49181H13.6664Z" fill="#A0522D"/>
<path d="M13.6664 6.49181H12.6666C16.9181 7.29297 19.9975 11.0064 19.998 15.3327V15.666H20.9977V15.3327C20.9972 11.0064 17.9178 7.29297 13.6664 6.49181Z" fill="#783E22"/>
<path d="M13.1032 18.9983H20.9977C21.3653 18.9972 21.6631 18.6995 21.6642 18.3318V16.3324C21.6631 15.9647 21.3653 15.667 20.9977 15.6659H3.00262C2.63499 15.667 2.33723 15.9647 2.33614 16.3324V18.3318C2.33723 18.6995 2.63499 18.9972 3.00262 18.9983H13.1032Z" fill="#FFDF00"/>
<path d="M20.9977 15.6659H19.998C20.3656 15.667 20.6634 15.9647 20.6645 16.3324V18.3318C20.6634 18.6995 20.3656 18.9972 19.998 18.9983H20.9977C21.3653 18.9972 21.6631 18.6995 21.6642 18.3318V16.3324C21.6631 15.9647 21.3653 15.667 20.9977 15.6659Z" fill="#FEC108"/>
<path d="M13.1032 15.6659H13.6664V6.00187L12.0002 5.33539L10.3339 6.00187V15.6659H10.8971H13.1032Z" fill="#FFDF00"/>
<path d="M12.0002 5.33539L11.5003 5.53533L12.6666 6.00187V15.6659H13.1032H13.6664V6.00187L12.0002 5.33539Z" fill="#FEC108"/>
<path d="M13.1032 18.9983H13.6664V20.3313L12.0002 21.331L10.3339 20.3313V18.9983H10.8971H13.1032Z" fill="#FFDF00"/>
<path d="M13.1032 18.9983H12.6666V20.3313L11.5003 21.0311L12.0002 21.331L13.6664 20.3313V18.9983H13.1032Z" fill="#FEC108"/>
<path d="M12.0002 19.3315C13.1044 19.3315 13.9996 18.4364 13.9996 17.3321C13.9996 16.2278 13.1044 15.3326 12.0002 15.3326C10.8959 15.3326 10.0007 16.2278 10.0007 17.3321C10.0007 18.4364 10.8959 19.3315 12.0002 19.3315Z" fill="#FFEB3A"/>
<path d="M12.0002 15.3326C11.8314 15.3336 11.6634 15.356 11.5003 15.3993C12.3827 15.6263 12.9995 16.4219 12.9995 17.3331C12.9995 18.2443 12.3827 19.0399 11.5003 19.2669C12.2512 19.4626 13.0474 19.2062 13.5431 18.6092C14.0387 18.0122 14.1441 17.1823 13.8135 16.4803C13.483 15.7783 12.7761 15.3309 12.0002 15.3326Z" fill="#FDD834"/>
<path d="M16.3323 17.9986C16.7004 17.9986 16.9988 17.7002 16.9988 17.3321C16.9988 16.964 16.7004 16.6656 16.3323 16.6656C15.9642 16.6656 15.6658 16.964 15.6658 17.3321C15.6658 17.7002 15.9642 17.9986 16.3323 17.9986Z" fill="#FF9801"/>
<path d="M12.0002 13.6664C12.3682 13.6664 12.6666 13.368 12.6666 13C12.6666 12.6319 12.3682 12.3335 12.0002 12.3335C11.6321 12.3335 11.3337 12.6319 11.3337 13C11.3337 13.368 11.6321 13.6664 12.0002 13.6664Z" fill="#FF9801"/>
<path d="M12.0002 11.0005C12.3682 11.0005 12.6666 10.7021 12.6666 10.334C12.6666 9.96592 12.3682 9.66753 12.0002 9.66753C11.6321 9.66753 11.3337 9.96592 11.3337 10.334C11.3337 10.7021 11.6321 11.0005 12.0002 11.0005Z" fill="#FF9801"/>
<path d="M12.0002 8.33456C12.3682 8.33456 12.6666 8.03616 12.6666 7.66807C12.6666 7.29998 12.3682 7.00159 12.0002 7.00159C11.6321 7.00159 11.3337 7.29998 11.3337 7.66807C11.3337 8.03616 11.6321 8.33456 12.0002 8.33456Z" fill="#FF9801"/>
<path d="M19.3315 17.9986C19.6996 17.9986 19.998 17.7002 19.998 17.3321C19.998 16.964 19.6996 16.6656 19.3315 16.6656C18.9634 16.6656 18.665 16.964 18.665 17.3321C18.665 17.7002 18.9634 17.9986 19.3315 17.9986Z" fill="#FF9801"/>
<path d="M4.66883 17.9986C5.03692 17.9986 5.33531 17.7002 5.33531 17.3321C5.33531 16.964 5.03692 16.6656 4.66883 16.6656C4.30074 16.6656 4.00234 16.964 4.00234 17.3321C4.00234 17.7002 4.30074 17.9986 4.66883 17.9986Z" fill="#FF9801"/>
<path d="M7.66801 17.9986C8.0361 17.9986 8.33449 17.7002 8.33449 17.3321C8.33449 16.964 8.0361 16.6656 7.66801 16.6656C7.29992 16.6656 7.00153 16.964 7.00153 17.3321C7.00153 17.7002 7.29992 17.9986 7.66801 17.9986Z" fill="#FF9801"/>
<path d="M19.9644 2.50282C19.7517 2.31802 19.4458 2.28691 19.2003 2.42511C18.9548 2.56331 18.8227 2.84097 18.8703 3.11865C19.0956 4.38497 19.1589 6.61303 17.1735 7.57543C16.2091 6.93144 15.1324 6.4743 13.9993 6.2278V6.00186C13.9994 5.8655 13.9164 5.74287 13.7897 5.69228L12.1235 5.02579C12.0441 4.99445 11.9557 4.99445 11.8763 5.02579L10.21 5.69228C10.0834 5.74287 10.0004 5.8655 10.0004 6.00186V6.2278C8.86764 6.47407 7.79117 6.93086 6.82697 7.57443C4.84151 6.61203 4.90482 4.38397 5.12976 3.11931C5.17819 2.84168 5.04675 2.5636 4.8015 2.42478C4.55624 2.28596 4.25017 2.3164 4.03706 2.50082C2.6929 3.69518 1.94774 5.42423 2.00262 7.22153C2.00262 9.68919 2.74275 11.2931 3.24728 12.1002C2.86461 13.1349 2.66884 14.2294 2.6691 15.3326V15.394C2.27109 15.5347 2.00437 15.9102 2.00262 16.3324V18.3318C2.00262 18.884 2.45021 19.3316 3.00234 19.3316H10.0004V20.3313C10.0005 20.4482 10.0618 20.5566 10.1621 20.6169L11.8283 21.6166C11.9339 21.68 12.0659 21.68 12.1715 21.6166L13.8377 20.6169C13.938 20.5566 13.9993 20.4482 13.9993 20.3313V19.3316H20.9974C21.5496 19.3316 21.9972 18.884 21.9972 18.3318V16.3324C21.9954 15.9102 21.7287 15.5347 21.3307 15.394V15.3326C21.3309 14.2294 21.1352 13.1349 20.7525 12.1002C21.257 11.2927 21.9972 9.68919 21.9972 7.22153C22.0522 5.42513 21.3076 3.69684 19.9644 2.50282ZM20.6642 15.3326H13.9993V6.91128C17.9045 7.83396 20.6634 11.3199 20.6642 15.3326ZM10.3337 17.3321C10.3337 16.4119 11.0797 15.6659 11.9999 15.6659C12.9201 15.6659 13.6661 16.4119 13.6661 17.3321C13.6661 18.2523 12.9201 18.9983 11.9999 18.9983C11.0801 18.9972 10.3348 18.2519 10.3337 17.3321ZM10.6669 6.22747L11.9999 5.69428L13.3329 6.22747V15.3326H13.1952C12.4603 14.8883 11.5395 14.8883 10.8045 15.3326H10.6669V6.22747ZM10.0004 15.3326H3.33559C3.33637 11.3199 6.09523 7.83396 10.0004 6.91128V15.3326ZM2.6691 7.22153C2.61687 5.61747 3.27775 4.07265 4.47394 3.00268C4.274 4.12537 4.08038 6.74299 6.2248 8.01398C5.09891 8.90103 4.19202 10.035 3.57419 11.3284C2.94597 10.0524 2.63545 8.64342 2.6691 7.22153ZM2.6691 18.3318V16.3324C2.6691 16.1483 2.8183 15.9991 3.00234 15.9991H10.0884C9.52677 16.799 9.52677 17.8652 10.0884 18.6651H3.00234C2.8183 18.6651 2.6691 18.5159 2.6691 18.3318ZM13.3329 20.1427L11.9999 20.9424L10.6669 20.1427V19.3316H10.8045C11.5395 19.7759 12.4603 19.7759 13.1952 19.3316H13.3329V20.1427ZM21.3307 18.3318C21.3307 18.5159 21.1815 18.6651 20.9974 18.6651H13.9114C14.473 17.8652 14.473 16.799 13.9114 15.9991H20.9974C21.1815 15.9991 21.3307 16.1483 21.3307 16.3324V18.3318ZM17.775 8.01231C19.9194 6.74132 19.7258 4.12404 19.5265 3.00468C20.7235 4.07319 21.3844 5.61791 21.3307 7.22153C21.364 8.64286 21.0535 10.0512 20.4256 11.3267C19.8078 10.0334 18.9009 8.89937 17.775 8.01231Z" fill="#1C2042"/>
<path d="M16.3323 16.3324C15.7802 16.3324 15.3326 16.78 15.3326 17.3321C15.3326 17.8842 15.7802 18.3318 16.3323 18.3318C16.8844 18.3318 17.332 17.8842 17.332 17.3321C17.332 16.78 16.8844 16.3324 16.3323 16.3324ZM16.3323 17.6654C16.1483 17.6654 15.9991 17.5162 15.9991 17.3321C15.9991 17.1481 16.1483 16.9989 16.3323 16.9989C16.5164 16.9989 16.6655 17.1481 16.6655 17.3321C16.6655 17.5162 16.5164 17.6654 16.3323 17.6654Z" fill="#1C2042"/>
<path d="M12.0002 13.9997C12.5523 13.9997 12.9999 13.5521 12.9999 13C12.9999 12.4478 12.5523 12.0002 12.0002 12.0002C11.448 12.0002 11.0004 12.4478 11.0004 13C11.0004 13.5521 11.448 13.9997 12.0002 13.9997ZM12.0002 12.6667C12.1842 12.6667 12.3334 12.8159 12.3334 13C12.3334 13.184 12.1842 13.3332 12.0002 13.3332C11.8161 13.3332 11.6669 13.184 11.6669 13C11.6669 12.8159 11.8161 12.6667 12.0002 12.6667Z" fill="#1C2042"/>
<path d="M12.0002 11.3337C12.5523 11.3337 12.9999 10.8862 12.9999 10.334C12.9999 9.78188 12.5523 9.33429 12.0002 9.33429C11.448 9.33429 11.0004 9.78188 11.0004 10.334C11.0004 10.8862 11.448 11.3337 12.0002 11.3337ZM12.0002 10.0008C12.1842 10.0008 12.3334 10.15 12.3334 10.334C12.3334 10.5181 12.1842 10.6673 12.0002 10.6673C11.8161 10.6673 11.6669 10.5181 11.6669 10.334C11.6669 10.15 11.8161 10.0008 12.0002 10.0008Z" fill="#1C2042"/>
<path d="M12.0002 8.6678C12.5523 8.6678 12.9999 8.22021 12.9999 7.66808C12.9999 7.11594 12.5523 6.66835 12.0002 6.66835C11.448 6.66835 11.0004 7.11594 11.0004 7.66808C11.0004 8.22021 11.448 8.6678 12.0002 8.6678ZM12.0002 7.33483C12.1842 7.33483 12.3334 7.48403 12.3334 7.66808C12.3334 7.85212 12.1842 8.00132 12.0002 8.00132C11.8161 8.00132 11.6669 7.85212 11.6669 7.66808C11.6669 7.48403 11.8161 7.33483 12.0002 7.33483Z" fill="#1C2042"/>
<path d="M19.3315 16.3324C18.7793 16.3324 18.3318 16.78 18.3318 17.3321C18.3318 17.8842 18.7793 18.3318 19.3315 18.3318C19.8836 18.3318 20.3312 17.8842 20.3312 17.3321C20.3312 16.78 19.8836 16.3324 19.3315 16.3324ZM19.3315 17.6654C19.1474 17.6654 18.9982 17.5162 18.9982 17.3321C18.9982 17.1481 19.1474 16.9989 19.3315 16.9989C19.5155 16.9989 19.6647 17.1481 19.6647 17.3321C19.6647 17.5162 19.5155 17.6654 19.3315 17.6654Z" fill="#1C2042"/>
<path d="M4.66883 16.3324C4.1167 16.3324 3.66911 16.78 3.66911 17.3321C3.66911 17.8842 4.1167 18.3318 4.66883 18.3318C5.22097 18.3318 5.66856 17.8842 5.66856 17.3321C5.66856 16.78 5.22097 16.3324 4.66883 16.3324ZM4.66883 17.6654C4.48479 17.6654 4.33559 17.5162 4.33559 17.3321C4.33559 17.1481 4.48479 16.9989 4.66883 16.9989C4.85288 16.9989 5.00207 17.1481 5.00207 17.3321C5.00207 17.5162 4.85288 17.6654 4.66883 17.6654Z" fill="#1C2042"/>
<path d="M7.66801 16.3324C7.11587 16.3324 6.66828 16.78 6.66828 17.3321C6.66828 17.8842 7.11587 18.3318 7.66801 18.3318C8.22014 18.3318 8.66774 17.8842 8.66774 17.3321C8.66774 16.78 8.22014 16.3324 7.66801 16.3324ZM7.66801 17.6654C7.48396 17.6654 7.33477 17.5162 7.33477 17.3321C7.33477 17.1481 7.48396 16.9989 7.66801 16.9989C7.85205 16.9989 8.00125 17.1481 8.00125 17.3321C8.00125 17.5162 7.85205 17.6654 7.66801 17.6654Z" fill="#1C2042"/>
</svg>
