<svg width="24" height="24" viewBox="0 0 24 24" fill="none" xmlns="http://www.w3.org/2000/svg">
<path d="M12 21.5338C17.5228 21.5338 22 17.2357 22 11.9338C22 6.63185 17.5228 2.33379 12 2.33379C6.47715 2.33379 2 6.63185 2 11.9338C2 17.2357 6.47715 21.5338 12 21.5338Z" fill="#FF5368"/>
<path d="M18.2261 4.7338C17.8114 5.17946 17.8276 5.86193 18.2749 6.28895C19.9104 7.85012 20.8111 9.92572 20.8111 12.1335C20.8111 14.3413 19.9104 16.4169 18.2749 17.9781C16.6394 19.5392 14.465 20.399 12.1521 20.399C9.83916 20.399 7.66468 19.5392 6.02921 17.9781C5.58191 17.5511 4.86688 17.5356 4.4 17.9314C6.20283 20.1247 9.00503 21.5338 12.1521 21.5338C17.5909 21.5338 22 17.3251 22 12.1335C22 9.12949 20.5238 6.45471 18.2261 4.7338Z" fill="#C5324F"/>
<path d="M8.28451 3.03008L12 11.9998L15.7154 3.03008C14.5709 2.55547 13.3162 2.29297 12 2.29297C10.6838 2.29297 9.42904 2.55547 8.28451 3.03008Z" fill="#FFF9EB"/>
<path d="M2.29297 11.9997C2.29297 13.3159 2.55547 14.5706 3.03008 15.7151L12 11.9997L3.03008 8.28435C2.55547 9.42888 2.29297 10.6836 2.29297 11.9997Z" fill="#FFF9EB"/>
<path d="M12 11.9997L20.9699 15.7151C21.4445 14.5706 21.707 13.3159 21.707 11.9997C21.707 10.6835 21.4445 9.42884 20.9699 8.28435L12 11.9997Z" fill="#FFF9EB"/>
<path d="M12 21.7066C13.3162 21.7066 14.5709 21.4441 15.7154 20.9695L12 11.9998L8.28451 20.9695C9.42904 21.4442 10.6838 21.7066 12 21.7066Z" fill="#FFF9EB"/>
<path d="M20.9698 8.2845L19.89 8.73177C20.7507 10.8097 20.7513 13.1883 19.89 15.2677L20.9702 15.7151C22.0005 13.1393 21.9031 10.5306 20.9698 8.2845Z" fill="#D3CDBF"/>
<path d="M15.7156 20.9693L15.2682 19.8892C13.1901 20.7499 10.8115 20.7504 8.73209 19.8892L8.28483 20.969C10.5966 21.9274 13.2835 21.9779 15.7156 20.9693Z" fill="#D3CDBF"/>
<path d="M12 19.1338C8.25045 19.1338 5.2 15.9039 5.2 11.9338C5.2 7.96368 8.25045 4.7338 12 4.7338C15.7495 4.7338 18.8 7.96368 18.8 11.9338C18.8 15.9039 15.7495 19.1338 12 19.1338Z" fill="#FF5368"/>
<path d="M15.8389 6.33379C15.4509 6.79334 15.473 7.48125 15.9061 7.91433C18.2015 10.2097 18.2015 13.9445 15.9061 16.2399C14.7963 17.3497 13.3179 17.9609 11.7433 17.9609C10.1687 17.9609 8.69031 17.3497 7.58054 16.2399C7.14751 15.8069 6.45954 15.7846 6 16.1727C7.28108 17.964 9.37808 19.1338 11.7433 19.1338C15.6344 19.1338 18.8 15.9682 18.8 12.0771C18.8 9.71187 17.6302 7.61486 15.8389 6.33379Z" fill="#C5324F"/>
<path d="M15.7228 9.64214C14.7194 8.45647 13.0321 8.43159 12 9.56748C10.9679 8.43155 9.2806 8.45643 8.27723 9.64214C7.32147 10.7715 7.3949 12.5496 8.38648 13.641L10.6285 16.1085C11.3859 16.9422 12.614 16.9422 13.3715 16.1085L15.6135 13.641C16.6051 12.5496 16.6785 10.7715 15.7228 9.64214Z" fill="#FFF9EB"/>
<path d="M15.7359 9.5818C15.37 9.13715 14.9113 8.85467 14.4274 8.7338C14.6489 9.70987 14.4067 10.7982 13.7362 11.5572L11.5376 14.0457C10.9033 14.7637 9.93263 14.868 9.2 14.3597L10.7404 16.1032C11.4831 16.944 12.6874 16.944 13.4302 16.1032L15.6288 13.6146C16.6011 12.514 16.6731 10.7208 15.7359 9.5818Z" fill="#D3CDBF"/>
<path d="M14.0318 7.93379H14.0269C13.6163 7.93379 13.2152 8.01296 12.8346 8.16922C12.4422 8.33024 12.0903 8.56607 11.7888 8.8698C11.7396 8.90976 11.6772 8.93178 11.6137 8.93178H11.5866C11.4168 8.93178 11.279 9.06602 11.279 9.23152C11.279 9.39657 11.4168 9.53125 11.5866 9.53125H11.6141C11.8314 9.53125 12.041 9.45332 12.2042 9.3126L12.2063 9.31061C12.2088 9.30861 12.2108 9.30661 12.2129 9.30465C12.2161 9.30145 12.2194 9.29866 12.2223 9.29546C12.7067 8.8043 13.3481 8.53374 14.0289 8.5333C14.7499 8.53374 15.418 8.82907 15.9102 9.3646C16.3449 9.83858 16.5844 10.464 16.5848 11.1255C16.5848 11.8452 16.2973 12.5494 15.7961 13.0574L13.303 15.5876C12.956 15.9397 12.493 16.1335 12 16.1343C11.5066 16.1335 11.044 15.9397 10.697 15.5876L8.20387 13.0574C7.70228 12.549 7.41478 11.8448 7.41519 11.1255C7.41519 10.4641 7.65512 9.83858 8.08985 9.3646C8.58159 8.82903 9.24969 8.5337 9.9711 8.5333C10.2812 8.5333 10.5855 8.58965 10.875 8.70155C10.9111 8.71518 10.9493 8.72237 10.9878 8.72237C11.1149 8.72237 11.2273 8.64804 11.2741 8.53294C11.3364 8.37908 11.2589 8.20483 11.101 8.14408C10.7397 8.00461 10.3595 7.93383 9.9711 7.93383H9.96823C9.09614 7.93383 8.24787 8.29223 7.63092 8.96495C7.09488 9.54963 6.79959 10.3165 6.8 11.1255C6.8 11.9758 7.1245 12.8272 7.76011 13.4726L10.2533 16.0028C10.7287 16.4864 11.3619 16.7338 11.9988 16.7338H12.0016C12.6475 16.7338 13.2781 16.4794 13.7467 16.0028L16.2399 13.4726C16.8714 12.8321 17.2 11.9807 17.2 11.1255C17.2004 10.3165 16.9051 9.54963 16.3686 8.96495C15.7523 8.29283 14.9045 7.93379 14.0318 7.93379Z" fill="#1C2042"/>
<path d="M19.0711 5.26269C17.1823 3.37398 14.6711 2.33379 12 2.33379C9.32891 2.33379 6.8177 3.37398 4.92895 5.26269C3.0402 7.15148 2 9.66269 2 12.3338C2 15.0049 3.0402 17.5161 4.92895 19.4049C6.8177 21.2936 9.32891 22.3338 12 22.3338C14.6711 22.3338 17.1823 21.2936 19.0711 19.4049C20.9598 17.5161 22 15.0049 22 12.3338C22 9.66269 20.9598 7.15148 19.0711 5.26269ZM20.8057 15.6641L18.9095 14.8787C19.2037 14.0823 19.3633 13.2237 19.3633 12.334C19.3633 11.4575 19.2108 10.6028 18.9095 9.7889L20.8057 9.00343C21.1988 10.0393 21.4141 11.1618 21.4141 12.3338C21.4141 13.5057 21.1988 14.6283 20.8057 15.6641ZM20.5808 8.46242L18.4196 9.35761C18.3507 9.38617 18.292 9.44074 18.2609 9.5164C18.2312 9.58867 18.2312 9.66797 18.2609 9.74023C18.2609 9.74023 18.2609 9.7405 18.2612 9.74058C18.5973 10.5532 18.7773 11.4171 18.7773 12.3341C18.7773 13.194 18.6151 14.0739 18.2639 14.9207C18.263 14.9229 18.262 14.9251 18.2611 14.9273C18.2604 14.9291 18.2596 14.931 18.2589 14.9328C17.5738 16.5767 16.2379 17.9116 14.593 18.5951C13.7691 18.9373 12.8965 19.1111 12 19.1111C11.1031 19.1111 10.2309 18.9373 9.40703 18.5951C7.76016 17.9107 6.42305 16.5736 5.73867 14.9267C5.39648 14.1032 5.22266 13.231 5.22266 12.3341C5.22266 11.4392 5.39555 10.5693 5.7359 9.74734C5.73691 9.74504 5.73793 9.74273 5.73891 9.74039C5.73984 9.73816 5.7407 9.73593 5.74156 9.73371C6.4268 8.09039 7.76246 6.75601 9.40699 6.07261C10.2308 5.73 11.1031 5.5566 12 5.5566C12.8968 5.5566 13.7691 5.73004 14.5929 6.07261C15.882 6.60855 17.0019 7.55742 17.7461 8.74414C17.8331 8.88289 18.0134 8.92211 18.15 8.83672C18.2861 8.75054 18.3288 8.57109 18.2425 8.43281C17.8386 7.78902 17.3398 7.21285 16.7597 6.72027C16.2505 6.28769 15.6884 5.92843 15.0859 5.64929L15.8714 3.753C17.9554 4.69691 19.6369 6.3784 20.5808 8.46242ZM15.3304 3.52804L14.5449 5.42429C13.7307 5.12304 12.8761 4.97058 12 4.97058C11.1239 4.97058 10.2693 5.12308 9.45508 5.42429L8.66965 3.52804C9.70547 3.135 10.8281 2.91972 12 2.91972C13.172 2.91972 14.2945 3.135 15.3304 3.52804ZM8.12859 3.75297L8.91406 5.64929C8.12672 6.01429 7.41031 6.51535 6.79609 7.12957C6.19332 7.73242 5.68797 8.44476 5.31543 9.24785L3.41918 8.46238C4.36313 6.3784 6.04461 4.69691 8.12859 3.75297ZM3.19426 9.0034L5.09043 9.78883C4.78922 10.6033 4.63672 11.4579 4.63672 12.334C4.63672 13.2098 4.78922 14.0644 5.09047 14.8787L3.19426 15.6641C2.80121 14.6283 2.58594 13.5057 2.58594 12.3338C2.58594 11.1618 2.80121 10.0392 3.19426 9.0034ZM3.41918 16.2052L5.31551 15.4196C5.68492 16.2165 6.18809 16.9296 6.79609 17.5376C7.40281 18.1443 8.11551 18.648 8.91406 19.0183L8.12859 20.9146C6.04461 19.9707 4.36313 18.2892 3.41918 16.2052ZM8.66965 21.1395L9.45508 19.2433C10.2692 19.5446 11.1235 19.697 11.9992 19.697H12.0008C12.8765 19.697 13.7308 19.5446 14.5449 19.2433L15.3304 21.1395C14.2946 21.5326 13.172 21.7478 12 21.7478C10.8281 21.7478 9.70547 21.5326 8.66965 21.1395ZM15.8714 20.9146L15.0859 19.0183C15.8827 18.6489 16.5959 18.1457 17.2039 17.5377C17.808 16.9335 18.3127 16.2216 18.6845 15.4197L20.5808 16.2052C19.6369 18.2892 17.9554 19.9707 15.8714 20.9146Z" fill="#1C2042"/>
</svg>
