<svg width="24" height="24" viewBox="0 0 24 24" fill="none" xmlns="http://www.w3.org/2000/svg">
<path d="M16.2024 8.01035L20.8907 8.66296C21.9454 8.80977 22.3742 10.1036 21.6162 10.8524L18.247 14.1806C17.946 14.4779 17.8104 14.9045 17.8844 15.3213L18.7131 19.9864C18.8996 21.036 17.8028 21.844 16.8572 21.3537L12.6541 19.1746C12.2786 18.9799 11.8314 18.9826 11.4583 19.1819L7.28225 21.4125C6.34269 21.9143 5.23615 21.1199 5.4097 20.0681L6.18122 15.3931C6.25016 14.9754 6.10935 14.5506 5.80471 14.257L2.39504 10.9704C1.62789 10.231 2.04077 8.93195 3.09368 8.77221L7.7736 8.06213C8.19175 7.99867 8.55184 7.73337 8.73669 7.35262L10.8055 3.09085C11.271 2.13198 12.6327 2.12367 13.1099 3.0767L15.2307 7.3128C15.4202 7.6912 15.7835 7.95203 16.2024 8.01035Z" fill="#FFD92D"/>
<path d="M6.42157 10.8265C6.42157 10.1244 6.49264 9.4402 6.59698 8.76678L3.06709 9.29327C2.03973 9.44654 1.63697 10.6926 2.38543 11.402L5.7124 14.5547C6.00955 14.8364 6.14694 15.2439 6.07959 15.6446L5.32682 20.1291C5.15737 21.1381 6.23722 21.9002 7.15386 21.4188L10 19.9241C7.78347 17.516 6.42157 14.3317 6.42157 10.8265Z" fill="#FFE571"/>
<path d="M21.6187 10.8819C22.3718 10.1306 21.9457 8.83221 20.8978 8.68486L16.2393 8.02995C15.8231 7.97144 15.462 7.70966 15.2739 7.32988L13.1666 3.07915C12.6923 2.12283 11.3392 2.13117 10.8769 3.09335L10 4.91724C12.9906 6.93512 14.9621 10.3753 14.9621 14.2828C14.9621 16.2441 14.4638 18.0867 13.5916 19.6923L16.8899 21.4193C17.8295 21.9113 18.9193 21.1005 18.7341 20.0473L17.9105 15.3661C17.837 14.9479 17.9717 14.5198 18.2707 14.2215L21.6187 10.8819Z" fill="#FFA81E"/>
<path d="M21.5236 11.1817C21.9594 10.7517 22.1103 10.1236 21.9176 9.54262C21.7248 8.96157 21.2285 8.54829 20.6222 8.46399C20.427 8.43715 20.2459 8.57329 20.2187 8.76895C20.1915 8.96457 20.328 9.14524 20.5237 9.17243C20.8634 9.21961 21.1307 9.44227 21.2388 9.76781C21.3468 10.0934 21.2655 10.4317 21.0213 10.6727L17.7725 13.8785C17.3984 14.2476 17.2299 14.777 17.322 15.2944L18.1211 19.7881C18.1812 20.1259 18.0521 20.4488 17.7758 20.6522C17.4994 20.8556 17.1527 20.8827 16.8481 20.725L12.7952 18.6259C12.3285 18.3842 11.773 18.3875 11.3094 18.635L7.28261 20.7836C6.97987 20.9451 6.6328 20.9222 6.35401 20.7222C6.07523 20.5223 5.94218 20.2008 5.99808 19.8624L6.7421 15.3593C6.82784 14.8408 6.65292 14.3135 6.27429 13.949L2.98649 10.7832C2.73934 10.5452 2.65391 10.208 2.75797 9.88109C2.86196 9.55418 3.12653 9.32828 3.46574 9.27688L7.97842 8.5929C8.49799 8.51415 8.94537 8.18485 9.17518 7.7122L11.1701 3.60694C11.32 3.29838 11.6142 3.11295 11.9573 3.11088C11.9593 3.11088 11.9612 3.11088 11.9632 3.11088C12.3038 3.11088 12.5979 3.29241 12.7507 3.59733L14.7957 7.67774C15.0311 8.14758 15.4825 8.47133 16.0031 8.54372L17.1021 8.69653C17.2975 8.72383 17.4784 8.58723 17.5056 8.39157C17.5328 8.19594 17.3962 8.01528 17.2006 7.98809L16.1016 7.83528C15.8142 7.79532 15.565 7.61661 15.4351 7.35728L13.39 3.27686C13.1172 2.7326 12.5711 2.39569 11.9629 2.39569C11.9596 2.39569 11.9562 2.39569 11.9528 2.39569C11.3406 2.39944 10.7942 2.74385 10.5267 3.29444L8.53186 7.39966C8.40502 7.66059 8.15803 7.84239 7.87124 7.88587L3.35848 8.56973C2.75321 8.66145 2.26196 9.08086 2.07633 9.66418C1.89071 10.2475 2.04938 10.8737 2.49036 11.2982L5.77816 14.464C5.98718 14.6653 6.0837 14.9564 6.0364 15.2426L5.29246 19.7458C5.19265 20.3498 5.43976 20.9466 5.93714 21.3034C6.2155 21.503 6.53987 21.6043 6.86624 21.6043C7.12315 21.6043 7.38132 21.5415 7.61917 21.4146L11.646 19.2659C11.9019 19.1293 12.2086 19.1274 12.4662 19.2609L16.5191 21.36C17.0625 21.6414 17.7065 21.5911 18.1997 21.2282C18.6927 20.8653 18.9324 20.2655 18.8251 19.6628L18.026 15.1691C17.9753 14.8835 18.0682 14.5913 18.2748 14.3875L21.5236 11.1817Z" fill="#1C2042"/>
<path d="M19.3728 9.01244L19.6109 9.04552C19.6276 9.04787 19.6442 9.04896 19.6607 9.04896C19.8363 9.04896 19.9895 8.91947 20.0144 8.74056C20.0416 8.54494 19.9051 8.36428 19.7094 8.33709L19.4714 8.304C19.2761 8.27717 19.0951 8.4133 19.0679 8.60896C19.0407 8.80455 19.1773 8.98521 19.3728 9.01244Z" fill="#1C2042"/>
<path d="M7.19076 19.4763C6.99685 19.4388 6.87009 19.2511 6.90763 19.0572L7.35115 16.7664C7.38869 16.5725 7.5763 16.4458 7.77021 16.4833C7.96411 16.5208 8.09087 16.7085 8.05333 16.9024L7.60982 19.1932C7.57232 19.3871 7.3847 19.5138 7.19076 19.4763Z" fill="white"/>
<path d="M7.88249 15.9029C7.68858 15.8654 7.56183 15.6778 7.59937 15.4838L7.64542 15.2459C7.68296 15.052 7.87058 14.9253 8.06448 14.9628C8.25839 15.0003 8.38515 15.1879 8.34761 15.3819L8.30155 15.6198C8.26401 15.8138 8.0764 15.9405 7.88249 15.9029Z" fill="white"/>
</svg>
