<svg width="24" height="24" viewBox="0 0 24 24" fill="none" xmlns="http://www.w3.org/2000/svg">
<path d="M12.0001 21.9998C11.9483 21.9998 11.8987 21.9792 11.862 21.9426C11.8254 21.906 11.8048 21.8563 11.8048 21.8045V11.4531C11.8048 11.4141 11.8165 11.376 11.8384 11.3437C11.8602 11.3114 11.8913 11.2863 11.9275 11.2718L21.1176 7.58593C21.1472 7.57406 21.1793 7.56962 21.2111 7.57303C21.2428 7.57643 21.2732 7.58756 21.2997 7.60545C21.3261 7.62333 21.3478 7.64743 21.3628 7.67562C21.3777 7.70382 21.3856 7.73526 21.3856 7.76718V17.5046C21.3856 17.5417 21.375 17.5781 21.3551 17.6094C21.3352 17.6408 21.3067 17.6658 21.2731 17.6815L12.083 21.9815C12.057 21.9935 12.0287 21.9998 12.0001 21.9998Z" fill="#1C2042"/>
<path d="M12.0003 21.9998C11.9717 21.9998 11.9434 21.9935 11.9175 21.9815L2.72734 17.6815C2.6937 17.6658 2.66525 17.6408 2.64533 17.6094C2.6254 17.5781 2.61483 17.5417 2.61484 17.5046V7.76562C2.6151 7.73383 2.62312 7.70258 2.6382 7.67459C2.65328 7.6466 2.67496 7.62272 2.70137 7.60501C2.72777 7.5873 2.7581 7.57631 2.78972 7.57299C2.82134 7.56966 2.85329 7.57411 2.8828 7.58593L12.0729 11.2714C12.1092 11.286 12.1403 11.311 12.1621 11.3434C12.184 11.3758 12.1957 11.414 12.1956 11.4531V21.8045C12.1956 21.8563 12.175 21.906 12.1384 21.9426C12.1017 21.9792 12.0521 21.9998 12.0003 21.9998Z" fill="#1C2042"/>
<path d="M12.1954 11.5832L20.995 8.05434V17.3804L12.1954 21.4975V11.5832Z" fill="#C22026"/>
<path d="M3.00546 17.3804V8.05434L11.805 11.5832V21.4975L3.00546 17.3804Z" fill="#EB2335"/>
<path d="M16.1342 20.0651C16.0824 20.0651 16.0327 20.0446 15.9961 20.0079C15.9595 19.9713 15.9389 19.9216 15.9389 19.8698V11.5664C15.9389 11.5284 15.95 11.4913 15.9708 11.4595C15.9916 11.4277 16.0213 11.4027 16.0561 11.3875L17.5928 10.7137C17.6225 10.7007 17.655 10.6953 17.6873 10.6981C17.7196 10.7008 17.7507 10.7115 17.7778 10.7292C17.805 10.747 17.8273 10.7712 17.8427 10.7997C17.8581 10.8283 17.8662 10.8602 17.8662 10.8926V19.1515C17.8662 19.1885 17.8555 19.2248 17.8356 19.2561C17.8157 19.2874 17.7873 19.3123 17.7537 19.328L16.219 20.0468C16.1925 20.0593 16.1635 20.0656 16.1342 20.0651Z" fill="#1C2042"/>
<path d="M7.86601 20.0651C7.83751 20.0652 7.80935 20.059 7.78359 20.0468L6.2465 19.328C6.21293 19.3123 6.18452 19.2874 6.1646 19.2561C6.14468 19.2248 6.13406 19.1885 6.134 19.1515V10.8926C6.13402 10.8602 6.14211 10.8283 6.15754 10.7997C6.17296 10.7712 6.19525 10.747 6.22238 10.7292C6.24951 10.7115 6.28063 10.7008 6.31294 10.6981C6.34525 10.6953 6.37772 10.7007 6.40744 10.7137L7.94414 11.3875C7.97895 11.4027 8.00858 11.4277 8.02939 11.4595C8.05021 11.4913 8.0613 11.5284 8.06132 11.5664V19.8698C8.06132 19.9216 8.04075 19.9713 8.00412 20.0079C7.96749 20.0446 7.91781 20.0651 7.86601 20.0651Z" fill="#1C2042"/>
<path d="M16.3295 11.694L17.476 11.1917V19.0267L16.3295 19.563V11.694Z" fill="#FFAA39"/>
<path d="M6.52462 19.0267V11.1917L7.6707 11.694V19.563L6.52462 19.0267Z" fill="#FFC943"/>
<path d="M12.0001 13.5753C11.9483 13.5753 11.8987 13.5547 11.862 13.5181C11.8254 13.4814 11.8048 13.4318 11.8048 13.38V9.60814C11.8048 9.56933 11.8164 9.53141 11.838 9.49919C11.8596 9.46698 11.8904 9.44195 11.9263 9.42728L21.7309 5.43475C21.7605 5.42264 21.7927 5.41801 21.8246 5.42127C21.8565 5.42454 21.8871 5.43559 21.9136 5.45346C21.9402 5.47133 21.962 5.49547 21.9771 5.52374C21.9922 5.55202 22 5.58357 22 5.61561V9.08041C21.9999 9.11833 21.9888 9.1554 21.968 9.1871C21.9472 9.2188 21.9176 9.24375 21.8828 9.25892L12.0783 13.5589C12.0536 13.5697 12.027 13.5752 12.0001 13.5753Z" fill="#1C2042"/>
<path d="M12.0001 13.5753C11.9732 13.5752 11.9466 13.5697 11.922 13.5589L2.11745 9.25892C2.08269 9.24375 2.0531 9.2188 2.0323 9.1871C2.01149 9.1554 2.00035 9.11833 2.00026 9.08041V5.61561C2.00025 5.58357 2.00813 5.55202 2.02319 5.52374C2.03825 5.49547 2.06004 5.47133 2.08663 5.45346C2.11323 5.43559 2.14381 5.42454 2.17568 5.42127C2.20755 5.41801 2.23974 5.42264 2.2694 5.43475L12.074 9.42728C12.1099 9.44195 12.1406 9.46698 12.1623 9.49919C12.1839 9.53141 12.1955 9.56933 12.1954 9.60814V13.38C12.1954 13.4318 12.1749 13.4814 12.1382 13.5181C12.1016 13.5547 12.0519 13.5753 12.0001 13.5753Z" fill="#1C2042"/>
<path d="M12.0001 9.80355C11.9748 9.80356 11.9497 9.79865 11.9262 9.78909L2.12167 5.79656C2.08494 5.78158 2.05365 5.75578 2.03195 5.72258C2.01025 5.68938 1.99918 5.65036 2.00019 5.61071C2.00121 5.57106 2.01428 5.53266 2.03765 5.50062C2.06102 5.46858 2.0936 5.44441 2.13104 5.43133L11.9356 2.01106C11.9773 1.99648 12.0228 1.99648 12.0645 2.01106L21.8691 5.43133C21.9065 5.44441 21.9391 5.46858 21.9625 5.50062C21.9859 5.53266 21.9989 5.57106 21.9999 5.61071C22.001 5.65036 21.9899 5.68938 21.9682 5.72258C21.9465 5.75578 21.9152 5.78158 21.8785 5.79656L12.0739 9.78909C12.0505 9.79865 12.0254 9.80356 12.0001 9.80355Z" fill="#1C2042"/>
<path d="M12.1954 9.73948L21.6094 5.90593V8.95277L12.1954 13.0812V9.73948Z" fill="#007145"/>
<path d="M2.39088 8.95277V5.90593L11.8048 9.73948V13.0812L2.39088 8.95277Z" fill="#008A55"/>
<path d="M2.74797 5.62969L12.0002 2.40239L21.2524 5.62969L12.0002 9.39723L2.74797 5.62969Z" fill="#00C477"/>
<path d="M16.1342 11.7617C16.0824 11.7617 16.0327 11.7411 15.9961 11.7045C15.9595 11.6678 15.9389 11.6181 15.9389 11.5663V7.9246C15.9388 7.88526 15.9505 7.84679 15.9726 7.81424C15.9947 7.78169 16.0261 7.75657 16.0627 7.74218L17.5994 7.11718C17.6291 7.10506 17.6613 7.10043 17.6932 7.10372C17.7251 7.107 17.7557 7.11809 17.7823 7.136C17.809 7.15392 17.8307 7.17811 17.8458 7.20644C17.8608 7.23476 17.8686 7.26636 17.8686 7.29843V10.8921C17.8685 10.9301 17.8574 10.9673 17.8366 10.9991C17.8158 11.0308 17.7862 11.0558 17.7514 11.071L16.2143 11.7449C16.1891 11.7561 16.1618 11.7618 16.1342 11.7617Z" fill="#1C2042"/>
<path d="M7.86575 11.7616C7.83886 11.7616 7.81226 11.756 7.78762 11.7452L6.25053 11.0714C6.21572 11.0562 6.18609 11.0312 6.16528 10.9994C6.14446 10.9676 6.13337 10.9304 6.13335 10.8925V7.29875C6.13328 7.26668 6.14111 7.23508 6.15614 7.20676C6.17118 7.17843 6.19296 7.15424 6.21956 7.13632C6.24616 7.11841 6.27677 7.10732 6.30867 7.10404C6.34057 7.10076 6.37279 7.10538 6.40248 7.1175L7.93918 7.7425C7.97518 7.7571 8.00601 7.78211 8.02772 7.81433C8.04943 7.84655 8.06103 7.8845 8.06106 7.92335V11.5663C8.06106 11.6181 8.04048 11.6678 8.00385 11.7044C7.96723 11.741 7.91755 11.7616 7.86575 11.7616Z" fill="#1C2042"/>
<path d="M16.3295 8.0558L17.476 7.589V10.7651L16.3295 11.2675V8.0558Z" fill="#FFC943"/>
<path d="M6.52462 10.7651V7.589L7.6707 8.0558V11.2675L6.52462 10.7651Z" fill="#FFC943"/>
<path d="M16.1342 8.11985C16.1086 8.11984 16.0833 8.1148 16.0596 8.10501L6.66757 4.20974C6.63101 4.19458 6.59992 4.16867 6.57842 4.13545C6.55692 4.10222 6.54602 4.06325 6.54716 4.02369C6.54831 3.98413 6.56144 3.94585 6.58483 3.91393C6.60821 3.882 6.64074 3.85793 6.67811 3.8449L8.0031 3.38319C8.04699 3.36786 8.09492 3.36869 8.13825 3.38554L17.7424 7.11713C17.779 7.13125 17.8104 7.15604 17.8327 7.18826C17.855 7.22049 17.867 7.25867 17.8673 7.29784C17.8676 7.33701 17.8561 7.37537 17.8343 7.40793C17.8126 7.44048 17.7815 7.46574 17.7452 7.48041L16.2085 8.1054C16.1849 8.11511 16.1597 8.12002 16.1342 8.11985Z" fill="#1C2042"/>
<path d="M7.86624 8.11985C7.84091 8.11997 7.81582 8.11505 7.79241 8.1054L6.25571 7.48041C6.21937 7.46578 6.18827 7.44056 6.16645 7.40802C6.14463 7.37549 6.1331 7.33714 6.13335 7.29797C6.1336 7.2588 6.14563 7.22061 6.16787 7.18836C6.19011 7.15611 6.22153 7.13129 6.25805 7.11713L15.8622 3.38554C15.9056 3.36869 15.9535 3.36786 15.9974 3.38319L17.3224 3.8449C17.3597 3.85793 17.3923 3.882 17.4157 3.91393C17.439 3.94585 17.4522 3.98413 17.4533 4.02369C17.4545 4.06325 17.4436 4.10222 17.4221 4.13545C17.4006 4.16867 17.3695 4.19458 17.3329 4.20974L7.94084 8.10501C7.91719 8.1148 7.89184 8.11984 7.86624 8.11985Z" fill="#1C2042"/>
<path d="M7.29057 4.04527L8.0636 3.77574L17.1428 7.30265L16.135 7.71319L7.29057 4.04527Z" fill="#FAF180"/>
<path d="M6.85763 7.30265L15.9368 3.77574L16.7099 4.04527L7.86543 7.71319L6.85763 7.30265Z" fill="#FAF180"/>
<path opacity="0.3" d="M21.1903 9.34956V10.2636L12.0002 14.4241L2.81047 10.2636V9.34956L12.0002 13.3796L21.1903 9.34956Z" fill="#1C2042"/>
<path opacity="0.3" d="M15.7111 7.52177C14.651 7.52177 13.6084 7.34834 12.7463 7.03076C12.5229 7.17029 12.2648 7.24427 12.0014 7.24427C11.738 7.24427 11.4799 7.17029 11.2565 7.03076C10.3944 7.34834 9.3518 7.52177 8.29166 7.52177C6.3534 7.52177 5.92919 6.43702 5.92919 6.01906V5.97726C5.92724 5.74992 5.92372 5.3261 6.28583 4.96165C6.69481 4.54876 7.453 4.34837 8.60377 4.34837C9.88344 4.34837 10.8475 4.8597 11.4787 5.35188C11.8152 5.22126 12.1884 5.22126 12.5248 5.35188C13.1561 4.8597 14.1201 4.34837 15.3998 4.34837C16.5505 4.34837 17.3087 4.54876 17.7177 4.96165C18.0798 5.32649 18.0763 5.75031 18.0744 5.97726V6.01906C18.0724 6.43702 17.6482 7.52177 15.7111 7.52177Z" fill="#1C2042"/>
<path d="M15.7111 7.33747C14.2268 7.33747 12.8186 6.85154 11.844 6.00428L11.6147 5.80507L11.7514 5.53163C11.8041 5.42773 13.0639 2.98283 15.4002 2.98283C16.4084 2.98283 17.1158 3.20158 17.563 3.65119C18.0806 4.17188 18.0767 4.85351 18.0748 5.21992V5.28515C18.0748 5.58944 17.9505 6.09764 17.6009 6.52693C17.2982 6.89763 16.7267 7.33747 15.7111 7.33747Z" fill="#1C2042"/>
<path d="M12.0984 5.71093C12.0984 5.71093 13.2757 3.37541 15.3987 3.37541C17.7815 3.37541 17.6823 4.69532 17.6823 5.28711C17.6823 5.72812 17.3101 6.94685 15.7105 6.94685C14.4929 6.94685 13.0941 6.57459 12.0984 5.71093Z" fill="#EB2335"/>
<path d="M15.7112 7.33707C14.7011 7.33707 13.68 7.09918 12.8335 6.66677L12.3582 6.42341L12.7339 6.04373C13.5261 5.24217 14.4476 4.82069 15.3988 4.82069C15.98 4.82069 16.4722 4.89882 16.8616 5.04686C17.0568 5.12087 17.2266 5.24916 17.3512 5.41659C17.4758 5.58402 17.5499 5.7836 17.5647 5.99177C17.5817 6.19717 17.5395 6.40312 17.4431 6.5853C17.3468 6.76748 17.2003 6.91828 17.021 7.01989C16.6511 7.23043 16.2108 7.33707 15.7112 7.33707Z" fill="#1C2042"/>
<path d="M16.7202 5.41132C17.2733 5.6242 17.3394 6.38787 16.8249 6.68083C16.5452 6.84099 16.1808 6.94645 15.7101 6.94645C14.8312 6.94645 13.8581 6.75114 13.0105 6.31873C13.5679 5.75623 14.3722 5.21132 15.398 5.21132C15.9698 5.21132 16.3987 5.28749 16.7202 5.41132Z" fill="#C22026"/>
<path d="M15.711 6.70083C14.9334 6.70179 14.1634 6.54857 13.4454 6.25005C14.0548 5.7235 14.7106 5.45709 15.3985 5.45709C15.8599 5.45709 16.243 5.50839 16.5477 5.611C16.9602 5.74967 17.0055 6.32388 16.6141 6.51489C16.3829 6.627 16.0875 6.70083 15.711 6.70083Z" fill="#1C2042"/>
<path d="M15.7111 6.3102C15.2351 6.3105 14.7611 6.24985 14.3005 6.12973C14.6378 5.94683 15.0149 5.84996 15.3986 5.8477C15.8153 5.8477 16.1599 5.89262 16.4232 5.9809C16.443 5.98722 16.4604 5.99957 16.473 6.01623C16.4855 6.03289 16.4925 6.05303 16.4931 6.07387C16.4957 6.09226 16.4923 6.11101 16.4833 6.12724C16.4742 6.14347 16.4601 6.15629 16.4431 6.16371C16.2427 6.26098 15.9962 6.3102 15.7111 6.3102Z" fill="#7D121C"/>
<path d="M8.28949 7.33722C7.27388 7.33722 6.70123 6.89739 6.40084 6.52864C6.04928 6.09896 5.92702 5.59115 5.92702 5.28686V5.22163C5.92507 4.85522 5.92116 4.17359 6.43873 3.65289C6.88677 3.20329 7.59419 2.98454 8.60199 2.98454C10.9383 2.98454 12.198 5.42944 12.2508 5.53334L12.3875 5.80677L12.1578 6.00599C11.1832 6.85129 9.77385 7.33722 8.28949 7.33722Z" fill="#1C2042"/>
<path d="M11.902 5.71093C11.902 5.71093 10.7247 3.37541 8.6017 3.37541C6.21891 3.37541 6.31813 4.69532 6.31813 5.28711C6.31813 5.72812 6.69039 6.94685 8.28998 6.94685C9.50754 6.94685 10.9064 6.57459 11.902 5.71093Z" fill="#EB2335"/>
<path d="M8.28947 7.33707C7.78869 7.33707 7.34846 7.23043 6.9805 7.01989C6.80119 6.91828 6.65471 6.76748 6.55836 6.5853C6.46201 6.40312 6.41981 6.19717 6.43675 5.99177C6.45159 5.7836 6.52567 5.58402 6.65026 5.41659C6.77485 5.24916 6.94473 5.12087 7.13987 5.04686C7.53049 4.89686 8.0215 4.82069 8.60274 4.82069C9.55312 4.82069 10.4746 5.24374 11.2679 6.04373L11.6437 6.42341L11.1683 6.66677C10.323 7.09918 9.30078 7.33707 8.28947 7.33707Z" fill="#1C2042"/>
<path d="M7.28026 5.41132C6.72714 5.6242 6.66113 6.38787 7.17557 6.68083C7.45526 6.84099 7.81971 6.94645 8.2904 6.94645C9.1693 6.94645 10.1423 6.75114 10.99 6.31873C10.4322 5.75623 9.62828 5.21132 8.60173 5.21132C8.03064 5.21132 7.60174 5.28749 7.28026 5.41132Z" fill="#C22026"/>
<path d="M8.28935 6.70083C9.06692 6.70179 9.83696 6.54857 10.5549 6.25005C9.94558 5.7235 9.28973 5.45709 8.60185 5.45709C8.14039 5.45709 7.75733 5.50839 7.45264 5.611C7.03937 5.75006 6.99562 6.32388 7.38702 6.51489C7.61748 6.627 7.91279 6.70083 8.28935 6.70083Z" fill="#1C2042"/>
<path d="M8.28929 6.3102C8.00297 6.3102 7.75649 6.26098 7.55688 6.16371C7.53985 6.15629 7.52574 6.14347 7.5167 6.12724C7.50767 6.11101 7.50422 6.09226 7.50688 6.07387C7.50744 6.05303 7.51447 6.03289 7.527 6.01623C7.53953 5.99957 7.55694 5.98722 7.5768 5.9809C7.84008 5.89262 8.18461 5.8477 8.6014 5.8477C8.98505 5.84985 9.36223 5.94673 9.69943 6.12973C9.23902 6.24987 8.76512 6.31052 8.28929 6.3102Z" fill="#7D121C"/>
<path d="M12.0003 7.20355C12.8002 7.20355 13.4487 6.49911 13.4487 5.63014C13.4487 4.76116 12.8002 4.05672 12.0003 4.05672C11.2003 4.05672 10.5519 4.76116 10.5519 5.63014C10.5519 6.49911 11.2003 7.20355 12.0003 7.20355Z" fill="#1C2042"/>
<path d="M12.0003 6.81292C12.5845 6.81292 13.0581 6.28337 13.0581 5.63012C13.0581 4.97688 12.5845 4.44733 12.0003 4.44733C11.4161 4.44733 10.9425 4.97688 10.9425 5.63012C10.9425 6.28337 11.4161 6.81292 12.0003 6.81292Z" fill="#FAF180"/>
<path d="M13.0585 5.62961C13.0585 6.28272 12.5847 6.8128 12.0003 6.8128C11.4159 6.8128 10.9425 6.28272 10.9425 5.62961C10.9424 5.58328 10.9449 5.53699 10.9499 5.49094C11.0109 6.07921 11.4577 6.53545 12.0003 6.53545C12.5429 6.53545 12.9901 6.07921 13.0511 5.49094C13.0559 5.537 13.0584 5.58329 13.0585 5.62961Z" fill="#FFC943"/>
</svg>
