<svg width="24" height="24" viewBox="0 0 24 24" fill="none" xmlns="http://www.w3.org/2000/svg">
<path d="M17.2 18.8355H11.6V21.2355H17.2V18.8355Z" fill="#FCB129"/>
<path d="M11.9969 18.8197H6.54422V21.5082H11.9969V18.8197Z" fill="#FED14F"/>
<path d="M7.90728 18.6683C4.84014 18.6683 2.37886 16.1691 2.37886 13.1399C2.37886 10.0727 4.84014 7.61145 7.90728 7.61145H10.5579L9.30832 8.3309C8.39954 8.82316 7.68009 9.58048 7.18783 10.4514C6.46838 11.7388 6.27905 13.2156 6.69557 14.6545C7.1121 16.0555 8.02088 17.2673 9.30832 17.9867L10.5579 18.7062H7.90728V18.6683Z" fill="#FED14F"/>
<path d="M12 5.23555C12.6627 5.23555 13.2 4.51921 13.2 3.63555C13.2 2.7519 12.6627 2.03555 12 2.03555C11.3373 2.03555 10.8 2.7519 10.8 3.63555C10.8 4.51921 11.3373 5.23555 12 5.23555Z" fill="#DF2331"/>
<path d="M12.041 18.8356C9.13334 18.8356 6.8 16.3509 6.8 13.2547C6.8 10.1584 9.13334 7.63556 12.041 7.63556H12.4V18.8356H12.041Z" fill="#FED14F"/>
<path d="M11.9967 7.5737C15.026 7.5737 17.5252 10.0728 17.5252 13.14C17.5252 16.1693 15.0639 18.6684 11.9967 18.6684V7.5737Z" fill="#FCB129"/>
<path d="M13.4355 18.6305L14.6851 17.9111C15.5939 17.4188 16.3133 16.6615 16.8056 15.7906C18.2824 13.14 17.3357 9.76992 14.6851 8.29315L13.4355 7.5737H16.0861C19.1533 7.5737 21.6145 10.035 21.6145 13.1021C21.6145 16.1314 19.1533 18.6305 16.0861 18.6305H13.4355Z" fill="#FCB129"/>
<path d="M16.0862 7.24895H12.3753V5.5515C13.3598 5.32518 13.9657 4.38215 13.7385 3.43913C13.5492 2.49611 12.6025 1.85485 11.618 2.08118C10.6335 2.3075 10.0276 3.25053 10.2548 4.19355C10.4063 4.87253 10.9364 5.40062 11.618 5.5515V7.24895H7.90712C4.65063 7.24895 2 9.88941 2 13.1334C2 15.7362 3.70398 17.9994 6.16528 18.7538C6.12741 18.867 6.08954 18.9802 6.08954 19.0933V21.2057C6.12741 21.6583 6.50607 22.0356 6.96046 22.0356H17.0329C17.4873 22.0356 17.9038 21.6961 17.9038 21.2057V19.0933C17.9038 18.9802 17.8659 18.867 17.828 18.7538C20.9331 17.8108 22.7128 14.4914 21.7283 11.3982C21.0088 8.94639 18.699 7.24895 16.0862 7.24895ZM10.9743 3.81634C10.9743 3.25053 11.4665 2.79788 12.0345 2.79788C12.6025 2.79788 13.0569 3.28825 13.0569 3.85406C13.0569 4.41988 12.6025 4.87253 12.0345 4.87253C11.4287 4.87253 10.9743 4.41988 10.9743 3.81634ZM11.9967 8.00336C14.8366 8.00336 17.1465 10.3043 17.1465 13.1334C17.1465 15.9625 14.8366 18.2635 11.9967 18.2635C9.1567 18.2635 6.84687 15.9625 6.84687 13.1334C6.84687 10.3421 9.1567 8.00336 11.9967 8.00336ZM2.75732 13.1711C2.75732 10.3421 5.06716 8.00336 7.90712 8.00336H9.11883C6.27887 9.58764 5.25649 13.1711 6.84687 16.0002C7.37699 16.9432 8.17218 17.7354 9.11883 18.2635H7.90712C5.06716 18.3012 2.75732 16.0002 2.75732 13.1711ZM6.96046 21.2434C6.88473 21.2434 6.84687 21.2057 6.84687 21.168V19.0933C6.84687 19.0933 6.88473 19.0179 6.96046 19.0179H7.30126L8.58871 21.2434H6.96046ZM9.45963 21.2811L8.17218 19.0556H9.72469L11.0121 21.2811H9.45963ZM11.8831 21.2811L10.5956 19.0556H12.1481L13.4356 21.2811H11.8831ZM14.3065 21.2811L13.019 19.0556H14.5716L15.859 21.2811H14.3065ZM17.0329 21.2811H16.7678L15.4803 19.0556H17.0707C17.1465 19.0556 17.1843 19.0933 17.1843 19.131V21.2057C17.1843 21.2057 17.1843 21.2811 17.0329 21.2811ZM16.0862 18.3012H14.8745C17.7144 16.7169 18.7368 13.1334 17.1465 10.3043C16.6163 9.36132 15.8211 8.56918 14.8745 8.04109H16.0862C18.9262 8.04109 21.236 10.3421 21.236 13.1711C21.236 16.0002 18.964 18.3012 16.0862 18.3012Z" fill="#1C2042"/>
</svg>
