<svg width="24" height="24" viewBox="0 0 24 24" fill="none" xmlns="http://www.w3.org/2000/svg">
<path d="M15.4992 1.01297L14.5003 3.04734L12 3.75L9.49969 3.04734L8.50079 1.01297C8.39344 0.795 8.40657 0.537188 8.53501 0.331406C8.66344 0.125156 8.88891 0 9.13173 0H14.8683C15.1111 0 15.3366 0.125156 15.465 0.331406C15.5934 0.537188 15.6066 0.795 15.4992 1.01297Z" fill="#C26401"/>
<path d="M15.4992 1.01297C15.6066 0.795 15.5934 0.537188 15.465 0.331406C15.3366 0.125156 15.1111 0 14.8683 0H12V3.75L14.5003 3.04734L15.4992 1.01297Z" fill="#B04617"/>
<path d="M21.7149 23.3517C21.1599 23.9067 20.257 23.948 19.2375 23.4652C18.7725 23.2449 18.2377 23.1985 17.7319 23.3344C16.0894 23.776 14.161 24 12 24C9.83908 24 7.91064 23.776 6.26814 23.3344C5.76236 23.1985 5.22751 23.2449 4.76251 23.4652C3.74298 23.948 2.84017 23.9067 2.28517 23.3517C1.81548 22.8821 1.71142 22.1602 1.99173 21.3183C2.21767 20.641 2.68267 19.9275 3.30142 19.3088C3.31736 19.2928 3.33376 19.2764 3.35017 19.2605C3.18236 18.4627 2.81579 16.5821 2.60486 14.4666C2.2247 10.6561 2.54673 8.04564 3.56298 6.70736C4.4883 5.48908 6.81142 3.58221 9.4997 3.04736H14.5003L14.4928 3.06283C15.8058 3.33377 16.9416 3.90189 17.7286 4.38377C18.8335 5.06064 19.846 5.92924 20.437 6.70736C21.4533 8.04564 21.7753 10.6561 21.3952 14.4666C21.1842 16.5821 20.8177 18.4627 20.6499 19.2605C20.6663 19.2764 20.6827 19.2928 20.6986 19.3088C21.008 19.6181 21.2789 19.951 21.5006 20.2917C21.7228 20.6321 21.8953 20.9794 22.0083 21.3183C22.2886 22.1602 22.1845 22.8821 21.7149 23.3517Z" fill="#B04617"/>
<path d="M19.2375 23.4652C20.257 23.948 21.1598 23.9067 21.7148 23.3517C22.1845 22.8821 22.2886 22.1602 22.0083 21.3183C21.8953 20.9794 21.7228 20.6321 21.5006 20.2917C21.2789 19.951 21.008 19.6181 20.6986 19.3088C20.6827 19.2928 20.6663 19.2764 20.6498 19.2605C20.8177 18.4627 21.1842 16.5821 21.3952 14.4666C21.7753 10.6561 21.4533 8.04564 20.437 6.70736C19.8459 5.92924 18.8334 5.06064 17.7286 4.38377C16.9416 3.90189 15.8058 3.33377 14.4928 3.06283L14.5003 3.04736H12V24C14.1609 24 16.0894 23.776 17.7319 23.3344C18.2377 23.1985 18.7725 23.2449 19.2375 23.4652Z" fill="#83360B"/>
<path d="M12 17.9481C15.1747 17.9481 17.7483 15.3745 17.7483 12.1998C17.7483 9.02509 15.1747 6.45148 12 6.45148C8.82529 6.45148 6.25168 9.02509 6.25168 12.1998C6.25168 15.3745 8.82529 17.9481 12 17.9481Z" fill="#FFEA4C"/>
<path d="M12 18.6512C8.44268 18.6512 5.54861 15.7571 5.54861 12.1998C5.54861 8.64246 8.44268 5.74835 12 5.74835C15.5574 5.74835 18.4514 8.64246 18.4514 12.1998C18.4514 15.7571 15.5574 18.6512 12 18.6512ZM12 7.1546C9.21808 7.1546 6.95486 9.41787 6.95486 12.1998C6.95486 14.9817 9.21813 17.245 12 17.245C14.7819 17.245 17.0452 14.9817 17.0452 12.1998C17.0452 9.41787 14.782 7.1546 12 7.1546Z" fill="#FFD15E"/>
<path d="M12.0112 11.519H11.9888C11.8324 11.519 11.7051 11.3918 11.7051 11.2354V11.1905C11.7051 11.0342 11.8324 10.9069 11.9888 10.9069H12.998C13.3863 10.9069 13.7011 10.5921 13.7011 10.2038C13.7011 9.81547 13.3863 9.50065 12.998 9.50065H12.6919V9.20581C12.6919 8.8175 12.3771 8.50269 11.9888 8.50269C11.6005 8.50269 11.2857 8.8175 11.2857 9.20581V9.6545C10.704 9.92183 10.2989 10.5096 10.2989 11.1905V11.2354C10.2989 12.1672 11.057 12.9253 11.9888 12.9253H12.0112C12.1676 12.9253 12.2949 13.0526 12.2949 13.2089C12.2949 13.3653 12.1677 13.4926 12.0112 13.4926H11.0021C10.6137 13.4926 10.2989 13.8074 10.2989 14.1957C10.2989 14.584 10.6137 14.8988 11.0021 14.8988H11.3081V15.1937C11.3081 15.582 11.6229 15.8968 12.0112 15.8968C12.3995 15.8968 12.7144 15.582 12.7144 15.1937V14.745C13.296 14.4777 13.7011 13.8899 13.7011 13.2089C13.7011 12.2771 12.9431 11.519 12.0112 11.519Z" fill="#FFD15E"/>
<path d="M17.7483 12.1998C17.7483 9.0251 15.1747 6.45148 12 6.45148V17.9481C15.1747 17.9481 17.7483 15.3745 17.7483 12.1998Z" fill="#FFD15E"/>
<path d="M12 10.907H12.998C13.3863 10.907 13.7011 10.5922 13.7011 10.2039C13.7011 9.81558 13.3863 9.50076 12.998 9.50076H12.6919V9.20592C12.6919 8.8214 12.3831 8.5094 12 8.50336V10.907Z" fill="#FFBA27"/>
<path d="M12.0112 13.4926H12V15.8963C12.0037 15.8963 12.0075 15.8969 12.0112 15.8969C12.3995 15.8969 12.7143 15.582 12.7143 15.1937V14.745C13.296 14.4777 13.7011 13.8899 13.7011 13.209C13.7011 12.2772 12.943 11.5191 12.0112 11.5191H12V12.9254H12.0112C12.1676 12.9254 12.2948 13.0526 12.2948 13.209C12.2948 13.3654 12.1676 13.4926 12.0112 13.4926Z" fill="#FFBA27"/>
<path d="M17.0452 12.1998C17.0452 14.9817 14.7819 17.245 12 17.245V18.6512C15.5573 18.6512 18.4514 15.7571 18.4514 12.1998C18.4514 8.64246 15.5573 5.74835 12 5.74835V7.1546C14.7819 7.1546 17.0452 9.41787 17.0452 12.1998Z" fill="#FFBA27"/>
</svg>
