<svg width="32" height="32" viewBox="0 0 32 32" fill="none" xmlns="http://www.w3.org/2000/svg">
<g clip-path="url(#clip0_2363_2786)">
<path d="M25.2186 11.965C25.4403 11.4379 25.3353 10.827 24.9502 10.4077L17.0152 1.78271C16.7526 1.49521 16.385 1.3335 16 1.3335C15.6149 1.3335 15.2473 1.49521 14.9847 1.78271L7.04974 10.4077C6.66466 10.827 6.55964 11.4379 6.78135 11.965C7.00307 12.4921 7.50484 12.8335 8.06496 12.8335H12.2658V30.0835C12.2658 31.1437 13.1002 32.0002 14.1329 32.0002H17.867C18.8997 32.0002 19.7341 31.1437 19.7341 30.0835V12.8335H23.935C24.4951 12.8335 24.9968 12.4921 25.2186 11.965Z" fill="#FFD169"/>
</g>
<defs>
<clipPath id="clip0_2363_2786">
<rect width="32" height="32" fill="white"/>
</clipPath>
</defs>
</svg>
